<?xml version="1.0" encoding="UTF-8" standalone="no"?>
<!-- Created with Inkscape (http://www.inkscape.org/) -->

<svg
   xmlns:dc="http://purl.org/dc/elements/1.1/"
   xmlns:cc="http://creativecommons.org/ns#"
   xmlns:rdf="http://www.w3.org/1999/02/22-rdf-syntax-ns#"
   xmlns:svg="http://www.w3.org/2000/svg"
   xmlns="http://www.w3.org/2000/svg"
   xmlns:sodipodi="http://sodipodi.sourceforge.net/DTD/sodipodi-0.dtd"
   xmlns:inkscape="http://www.inkscape.org/namespaces/inkscape"
   width="159.06654mm"
   height="50.392609mm"
   viewBox="0 0 159.06654 50.392609"
   version="1.1"
   id="svg8"
   inkscape:version="0.92.4 (5da689c313, 2019-01-14)"
   sodipodi:docname="system.svg">
  <defs
     id="defs2">
    <clipPath
       clipPathUnits="userSpaceOnUse"
       id="clipPath16">
      <path
         d="M 0,35.224 H 324.071 V 0 H 0 Z"
         id="path18"
         inkscape:connector-curvature="0" />
    </clipPath>
  </defs>
  <sodipodi:namedview
     id="base"
     pagecolor="#ffffff"
     bordercolor="#666666"
     borderopacity="1.0"
     inkscape:pageopacity="0.0"
     inkscape:pageshadow="2"
     inkscape:zoom="1.5169926"
     inkscape:cx="374.79994"
     inkscape:cy="106.47795"
     inkscape:document-units="mm"
     inkscape:current-layer="g1123"
     showgrid="false"
     inkscape:snap-text-baseline="true"
     inkscape:window-width="1600"
     inkscape:window-height="837"
     inkscape:window-x="-8"
     inkscape:window-y="-8"
     inkscape:window-maximized="1" />
  <metadata
     id="metadata5">
    <rdf:RDF>
      <cc:Work
         rdf:about="">
        <dc:format>image/svg+xml</dc:format>
        <dc:type
           rdf:resource="http://purl.org/dc/dcmitype/StillImage" />
        <dc:title />
      </cc:Work>
    </rdf:RDF>
  </metadata>
  <g
     inkscape:label="Camada 1"
     inkscape:groupmode="layer"
     id="layer1"
     transform="translate(-4.3528608,-110.51888)">
    <g
       id="g4680">
      <g
         id="g5460">
        <g
           id="g5804"
           transform="matrix(1.0365534,0,0,1.0402413,-2.7756044,-6.1979629)">
          <g
             id="g295">
            <g
               id="g1123">
              <g
                 id="g10"
                 transform="matrix(0.47352946,0,0,-0.59972117,6.8770844,133.32604)"
                 style="stroke:#ffffff;fill:#ffffff">
                <g
                   id="g12"
                   style="stroke:#ffffff;fill:#ffffff">
                  <g
                     id="g14"
                     clip-path="url(#clipPath16)"
                     style="stroke:#ffffff;fill:#ffffff">
                    <g
                       id="g20"
                       transform="translate(207.8811,11.7304)"
                       style="stroke:#ffffff;fill:#ffffff">
                      <path
                         d="M 0,0 C 0.6,0.539 1.281,0.857 2.051,0.936 2.822,1.023 3.516,0.926 4.16,0.666 4.787,0.387 5.294,-0.028 5.641,-0.634 6,-1.213 6.086,-1.904 5.903,-2.712 5.674,-3.523 5.236,-4.265 4.602,-4.956 3.967,-5.658 3.332,-6.288 2.688,-6.854 1.232,-8.232 -0.385,-9.242 -2.166,-9.906 c -1.772,-0.655 -3.574,-0.964 -5.393,-0.936 -1.808,0.04 -3.589,0.425 -5.331,1.167 -1.737,0.74 -3.305,1.847 -4.69,3.319 -0.82,0.878 -1.514,1.814 -2.082,2.786 -0.556,0.971 -0.992,1.993 -1.287,3.071 -0.455,1.581 -0.658,3.225 -0.608,4.948 0.028,1.704 0.328,3.371 0.895,4.986 0.558,1.619 1.348,3.139 2.381,4.565 1.037,1.426 2.298,2.649 3.789,3.648 1.088,0.742 2.187,1.38 3.286,1.928 1.106,0.53 2.27,1.041 3.513,1.511 0.711,0.259 1.435,0.52 2.185,0.78 0.752,0.249 1.52,0.433 2.305,0.587 0.787,0.125 1.574,0.175 2.357,0.144 0.787,-0.036 1.568,-0.192 2.308,-0.452 0.522,-0.205 1.05,-0.491 1.571,-0.838 0.52,-0.357 1.012,-0.752 1.454,-1.202 0.46,-0.461 0.847,-0.934 1.187,-1.437 0.336,-0.507 0.574,-1 0.73,-1.471 C 6.511,16.764 6.547,16.311 6.486,15.866 6.433,15.404 6.291,15.004 6.045,14.628 5.797,14.26 5.461,13.954 5.045,13.692 4.641,13.451 4.18,13.29 3.646,13.22 2.781,13.113 2.128,13.203 1.657,13.461 1.185,13.742 0.82,14.078 0.529,14.482 c -0.28,0.405 -0.547,0.788 -0.816,1.175 -0.254,0.397 -0.627,0.666 -1.108,0.839 -0.309,0 -0.539,-0.01 -0.685,-0.05 -1.279,-0.3 -2.561,-0.722 -3.84,-1.243 -1.301,-0.509 -2.496,-1.146 -3.592,-1.887 -1.119,-0.742 -2.08,-1.595 -2.899,-2.569 -0.818,-0.972 -1.426,-2.071 -1.802,-3.284 -0.449,-1.443 -0.617,-2.908 -0.499,-4.383 0.107,-1.482 0.56,-2.868 1.348,-4.175 0.454,-0.784 1.038,-1.456 1.79,-2.022 0.752,-0.58 1.581,-1.002 2.482,-1.292 0.897,-0.289 1.811,-0.388 2.746,-0.298 0.937,0.087 1.83,0.377 2.689,0.875 0.759,0.473 1.421,1.051 2.028,1.74 C -1.03,-1.394 -0.491,-0.702 0,0"
                         style="fill:#ffffff;fill-opacity:1;fill-rule:nonzero;stroke:#ffffff"
                         id="path22"
                         inkscape:connector-curvature="0" />
                    </g>
                    <g
                       id="g24"
                       transform="translate(229.5363,7.686)"
                       style="stroke:#ffffff;fill:#ffffff">
                      <path
                         d="m 0,0 c 1.04,0.408 1.955,0.947 2.743,1.619 0.77,0.664 1.463,1.404 2.051,2.217 0.578,0.805 1.078,1.666 1.472,2.589 0.404,0.922 0.762,1.839 1.07,2.782 0.21,1.173 0.329,2.386 0.34,3.637 0.014,1.241 -0.272,2.426 -0.851,3.553 -0.491,0.936 -1.222,1.724 -2.213,2.411 -0.994,0.66 -2.072,1.128 -3.258,1.385 -1.171,0.282 -2.364,0.327 -3.56,0.171 -1.193,-0.156 -2.264,-0.575 -3.195,-1.259 -1.331,-0.996 -2.389,-2.11 -3.207,-3.342 -0.811,-1.234 -1.425,-2.592 -1.85,-4.084 -0.336,-1.185 -0.527,-2.426 -0.568,-3.736 -0.028,-1.307 0.191,-2.55 0.685,-3.735 0.365,-0.873 0.932,-1.676 1.682,-2.386 0.744,-0.716 1.591,-1.281 2.522,-1.683 0.941,-0.405 1.941,-0.638 2.997,-0.686 C -2.082,-0.589 -1.03,-0.4 0,0 M 13.479,7.881 C 12.89,6.143 12.14,4.432 11.216,2.775 10.293,1.106 9.175,-0.386 7.864,-1.691 6.535,-3.003 5.007,-4.06 3.251,-4.871 c -1.75,-0.808 -3.754,-1.213 -6.007,-1.213 -1.452,0.06 -2.597,0.185 -3.456,0.357 -0.848,0.163 -1.675,0.413 -2.463,0.771 -1.435,0.372 -2.648,0.972 -3.67,1.798 -1.031,0.818 -1.885,1.772 -2.58,2.871 -0.685,1.088 -1.224,2.251 -1.59,3.477 -0.365,1.228 -0.607,2.415 -0.701,3.571 -0.165,2.021 0.018,4.083 0.577,6.173 0.558,2.078 1.433,4.004 2.646,5.767 1.224,1.752 2.747,3.265 4.574,4.535 1.852,1.262 3.949,2.078 6.297,2.483 1.226,0.191 2.448,0.258 3.697,0.191 1.254,-0.056 2.467,-0.277 3.639,-0.653 0.973,-0.307 1.871,-0.664 2.711,-1.069 0.834,-0.404 1.624,-0.927 2.392,-1.548 1.004,-0.81 1.851,-1.745 2.555,-2.803 0.684,-1.054 1.183,-2.168 1.502,-3.313 0.385,-1.461 0.547,-2.907 0.52,-4.342 -0.031,-1.435 -0.176,-2.869 -0.415,-4.301"
                         style="fill:#ffffff;fill-opacity:1;fill-rule:nonzero;stroke:#ffffff"
                         id="path26"
                         inkscape:connector-curvature="0" />
                    </g>
                    <g
                       id="g28"
                       transform="translate(280.9143,6.9975)"
                       style="stroke:#ffffff;fill:#ffffff">
                      <path
                         d="m 0,0 c 1.115,0.44 2.087,1.008 2.926,1.721 0.837,0.72 1.558,1.513 2.205,2.379 0.623,0.865 1.142,1.78 1.576,2.773 0.434,0.974 0.803,1.974 1.137,2.976 0.219,1.26 0.34,2.561 0.354,3.88 0.021,1.336 -0.278,2.607 -0.901,3.804 -0.522,1 -1.31,1.858 -2.371,2.569 -1.049,0.714 -2.213,1.213 -3.463,1.5 -1.273,0.288 -2.546,0.34 -3.825,0.174 -1.28,-0.161 -2.415,-0.614 -3.419,-1.357 -1.401,-1.061 -2.551,-2.241 -3.416,-3.56 -0.866,-1.319 -1.53,-2.773 -1.977,-4.372 -0.371,-1.262 -0.584,-2.591 -0.616,-3.999 -0.036,-1.405 0.205,-2.724 0.727,-3.984 0.405,-0.943 1.01,-1.792 1.809,-2.551 0.787,-0.761 1.693,-1.367 2.693,-1.799 1,-0.433 2.075,-0.678 3.198,-0.723 C -2.228,-0.617 -1.108,-0.425 0,0 M 14.412,8.431 C 13.786,6.565 12.978,4.745 11.986,2.965 11.014,1.182 9.807,-0.406 8.403,-1.811 6.987,-3.208 5.351,-4.335 3.473,-5.203 1.614,-6.068 -0.533,-6.501 -2.949,-6.501 c -1.551,0.059 -2.783,0.194 -3.698,0.365 -0.894,0.191 -1.789,0.472 -2.634,0.829 -1.524,0.404 -2.836,1.042 -3.923,1.936 -1.099,0.874 -2.011,1.894 -2.753,3.06 -0.74,1.156 -1.311,2.41 -1.694,3.73 -0.395,1.307 -0.646,2.588 -0.751,3.82 -0.193,2.157 0.01,4.362 0.607,6.589 0.596,2.23 1.539,4.281 2.839,6.161 1.29,1.887 2.929,3.492 4.903,4.851 1.962,1.347 4.198,2.232 6.719,2.665 1.298,0.196 2.609,0.273 3.949,0.196 1.338,-0.061 2.637,-0.303 3.899,-0.696 1.033,-0.326 2.003,-0.711 2.887,-1.155 0.886,-0.414 1.752,-0.965 2.563,-1.639 1.068,-0.865 1.971,-1.867 2.712,-2.995 0.752,-1.134 1.281,-2.319 1.617,-3.549 0.408,-1.56 0.588,-3.113 0.551,-4.641 -0.028,-1.531 -0.171,-3.063 -0.432,-4.595"
                         style="fill:#ffffff;fill-opacity:1;fill-rule:nonzero;stroke:#ffffff"
                         id="path30"
                         inkscape:connector-curvature="0" />
                    </g>
                    <g
                       id="g32"
                       transform="translate(313.3508,27.6914)"
                       style="stroke:#ffffff;fill:#ffffff">
                      <path
                         d="M 0,0 C -1.501,0.799 -3.15,1.248 -4.921,1.358 -6.702,1.461 -8.408,1.231 -10.054,0.7 v -11.396 c 1.674,0.093 3.324,0.296 4.959,0.585 1.625,0.277 3.141,0.915 4.516,1.877 0.762,0.548 1.367,1.176 1.84,1.908 0.461,0.713 0.74,1.455 0.839,2.215 C 2.183,-3.353 2.079,-2.62 1.76,-1.898 1.44,-1.175 0.856,-0.539 0,0 m -10.054,-24.419 c -0.123,-0.839 -0.507,-1.522 -1.182,-2.06 -0.674,-0.539 -1.409,-0.879 -2.197,-1.04 -0.789,-0.144 -1.503,-0.066 -2.156,0.221 -0.654,0.309 -1.002,0.915 -1.047,1.831 -0.184,3.859 -0.273,7.875 -0.273,12.025 V -1.06 c -0.597,0.192 -1.058,0.499 -1.348,0.906 -0.307,0.402 -0.482,0.846 -0.539,1.329 -0.057,0.499 0.011,0.992 0.191,1.503 0.204,0.499 0.475,0.932 0.862,1.307 0.4,0.405 0.961,0.767 1.663,1.1 0.723,0.345 1.503,0.652 2.337,0.932 0.84,0.281 1.679,0.539 2.507,0.73 0.817,0.203 1.508,0.359 2.077,0.461 2.36,0.446 4.729,0.426 7.129,-0.024 C 0.362,6.73 2.462,5.91 4.282,4.745 6.101,3.561 7.458,2.032 8.355,0.145 9.251,-1.747 9.351,-3.892 8.634,-6.317 8.413,-6.983 8.138,-7.653 7.798,-8.331 7.458,-8.993 7.065,-9.622 6.624,-10.197 c -0.637,-0.867 -1.387,-1.645 -2.254,-2.31 -0.866,-0.674 -1.802,-1.304 -2.81,-1.869 0.71,-0.674 1.396,-1.378 2.022,-2.117 0.644,-0.743 1.348,-1.406 2.136,-2.023 0.299,-0.233 0.74,-0.6 1.32,-1.099 0.579,-0.509 1.154,-1.048 1.686,-1.626 0.537,-0.568 1.019,-1.126 1.435,-1.686 0.404,-0.549 0.596,-1.01 0.556,-1.385 -0.038,-0.636 -0.23,-1.221 -0.589,-1.734 -0.356,-0.529 -0.787,-0.922 -1.289,-1.212 -0.5,-0.289 -1.057,-0.433 -1.652,-0.433 -0.6,0 -1.198,0.191 -1.805,0.556 -0.674,0.475 -1.309,1.021 -1.906,1.668 -0.608,0.634 -1.183,1.232 -1.743,1.76 -1.23,1.213 -2.435,2.428 -3.616,3.652 -1.176,1.23 -2.389,2.433 -3.633,3.618 -0.742,-0.147 -1.503,-0.24 -2.27,-0.289 -0.763,-0.045 -1.523,-0.106 -2.266,-0.172 v -7.164 z"
                         style="fill:#ffffff;fill-opacity:1;fill-rule:nonzero;stroke:#ffffff"
                         id="path34"
                         inkscape:connector-curvature="0" />
                    </g>
                    <g
                       id="g36"
                       transform="translate(265.2844,9.0332)"
                       style="stroke:#ffffff;fill:#ffffff">
                      <path
                         d="M 0,0 C 0.897,-0.308 1.581,-0.713 2.069,-1.253 2.571,-1.792 2.821,-2.352 2.86,-2.938 2.88,-3.534 2.688,-4.104 2.255,-4.664 1.829,-5.218 1.146,-5.671 0.192,-6.011 -0.173,-6.156 -0.683,-6.239 -1.357,-6.317 -2.03,-6.383 -2.965,-6.472 -4.151,-6.558 c -1.192,-0.095 -2.706,-0.22 -4.543,-0.364 -1.83,-0.135 -4.08,-0.348 -6.76,-0.589 -0.662,-0.085 -1.357,-0.154 -2.066,-0.21 -0.717,-0.057 -1.348,0.113 -1.901,0.509 -0.478,0.297 -0.847,0.781 -1.106,1.462 -0.259,0.676 -0.447,1.386 -0.56,2.138 -0.114,0.752 -0.192,1.515 -0.238,2.274 -0.041,0.75 -0.077,1.376 -0.117,1.884 -0.078,1.005 -0.163,2.16 -0.25,3.466 -0.084,1.302 -0.176,2.65 -0.249,4.009 -0.099,1.355 -0.193,2.686 -0.298,3.992 -0.098,1.302 -0.194,2.467 -0.272,3.469 -0.134,1.781 -0.23,3.218 -0.281,4.306 -0.047,1.094 -0.036,1.953 0.051,2.581 0.078,0.631 0.249,1.102 0.53,1.402 0.278,0.308 0.674,0.587 1.185,0.841 0.421,0.199 0.914,0.294 1.462,0.275 0.551,0 1.048,-0.095 1.54,-0.267 0.482,-0.185 0.896,-0.454 1.254,-0.818 0.335,-0.357 0.529,-0.773 0.564,-1.234 0.408,-4.024 0.716,-8.01 0.955,-11.969 0.233,-3.965 0.513,-7.913 0.818,-11.871 2.348,0.192 4.701,0.388 7.031,0.625 2.319,0.233 4.676,0.473 7.055,0.732 z"
                         style="fill:#ffffff;fill-opacity:1;fill-rule:nonzero;stroke:#ffffff"
                         id="path38"
                         inkscape:connector-curvature="0" />
                    </g>
                    <g
                       id="g40"
                       transform="translate(173.4416,3.6645)"
                       style="stroke:#ffffff;fill:#ffffff">
                      <path
                         d="M 0,0 C 0,1.345 1.092,2.339 2.383,2.339 3.66,2.339 4.752,1.345 4.752,0 4.752,-1.357 3.66,-2.352 2.383,-2.352 1.092,-2.352 0,-1.357 0,0 m 2.383,-1.961 c 1.06,0 1.898,0.833 1.898,1.961 0,1.11 -0.838,1.948 -1.898,1.948 C 1.309,1.948 0.472,1.11 0.472,0 c 0,-1.128 0.837,-1.961 1.911,-1.961 m -0.496,0.604 h -0.41 v 2.702 h 1.031 c 0.637,0 0.953,-0.235 0.953,-0.768 0,-0.483 -0.302,-0.695 -0.7,-0.746 l 0.77,-1.188 h -0.46 l -0.714,1.172 h -0.47 v -1.172 m 0.489,1.519 c 0.348,0 0.657,0.024 0.657,0.441 C 3.033,0.937 2.73,1 2.443,1 H 1.887 V 0.162 h 0.489"
                         style="fill:#ffffff;fill-opacity:1;fill-rule:nonzero;stroke:#ffffff"
                         id="path42"
                         inkscape:connector-curvature="0" />
                    </g>
                    <g
                       id="g44"
                       transform="translate(82.344,1.7919)"
                       style="stroke:#ffffff;fill:#ffffff">
                      <path
                         d="M 0,0 H -6.445 L -7.305,19.409 -15.685,0 H -19.98 L -23.564,17.546 -29.149,0 h -10.958 l -1.647,9.381 h -7.449 L -53.428,0 h -6.733 l 13.824,31.369 h 7.949 l 4.226,-25.352 8.236,25.352 h 6.375 l 3.151,-17.187 7.306,17.187 h 7.735 L 0,0 m -42.722,15.469 -1.181,6.09 -2.721,-6.09 z"
                         style="fill:#ffffff;fill-opacity:1;fill-rule:nonzero;stroke:#ffffff"
                         id="path46"
                         inkscape:connector-curvature="0" />
                    </g>
                    <g
                       id="g48"
                       transform="translate(100.8225,1.7919)"
                       style="stroke:#ffffff;fill:#ffffff">
                      <path
                         d="M 0,0 1.076,6.732 H -10.17 l 0.893,5.585 h 9.779 l 1.076,6.734 h -9.886 l 0.861,5.586 H 3.795 l 1.076,6.732 H -12.963 L -17.977,0 Z"
                         style="fill:#ffffff;fill-opacity:1;fill-rule:nonzero;stroke:#ffffff"
                         id="path50"
                         inkscape:connector-curvature="0" />
                    </g>
                    <g
                       id="g52"
                       transform="translate(184.5471,33.1611)"
                       style="stroke:#ffffff;fill:#ffffff">
                      <path
                         d="M 0,0 H -7.521 L -13.895,-10.241 -17.906,0 h -7.376 l 7.591,-16.544 -2.338,-14.825 h 6.446 l 1.979,13.107 z"
                         style="fill:#ffffff;fill-opacity:1;fill-rule:nonzero;stroke:#ffffff"
                         id="path54"
                         inkscape:connector-curvature="0" />
                    </g>
                    <g
                       id="g56"
                       transform="translate(136.5197,20.1762)"
                       style="stroke:#ffffff;fill:#ffffff">
                      <path
                         d="M 0,0 C 2,8.669 9.412,14.364 16.558,12.712 23.7,11.062 27.868,2.693 25.867,-5.977 23.865,-14.649 16.453,-20.341 9.309,-18.691 2.166,-17.041 -2.003,-8.674 0,0 m 9.756,-12.412 c 3.409,-1.526 7.584,1.468 9.32,6.684 C 20.815,-0.51 19.463,4.958 16.053,6.486 12.645,8.011 8.471,5.017 6.73,-0.201 4.992,-5.42 6.346,-10.885 9.756,-12.412"
                         style="fill:#ffffff;fill-opacity:1;fill-rule:nonzero;stroke:#ffffff"
                         id="path58"
                         inkscape:connector-curvature="0" />
                    </g>
                    <g
                       id="g60"
                       transform="translate(8.4328,30.3671)"
                       style="stroke:#ffffff;fill:#ffffff">
                      <path
                         d="m 0,0 c -6.141,-3.8 -9.095,-9.598 -8.308,-17.473 0.913,-9.14 12.748,-14.898 22.775,-9.099 0.877,0.509 0.534,0.429 0.86,0.719 l 2.006,12.747 H 5.372 L 4.456,-18.977 H 9.454 L 8.882,-22.13 c -2.865,-1.147 -7.736,-0.717 -9.814,3.009 -1.314,2.357 -2.533,7.623 3.01,12.462 4.511,3.939 12.318,4.654 16.83,2.575 0,0 0.574,3.297 1.003,6.377 C 11.245,5.299 4.512,2.794 0,0"
                         style="fill:#ffffff;fill-opacity:1;fill-rule:nonzero;stroke:#ffffff"
                         id="path62"
                         inkscape:connector-curvature="0" />
                    </g>
                    <g
                       id="g64"
                       transform="translate(121.0471,26.3759)"
                       style="stroke:#ffffff;fill:#ffffff">
                      <path
                         d="M 0,0 H 4.194 C 8.742,0 7.818,-5.829 3.482,-5.829 H -0.995 L 0,0 m -1.99,-12.227 h 5.401 c 5.118,0 4.978,-6.254 -0.71,-6.254 h -5.686 l 0.995,6.254 M -5.543,6.608 -10.52,-24.523 h 14.5 c 5.971,0 14.702,8.802 6.753,15.994 8.173,8.457 0.072,15.068 -4.264,15.137 -3.483,0.059 -12.084,0 -12.084,0 h 0.072"
                         style="fill:#ffffff;fill-opacity:1;fill-rule:nonzero;stroke:#ffffff"
                         id="path66"
                         inkscape:connector-curvature="0" />
                    </g>
                  </g>
                </g>
              </g>
              <g
                 style="fill:none"
                 id="g18"
                 transform="matrix(0.30958537,0,0,0.35430531,-10.016379,102.10314)" />
              <g
                 style="fill:none"
                 transform="matrix(1.1001465,0,0,1.3391067,-14.518562,-45.665912)"
                 id="g5002">
                <g
                   id="g4647"
                   transform="matrix(1.2575384,0,0,0.76222688,-10.167761,31.666381)"
                   style="fill:none;fill-opacity:1">
                  <g
                     id="text4637"
                     style="font-style:normal;font-variant:normal;font-weight:normal;font-stretch:normal;font-size:21.16666603px;line-height:1.25;font-family:'Bauhaus 93';-inkscape-font-specification:'Bauhaus 93, Normal';font-variant-ligatures:normal;font-variant-caps:normal;font-variant-numeric:normal;font-feature-settings:normal;text-align:start;letter-spacing:0px;word-spacing:0px;writing-mode:lr-tb;text-anchor:start;fill:none;fill-opacity:1;stroke:#2e3192;stroke-width:1.29999995;stroke-miterlimit:4;stroke-dasharray:none;stroke-opacity:1"
                     aria-label="2 Player">
                    <path
                       inkscape:connector-curvature="0"
                       id="path4684"
                       style="font-style:normal;font-variant:normal;font-weight:normal;font-stretch:normal;font-size:21.16666603px;font-family:'Bauhaus 93';-inkscape-font-specification:'Bauhaus 93, Normal';font-variant-ligatures:normal;font-variant-caps:normal;font-variant-numeric:normal;font-feature-settings:normal;text-align:start;writing-mode:lr-tb;text-anchor:start;fill:none;fill-opacity:1;stroke:#2e3192;stroke-width:1.29999995;stroke-miterlimit:4;stroke-dasharray:none;stroke-opacity:1"
                       d="m 63.562339,150.91921 v 4.08244 h -9.115722 l 4.526855,-8.49561 0.15503,-0.28939 q 0.186035,-0.34106 0.186035,-0.67179 0,-0.83716 -0.981852,-0.83716 -0.382406,0 -0.671794,0.28939 -0.279053,0.27905 -0.279053,0.66146 0,0.43408 0.372071,0.78548 l -1.808675,3.22461 q -1.136882,-0.7028 -1.746664,-1.788 -0.609782,-1.08521 -0.609782,-2.39779 0,-2.03605 1.436605,-3.48299 1.436605,-1.45728 3.472656,-1.45728 2.046387,0 3.472656,1.43661 1.436605,1.4366 1.436605,3.49332 0,1.17823 -0.527099,2.19108 l -1.674317,3.25562 z" />
                    <path
                       inkscape:connector-curvature="0"
                       id="path4686"
                       style="font-style:normal;font-variant:normal;font-weight:normal;font-stretch:normal;font-size:21.16666603px;font-family:'Bauhaus 93';-inkscape-font-specification:'Bauhaus 93, Normal';font-variant-ligatures:normal;font-variant-caps:normal;font-variant-numeric:normal;font-feature-settings:normal;text-align:start;writing-mode:lr-tb;text-anchor:start;fill:none;fill-opacity:1;stroke:#2e3192;stroke-width:1.29999995;stroke-miterlimit:4;stroke-dasharray:none;stroke-opacity:1"
                       d="m 75.882,150.12339 v -3.70003 q 1.271241,0 1.271241,-0.97152 0,-0.88883 -0.971517,-0.88883 -0.981852,0 -0.981852,1.21956 v 9.21908 h -4.196127 v -8.785 q 0,-1.36425 0.268718,-2.23242 0.279053,-0.8785 0.940511,-1.63297 0.74414,-0.83716 1.860351,-1.32292 1.116211,-0.48576 2.304769,-0.48576 2.14974,0 3.607015,1.44694 1.467611,1.44694 1.467611,3.58635 0,2.07739 -1.312582,3.3693 -1.198893,1.18856 -3.61735,1.18856 z" />
                    <path
                       inkscape:connector-curvature="0"
                       id="path4688"
                       style="font-style:normal;font-variant:normal;font-weight:normal;font-stretch:normal;font-size:21.16666603px;font-family:'Bauhaus 93';-inkscape-font-specification:'Bauhaus 93, Normal';font-variant-ligatures:normal;font-variant-caps:normal;font-variant-numeric:normal;font-feature-settings:normal;text-align:start;writing-mode:lr-tb;text-anchor:start;fill:none;fill-opacity:1;stroke:#2e3192;stroke-width:1.29999995;stroke-miterlimit:4;stroke-dasharray:none;stroke-opacity:1"
                       d="m 86.775392,140.89398 v 14.10767 h -3.865397 v -14.10767 z" />
                    <path
                       inkscape:connector-curvature="0"
                       id="path4690"
                       style="font-style:normal;font-variant:normal;font-weight:normal;font-stretch:normal;font-size:21.16666603px;font-family:'Bauhaus 93';-inkscape-font-specification:'Bauhaus 93, Normal';font-variant-ligatures:normal;font-variant-caps:normal;font-variant-numeric:normal;font-feature-settings:normal;text-align:start;writing-mode:lr-tb;text-anchor:start;fill:none;fill-opacity:1;stroke:#2e3192;stroke-width:1.29999995;stroke-miterlimit:4;stroke-dasharray:none;stroke-opacity:1"
                       d="m 94.754234,151.13625 v 3.99976 q -0.475423,0.0827 -0.868164,0.0827 -2.325439,0 -3.875732,-1.52962 -1.550293,-1.52963 -1.550293,-3.83439 0,-2.24276 1.560628,-3.80339 1.570964,-1.56063 3.813721,-1.56063 2.501139,0 3.937744,1.46761 1.44694,1.45728 1.44694,3.98942 v 5.05396 h -3.865397 v -4.7749 q 0,-0.81649 -0.403076,-1.30225 -0.392741,-0.48576 -1.064535,-0.48576 -0.609782,0 -1.054199,0.44442 -0.444417,0.44442 -0.444417,1.0542 0,0.64079 0.403076,1.0542 0.403076,0.41341 1.023193,0.41341 0.506429,0 0.940511,-0.26872 z" />
                    <path
                       inkscape:connector-curvature="0"
                       id="path4692"
                       style="font-style:normal;font-variant:normal;font-weight:normal;font-stretch:normal;font-size:21.16666603px;font-family:'Bauhaus 93';-inkscape-font-specification:'Bauhaus 93, Normal';font-variant-ligatures:normal;font-variant-caps:normal;font-variant-numeric:normal;font-feature-settings:normal;text-align:start;writing-mode:lr-tb;text-anchor:start;fill:none;fill-opacity:1;stroke:#2e3192;stroke-width:1.29999995;stroke-miterlimit:4;stroke-dasharray:none;stroke-opacity:1"
                       d="m 102.80542,159.51817 v -3.35897 q 0.78548,0.33073 1.37459,0.33073 1.88103,0 2.43913,-2.11873 -1.01286,0.59944 -1.98437,0.59944 -1.43661,0 -2.36678,-1.06453 -0.93018,-1.07487 -0.93018,-2.72852 v -6.48022 h 3.8654 v 5.53971 q 0,0.91984 0.76481,0.91984 0.7338,0 0.7338,-1.01286 v -5.44669 h 3.8654 v 9.1984 q 0,2.57349 -1.44694,4.15479 -1.72599,1.88102 -4.17545,1.88102 -1.07487,0 -2.13941,-0.41341 z" />
                    <path
                       inkscape:connector-curvature="0"
                       id="path4694"
                       style="font-style:normal;font-variant:normal;font-weight:normal;font-stretch:normal;font-size:21.16666603px;font-family:'Bauhaus 93';-inkscape-font-specification:'Bauhaus 93, Normal';font-variant-ligatures:normal;font-variant-caps:normal;font-variant-numeric:normal;font-feature-settings:normal;text-align:start;writing-mode:lr-tb;text-anchor:start;fill:none;fill-opacity:1;stroke:#2e3192;stroke-width:1.29999995;stroke-miterlimit:4;stroke-dasharray:none;stroke-opacity:1"
                       d="m 122.96957,150.47479 h -5.86011 q -0.13436,-0.44441 -0.13436,-0.81648 0,-0.51677 0.18604,-1.01286 h 1.9637 q -0.20671,-1.14722 -1.29191,-1.14722 -0.72347,0 -1.17822,0.62012 -0.45476,0.60978 -0.45476,1.57096 0,1.00252 0.43409,1.62264 0.44441,0.62012 1.15755,0.62012 0.57877,0 1.11621,-0.57878 l 2.20141,2.64584 q -1.53995,1.20922 -3.42098,1.20922 -2.29443,0 -3.85506,-1.53995 -1.56063,-1.53996 -1.56063,-3.81372 0,-2.26343 1.57097,-3.82406 1.5813,-1.56063 3.87573,-1.56063 2.24276,0 3.76204,1.52962 1.52963,1.51929 1.52963,3.75171 0,0.22738 -0.0413,0.72347 z" />
                    <path
                       inkscape:connector-curvature="0"
                       id="path4696"
                       style="font-style:normal;font-variant:normal;font-weight:normal;font-stretch:normal;font-size:21.16666603px;font-family:'Bauhaus 93';-inkscape-font-specification:'Bauhaus 93, Normal';font-variant-ligatures:normal;font-variant-caps:normal;font-variant-numeric:normal;font-feature-settings:normal;text-align:start;writing-mode:lr-tb;text-anchor:start;fill:none;fill-opacity:1;stroke:#2e3192;stroke-width:1.29999995;stroke-miterlimit:4;stroke-dasharray:none;stroke-opacity:1"
                       d="m 130.23527,144.59401 v 4.13412 q -0.40308,-0.22738 -0.73381,-0.22738 -1.05419,0 -1.05419,1.61231 v 4.88859 h -3.8654 v -5.63273 q 0,-2.23242 1.21956,-3.55534 1.21957,-1.33325 3.25562,-1.33325 0.45475,0 1.17822,0.11368 z" />
                  </g>
                  <g
                     id="text4641"
                     style="font-style:normal;font-variant:normal;font-weight:normal;font-stretch:normal;font-size:21.16666603px;line-height:1.25;font-family:'Bauhaus 93';-inkscape-font-specification:'Bauhaus 93, Normal';font-variant-ligatures:normal;font-variant-caps:normal;font-variant-numeric:normal;font-feature-settings:normal;text-align:start;letter-spacing:0px;word-spacing:0px;writing-mode:lr-tb;text-anchor:start;fill:none;fill-opacity:1;stroke:none;stroke-width:0.26458332"
                     aria-label="2 Player">
                    <path
                       inkscape:connector-curvature="0"
                       id="path4699"
                       style="font-style:normal;font-variant:normal;font-weight:normal;font-stretch:normal;font-size:21.16666603px;font-family:'Bauhaus 93';-inkscape-font-specification:'Bauhaus 93, Normal';font-variant-ligatures:normal;font-variant-caps:normal;font-variant-numeric:normal;font-feature-settings:normal;text-align:start;writing-mode:lr-tb;text-anchor:start;fill:none;fill-opacity:1;stroke-width:0.26458332"
                       d="m 63.562339,150.91921 v 4.08244 h -9.115722 l 4.526855,-8.49561 0.15503,-0.28939 q 0.186035,-0.34106 0.186035,-0.67179 0,-0.83716 -0.981852,-0.83716 -0.382406,0 -0.671794,0.28939 -0.279053,0.27905 -0.279053,0.66146 0,0.43408 0.372071,0.78548 l -1.808675,3.22461 q -1.136882,-0.7028 -1.746664,-1.788 -0.609782,-1.08521 -0.609782,-2.39779 0,-2.03605 1.436605,-3.48299 1.436605,-1.45728 3.472656,-1.45728 2.046387,0 3.472656,1.43661 1.436605,1.4366 1.436605,3.49332 0,1.17823 -0.527099,2.19108 l -1.674317,3.25562 z" />
                    <path
                       inkscape:connector-curvature="0"
                       id="path4701"
                       style="font-style:normal;font-variant:normal;font-weight:normal;font-stretch:normal;font-size:21.16666603px;font-family:'Bauhaus 93';-inkscape-font-specification:'Bauhaus 93, Normal';font-variant-ligatures:normal;font-variant-caps:normal;font-variant-numeric:normal;font-feature-settings:normal;text-align:start;writing-mode:lr-tb;text-anchor:start;fill:none;fill-opacity:1;stroke-width:0.26458332"
                       d="m 75.882,150.12339 v -3.70003 q 1.271241,0 1.271241,-0.97152 0,-0.88883 -0.971517,-0.88883 -0.981852,0 -0.981852,1.21956 v 9.21908 h -4.196127 v -8.785 q 0,-1.36425 0.268718,-2.23242 0.279053,-0.8785 0.940511,-1.63297 0.74414,-0.83716 1.860351,-1.32292 1.116211,-0.48576 2.304769,-0.48576 2.14974,0 3.607015,1.44694 1.467611,1.44694 1.467611,3.58635 0,2.07739 -1.312582,3.3693 -1.198893,1.18856 -3.61735,1.18856 z" />
                    <path
                       inkscape:connector-curvature="0"
                       id="path4703"
                       style="font-style:normal;font-variant:normal;font-weight:normal;font-stretch:normal;font-size:21.16666603px;font-family:'Bauhaus 93';-inkscape-font-specification:'Bauhaus 93, Normal';font-variant-ligatures:normal;font-variant-caps:normal;font-variant-numeric:normal;font-feature-settings:normal;text-align:start;writing-mode:lr-tb;text-anchor:start;fill:none;fill-opacity:1;stroke-width:0.26458332"
                       d="m 86.775392,140.89398 v 14.10767 h -3.865397 v -14.10767 z" />
                    <path
                       inkscape:connector-curvature="0"
                       id="path4705"
                       style="font-style:normal;font-variant:normal;font-weight:normal;font-stretch:normal;font-size:21.16666603px;font-family:'Bauhaus 93';-inkscape-font-specification:'Bauhaus 93, Normal';font-variant-ligatures:normal;font-variant-caps:normal;font-variant-numeric:normal;font-feature-settings:normal;text-align:start;writing-mode:lr-tb;text-anchor:start;fill:none;fill-opacity:1;stroke-width:0.26458332"
                       d="m 94.754234,151.13625 v 3.99976 q -0.475423,0.0827 -0.868164,0.0827 -2.325439,0 -3.875732,-1.52962 -1.550293,-1.52963 -1.550293,-3.83439 0,-2.24276 1.560628,-3.80339 1.570964,-1.56063 3.813721,-1.56063 2.501139,0 3.937744,1.46761 1.44694,1.45728 1.44694,3.98942 v 5.05396 h -3.865397 v -4.7749 q 0,-0.81649 -0.403076,-1.30225 -0.392741,-0.48576 -1.064535,-0.48576 -0.609782,0 -1.054199,0.44442 -0.444417,0.44442 -0.444417,1.0542 0,0.64079 0.403076,1.0542 0.403076,0.41341 1.023193,0.41341 0.506429,0 0.940511,-0.26872 z" />
                    <path
                       inkscape:connector-curvature="0"
                       id="path4707"
                       style="font-style:normal;font-variant:normal;font-weight:normal;font-stretch:normal;font-size:21.16666603px;font-family:'Bauhaus 93';-inkscape-font-specification:'Bauhaus 93, Normal';font-variant-ligatures:normal;font-variant-caps:normal;font-variant-numeric:normal;font-feature-settings:normal;text-align:start;writing-mode:lr-tb;text-anchor:start;fill:none;fill-opacity:1;stroke-width:0.26458332"
                       d="m 102.80542,159.51817 v -3.35897 q 0.78548,0.33073 1.37459,0.33073 1.88103,0 2.43913,-2.11873 -1.01286,0.59944 -1.98437,0.59944 -1.43661,0 -2.36678,-1.06453 -0.93018,-1.07487 -0.93018,-2.72852 v -6.48022 h 3.8654 v 5.53971 q 0,0.91984 0.76481,0.91984 0.7338,0 0.7338,-1.01286 v -5.44669 h 3.8654 v 9.1984 q 0,2.57349 -1.44694,4.15479 -1.72599,1.88102 -4.17545,1.88102 -1.07487,0 -2.13941,-0.41341 z" />
                    <path
                       inkscape:connector-curvature="0"
                       id="path4709"
                       style="font-style:normal;font-variant:normal;font-weight:normal;font-stretch:normal;font-size:21.16666603px;font-family:'Bauhaus 93';-inkscape-font-specification:'Bauhaus 93, Normal';font-variant-ligatures:normal;font-variant-caps:normal;font-variant-numeric:normal;font-feature-settings:normal;text-align:start;writing-mode:lr-tb;text-anchor:start;fill:none;fill-opacity:1;stroke-width:0.26458332"
                       d="m 122.96957,150.47479 h -5.86011 q -0.13436,-0.44441 -0.13436,-0.81648 0,-0.51677 0.18604,-1.01286 h 1.9637 q -0.20671,-1.14722 -1.29191,-1.14722 -0.72347,0 -1.17822,0.62012 -0.45476,0.60978 -0.45476,1.57096 0,1.00252 0.43409,1.62264 0.44441,0.62012 1.15755,0.62012 0.57877,0 1.11621,-0.57878 l 2.20141,2.64584 q -1.53995,1.20922 -3.42098,1.20922 -2.29443,0 -3.85506,-1.53995 -1.56063,-1.53996 -1.56063,-3.81372 0,-2.26343 1.57097,-3.82406 1.5813,-1.56063 3.87573,-1.56063 2.24276,0 3.76204,1.52962 1.52963,1.51929 1.52963,3.75171 0,0.22738 -0.0413,0.72347 z" />
                    <path
                       inkscape:connector-curvature="0"
                       id="path4711"
                       style="font-style:normal;font-variant:normal;font-weight:normal;font-stretch:normal;font-size:21.16666603px;font-family:'Bauhaus 93';-inkscape-font-specification:'Bauhaus 93, Normal';font-variant-ligatures:normal;font-variant-caps:normal;font-variant-numeric:normal;font-feature-settings:normal;text-align:start;writing-mode:lr-tb;text-anchor:start;fill:none;fill-opacity:1;stroke-width:0.26458332"
                       d="m 130.23527,144.59401 v 4.13412 q -0.40308,-0.22738 -0.73381,-0.22738 -1.05419,0 -1.05419,1.61231 v 4.88859 h -3.8654 v -5.63273 q 0,-2.23242 1.21956,-3.55534 1.21957,-1.33325 3.25562,-1.33325 0.45475,0 1.17822,0.11368 z" />
                  </g>
                </g>
              </g>
              <g
                 id="g4865"
                 transform="matrix(1.3834765,0,0,1.0207031,-25.704589,-3.2612486)"
                 style="fill:none;fill-opacity:1">
                <g
                   id="g4847"
                   style="font-style:normal;font-variant:normal;font-weight:normal;font-stretch:normal;font-size:21.16666603px;line-height:1.25;font-family:'Bauhaus 93';-inkscape-font-specification:'Bauhaus 93, Normal';font-variant-ligatures:normal;font-variant-caps:normal;font-variant-numeric:normal;font-feature-settings:normal;text-align:start;letter-spacing:0px;word-spacing:0px;writing-mode:lr-tb;text-anchor:start;fill:none;fill-opacity:1;stroke:#2e3192;stroke-width:1.29999995;stroke-miterlimit:4;stroke-dasharray:none;stroke-opacity:1"
                   aria-label="2 Player">
                  <path
                     inkscape:connector-curvature="0"
                     id="path4833"
                     style="font-style:normal;font-variant:normal;font-weight:normal;font-stretch:normal;font-size:21.16666603px;font-family:'Bauhaus 93';-inkscape-font-specification:'Bauhaus 93, Normal';font-variant-ligatures:normal;font-variant-caps:normal;font-variant-numeric:normal;font-feature-settings:normal;text-align:start;writing-mode:lr-tb;text-anchor:start;fill:none;fill-opacity:1;stroke:#2e3192;stroke-width:1.29999995;stroke-miterlimit:4;stroke-dasharray:none;stroke-opacity:1"
                     d="m 63.562339,150.91921 v 4.08244 h -9.115722 l 4.526855,-8.49561 0.15503,-0.28939 q 0.186035,-0.34106 0.186035,-0.67179 0,-0.83716 -0.981852,-0.83716 -0.382406,0 -0.671794,0.28939 -0.279053,0.27905 -0.279053,0.66146 0,0.43408 0.372071,0.78548 l -1.808675,3.22461 q -1.136882,-0.7028 -1.746664,-1.788 -0.609782,-1.08521 -0.609782,-2.39779 0,-2.03605 1.436605,-3.48299 1.436605,-1.45728 3.472656,-1.45728 2.046387,0 3.472656,1.43661 1.436605,1.4366 1.436605,3.49332 0,1.17823 -0.527099,2.19108 l -1.674317,3.25562 z" />
                  <path
                     inkscape:connector-curvature="0"
                     id="path4835"
                     style="font-style:normal;font-variant:normal;font-weight:normal;font-stretch:normal;font-size:21.16666603px;font-family:'Bauhaus 93';-inkscape-font-specification:'Bauhaus 93, Normal';font-variant-ligatures:normal;font-variant-caps:normal;font-variant-numeric:normal;font-feature-settings:normal;text-align:start;writing-mode:lr-tb;text-anchor:start;fill:none;fill-opacity:1;stroke:#2e3192;stroke-width:1.29999995;stroke-miterlimit:4;stroke-dasharray:none;stroke-opacity:1"
                     d="m 75.882,150.12339 v -3.70003 q 1.271241,0 1.271241,-0.97152 0,-0.88883 -0.971517,-0.88883 -0.981852,0 -0.981852,1.21956 v 9.21908 h -4.196127 v -8.785 q 0,-1.36425 0.268718,-2.23242 0.279053,-0.8785 0.940511,-1.63297 0.74414,-0.83716 1.860351,-1.32292 1.116211,-0.48576 2.304769,-0.48576 2.14974,0 3.607015,1.44694 1.467611,1.44694 1.467611,3.58635 0,2.07739 -1.312582,3.3693 -1.198893,1.18856 -3.61735,1.18856 z" />
                  <path
                     inkscape:connector-curvature="0"
                     id="path4837"
                     style="font-style:normal;font-variant:normal;font-weight:normal;font-stretch:normal;font-size:21.16666603px;font-family:'Bauhaus 93';-inkscape-font-specification:'Bauhaus 93, Normal';font-variant-ligatures:normal;font-variant-caps:normal;font-variant-numeric:normal;font-feature-settings:normal;text-align:start;writing-mode:lr-tb;text-anchor:start;fill:none;fill-opacity:1;stroke:#2e3192;stroke-width:1.29999995;stroke-miterlimit:4;stroke-dasharray:none;stroke-opacity:1"
                     d="m 86.775392,140.89398 v 14.10767 h -3.865397 v -14.10767 z" />
                  <path
                     inkscape:connector-curvature="0"
                     id="path4839"
                     style="font-style:normal;font-variant:normal;font-weight:normal;font-stretch:normal;font-size:21.16666603px;font-family:'Bauhaus 93';-inkscape-font-specification:'Bauhaus 93, Normal';font-variant-ligatures:normal;font-variant-caps:normal;font-variant-numeric:normal;font-feature-settings:normal;text-align:start;writing-mode:lr-tb;text-anchor:start;fill:none;fill-opacity:1;stroke:#2e3192;stroke-width:1.29999995;stroke-miterlimit:4;stroke-dasharray:none;stroke-opacity:1"
                     d="m 94.754234,151.13625 v 3.99976 q -0.475423,0.0827 -0.868164,0.0827 -2.325439,0 -3.875732,-1.52962 -1.550293,-1.52963 -1.550293,-3.83439 0,-2.24276 1.560628,-3.80339 1.570964,-1.56063 3.813721,-1.56063 2.501139,0 3.937744,1.46761 1.44694,1.45728 1.44694,3.98942 v 5.05396 h -3.865397 v -4.7749 q 0,-0.81649 -0.403076,-1.30225 -0.392741,-0.48576 -1.064535,-0.48576 -0.609782,0 -1.054199,0.44442 -0.444417,0.44442 -0.444417,1.0542 0,0.64079 0.403076,1.0542 0.403076,0.41341 1.023193,0.41341 0.506429,0 0.940511,-0.26872 z" />
                  <path
                     inkscape:connector-curvature="0"
                     id="path4841"
                     style="font-style:normal;font-variant:normal;font-weight:normal;font-stretch:normal;font-size:21.16666603px;font-family:'Bauhaus 93';-inkscape-font-specification:'Bauhaus 93, Normal';font-variant-ligatures:normal;font-variant-caps:normal;font-variant-numeric:normal;font-feature-settings:normal;text-align:start;writing-mode:lr-tb;text-anchor:start;fill:none;fill-opacity:1;stroke:#2e3192;stroke-width:1.29999995;stroke-miterlimit:4;stroke-dasharray:none;stroke-opacity:1"
                     d="m 102.80542,159.51817 v -3.35897 q 0.78548,0.33073 1.37459,0.33073 1.88103,0 2.43913,-2.11873 -1.01286,0.59944 -1.98437,0.59944 -1.43661,0 -2.36678,-1.06453 -0.93018,-1.07487 -0.93018,-2.72852 v -6.48022 h 3.8654 v 5.53971 q 0,0.91984 0.76481,0.91984 0.7338,0 0.7338,-1.01286 v -5.44669 h 3.8654 v 9.1984 q 0,2.57349 -1.44694,4.15479 -1.72599,1.88102 -4.17545,1.88102 -1.07487,0 -2.13941,-0.41341 z" />
                  <path
                     inkscape:connector-curvature="0"
                     id="path4843"
                     style="font-style:normal;font-variant:normal;font-weight:normal;font-stretch:normal;font-size:21.16666603px;font-family:'Bauhaus 93';-inkscape-font-specification:'Bauhaus 93, Normal';font-variant-ligatures:normal;font-variant-caps:normal;font-variant-numeric:normal;font-feature-settings:normal;text-align:start;writing-mode:lr-tb;text-anchor:start;fill:none;fill-opacity:1;stroke:#2e3192;stroke-width:1.29999995;stroke-miterlimit:4;stroke-dasharray:none;stroke-opacity:1"
                     d="m 122.96957,150.47479 h -5.86011 q -0.13436,-0.44441 -0.13436,-0.81648 0,-0.51677 0.18604,-1.01286 h 1.9637 q -0.20671,-1.14722 -1.29191,-1.14722 -0.72347,0 -1.17822,0.62012 -0.45476,0.60978 -0.45476,1.57096 0,1.00252 0.43409,1.62264 0.44441,0.62012 1.15755,0.62012 0.57877,0 1.11621,-0.57878 l 2.20141,2.64584 q -1.53995,1.20922 -3.42098,1.20922 -2.29443,0 -3.85506,-1.53995 -1.56063,-1.53996 -1.56063,-3.81372 0,-2.26343 1.57097,-3.82406 1.5813,-1.56063 3.87573,-1.56063 2.24276,0 3.76204,1.52962 1.52963,1.51929 1.52963,3.75171 0,0.22738 -0.0413,0.72347 z" />
                  <path
                     inkscape:connector-curvature="0"
                     id="path4845"
                     style="font-style:normal;font-variant:normal;font-weight:normal;font-stretch:normal;font-size:21.16666603px;font-family:'Bauhaus 93';-inkscape-font-specification:'Bauhaus 93, Normal';font-variant-ligatures:normal;font-variant-caps:normal;font-variant-numeric:normal;font-feature-settings:normal;text-align:start;writing-mode:lr-tb;text-anchor:start;fill:none;fill-opacity:1;stroke:#2e3192;stroke-width:1.29999995;stroke-miterlimit:4;stroke-dasharray:none;stroke-opacity:1"
                     d="m 130.23527,144.59401 v 4.13412 q -0.40308,-0.22738 -0.73381,-0.22738 -1.05419,0 -1.05419,1.61231 v 4.88859 h -3.8654 v -5.63273 q 0,-2.23242 1.21956,-3.55534 1.21957,-1.33325 3.25562,-1.33325 0.45475,0 1.17822,0.11368 z" />
                </g>
                <g
                   id="g4863"
                   style="font-style:normal;font-variant:normal;font-weight:normal;font-stretch:normal;font-size:21.16666603px;line-height:1.25;font-family:'Bauhaus 93';-inkscape-font-specification:'Bauhaus 93, Normal';font-variant-ligatures:normal;font-variant-caps:normal;font-variant-numeric:normal;font-feature-settings:normal;text-align:start;letter-spacing:0px;word-spacing:0px;writing-mode:lr-tb;text-anchor:start;fill:none;fill-opacity:1;stroke:none;stroke-width:0.26458332"
                   aria-label="2 Player">
                  <path
                     inkscape:connector-curvature="0"
                     id="path4849"
                     style="font-style:normal;font-variant:normal;font-weight:normal;font-stretch:normal;font-size:21.16666603px;font-family:'Bauhaus 93';-inkscape-font-specification:'Bauhaus 93, Normal';font-variant-ligatures:normal;font-variant-caps:normal;font-variant-numeric:normal;font-feature-settings:normal;text-align:start;writing-mode:lr-tb;text-anchor:start;fill:none;fill-opacity:1;stroke-width:0.26458332"
                     d="m 63.562339,150.91921 v 4.08244 h -9.115722 l 4.526855,-8.49561 0.15503,-0.28939 q 0.186035,-0.34106 0.186035,-0.67179 0,-0.83716 -0.981852,-0.83716 -0.382406,0 -0.671794,0.28939 -0.279053,0.27905 -0.279053,0.66146 0,0.43408 0.372071,0.78548 l -1.808675,3.22461 q -1.136882,-0.7028 -1.746664,-1.788 -0.609782,-1.08521 -0.609782,-2.39779 0,-2.03605 1.436605,-3.48299 1.436605,-1.45728 3.472656,-1.45728 2.046387,0 3.472656,1.43661 1.436605,1.4366 1.436605,3.49332 0,1.17823 -0.527099,2.19108 l -1.674317,3.25562 z" />
                  <path
                     inkscape:connector-curvature="0"
                     id="path4851"
                     style="font-style:normal;font-variant:normal;font-weight:normal;font-stretch:normal;font-size:21.16666603px;font-family:'Bauhaus 93';-inkscape-font-specification:'Bauhaus 93, Normal';font-variant-ligatures:normal;font-variant-caps:normal;font-variant-numeric:normal;font-feature-settings:normal;text-align:start;writing-mode:lr-tb;text-anchor:start;fill:none;fill-opacity:1;stroke-width:0.26458332"
                     d="m 75.882,150.12339 v -3.70003 q 1.271241,0 1.271241,-0.97152 0,-0.88883 -0.971517,-0.88883 -0.981852,0 -0.981852,1.21956 v 9.21908 h -4.196127 v -8.785 q 0,-1.36425 0.268718,-2.23242 0.279053,-0.8785 0.940511,-1.63297 0.74414,-0.83716 1.860351,-1.32292 1.116211,-0.48576 2.304769,-0.48576 2.14974,0 3.607015,1.44694 1.467611,1.44694 1.467611,3.58635 0,2.07739 -1.312582,3.3693 -1.198893,1.18856 -3.61735,1.18856 z" />
                  <path
                     inkscape:connector-curvature="0"
                     id="path4853"
                     style="font-style:normal;font-variant:normal;font-weight:normal;font-stretch:normal;font-size:21.16666603px;font-family:'Bauhaus 93';-inkscape-font-specification:'Bauhaus 93, Normal';font-variant-ligatures:normal;font-variant-caps:normal;font-variant-numeric:normal;font-feature-settings:normal;text-align:start;writing-mode:lr-tb;text-anchor:start;fill:none;fill-opacity:1;stroke-width:0.26458332"
                     d="m 86.775392,140.89398 v 14.10767 h -3.865397 v -14.10767 z" />
                  <path
                     inkscape:connector-curvature="0"
                     id="path4855"
                     style="font-style:normal;font-variant:normal;font-weight:normal;font-stretch:normal;font-size:21.16666603px;font-family:'Bauhaus 93';-inkscape-font-specification:'Bauhaus 93, Normal';font-variant-ligatures:normal;font-variant-caps:normal;font-variant-numeric:normal;font-feature-settings:normal;text-align:start;writing-mode:lr-tb;text-anchor:start;fill:none;fill-opacity:1;stroke-width:0.26458332"
                     d="m 94.754234,151.13625 v 3.99976 q -0.475423,0.0827 -0.868164,0.0827 -2.325439,0 -3.875732,-1.52962 -1.550293,-1.52963 -1.550293,-3.83439 0,-2.24276 1.560628,-3.80339 1.570964,-1.56063 3.813721,-1.56063 2.501139,0 3.937744,1.46761 1.44694,1.45728 1.44694,3.98942 v 5.05396 h -3.865397 v -4.7749 q 0,-0.81649 -0.403076,-1.30225 -0.392741,-0.48576 -1.064535,-0.48576 -0.609782,0 -1.054199,0.44442 -0.444417,0.44442 -0.444417,1.0542 0,0.64079 0.403076,1.0542 0.403076,0.41341 1.023193,0.41341 0.506429,0 0.940511,-0.26872 z" />
                  <path
                     inkscape:connector-curvature="0"
                     id="path4857"
                     style="font-style:normal;font-variant:normal;font-weight:normal;font-stretch:normal;font-size:21.16666603px;font-family:'Bauhaus 93';-inkscape-font-specification:'Bauhaus 93, Normal';font-variant-ligatures:normal;font-variant-caps:normal;font-variant-numeric:normal;font-feature-settings:normal;text-align:start;writing-mode:lr-tb;text-anchor:start;fill:none;fill-opacity:1;stroke-width:0.26458332"
                     d="m 102.80542,159.51817 v -3.35897 q 0.78548,0.33073 1.37459,0.33073 1.88103,0 2.43913,-2.11873 -1.01286,0.59944 -1.98437,0.59944 -1.43661,0 -2.36678,-1.06453 -0.93018,-1.07487 -0.93018,-2.72852 v -6.48022 h 3.8654 v 5.53971 q 0,0.91984 0.76481,0.91984 0.7338,0 0.7338,-1.01286 v -5.44669 h 3.8654 v 9.1984 q 0,2.57349 -1.44694,4.15479 -1.72599,1.88102 -4.17545,1.88102 -1.07487,0 -2.13941,-0.41341 z" />
                  <path
                     inkscape:connector-curvature="0"
                     id="path4859"
                     style="font-style:normal;font-variant:normal;font-weight:normal;font-stretch:normal;font-size:21.16666603px;font-family:'Bauhaus 93';-inkscape-font-specification:'Bauhaus 93, Normal';font-variant-ligatures:normal;font-variant-caps:normal;font-variant-numeric:normal;font-feature-settings:normal;text-align:start;writing-mode:lr-tb;text-anchor:start;fill:none;fill-opacity:1;stroke-width:0.26458332"
                     d="m 122.96957,150.47479 h -5.86011 q -0.13436,-0.44441 -0.13436,-0.81648 0,-0.51677 0.18604,-1.01286 h 1.9637 q -0.20671,-1.14722 -1.29191,-1.14722 -0.72347,0 -1.17822,0.62012 -0.45476,0.60978 -0.45476,1.57096 0,1.00252 0.43409,1.62264 0.44441,0.62012 1.15755,0.62012 0.57877,0 1.11621,-0.57878 l 2.20141,2.64584 q -1.53995,1.20922 -3.42098,1.20922 -2.29443,0 -3.85506,-1.53995 -1.56063,-1.53996 -1.56063,-3.81372 0,-2.26343 1.57097,-3.82406 1.5813,-1.56063 3.87573,-1.56063 2.24276,0 3.76204,1.52962 1.52963,1.51929 1.52963,3.75171 0,0.22738 -0.0413,0.72347 z" />
                  <path
                     inkscape:connector-curvature="0"
                     id="path4861"
                     style="font-style:normal;font-variant:normal;font-weight:normal;font-stretch:normal;font-size:21.16666603px;font-family:'Bauhaus 93';-inkscape-font-specification:'Bauhaus 93, Normal';font-variant-ligatures:normal;font-variant-caps:normal;font-variant-numeric:normal;font-feature-settings:normal;text-align:start;writing-mode:lr-tb;text-anchor:start;fill:none;fill-opacity:1;stroke-width:0.26458332"
                     d="m 130.23527,144.59401 v 4.13412 q -0.40308,-0.22738 -0.73381,-0.22738 -1.05419,0 -1.05419,1.61231 v 4.88859 h -3.8654 v -5.63273 q 0,-2.23242 1.21956,-3.55534 1.21957,-1.33325 3.25562,-1.33325 0.45475,0 1.17822,0.11368 z" />
                </g>
              </g>
              <g
                 style="fill:none;fill-opacity:1"
                 transform="matrix(1.3834765,0,0,1.0207031,-25.704589,-3.2612486)"
                 id="g4899">
                <g
                   aria-label="2 Player"
                   style="font-style:normal;font-variant:normal;font-weight:normal;font-stretch:normal;font-size:21.16666603px;line-height:1.25;font-family:'Bauhaus 93';-inkscape-font-specification:'Bauhaus 93, Normal';font-variant-ligatures:normal;font-variant-caps:normal;font-variant-numeric:normal;font-feature-settings:normal;text-align:start;letter-spacing:0px;word-spacing:0px;writing-mode:lr-tb;text-anchor:start;fill:none;fill-opacity:1;stroke:#2e3192;stroke-width:1.29999995;stroke-miterlimit:4;stroke-dasharray:none;stroke-opacity:1"
                   id="g4881">
                  <path
                     d="m 63.562339,150.91921 v 4.08244 h -9.115722 l 4.526855,-8.49561 0.15503,-0.28939 q 0.186035,-0.34106 0.186035,-0.67179 0,-0.83716 -0.981852,-0.83716 -0.382406,0 -0.671794,0.28939 -0.279053,0.27905 -0.279053,0.66146 0,0.43408 0.372071,0.78548 l -1.808675,3.22461 q -1.136882,-0.7028 -1.746664,-1.788 -0.609782,-1.08521 -0.609782,-2.39779 0,-2.03605 1.436605,-3.48299 1.436605,-1.45728 3.472656,-1.45728 2.046387,0 3.472656,1.43661 1.436605,1.4366 1.436605,3.49332 0,1.17823 -0.527099,2.19108 l -1.674317,3.25562 z"
                     style="font-style:normal;font-variant:normal;font-weight:normal;font-stretch:normal;font-size:21.16666603px;font-family:'Bauhaus 93';-inkscape-font-specification:'Bauhaus 93, Normal';font-variant-ligatures:normal;font-variant-caps:normal;font-variant-numeric:normal;font-feature-settings:normal;text-align:start;writing-mode:lr-tb;text-anchor:start;fill:none;fill-opacity:1;stroke:#2e3192;stroke-width:1.29999995;stroke-miterlimit:4;stroke-dasharray:none;stroke-opacity:1"
                     id="path4867"
                     inkscape:connector-curvature="0" />
                  <path
                     d="m 75.882,150.12339 v -3.70003 q 1.271241,0 1.271241,-0.97152 0,-0.88883 -0.971517,-0.88883 -0.981852,0 -0.981852,1.21956 v 9.21908 h -4.196127 v -8.785 q 0,-1.36425 0.268718,-2.23242 0.279053,-0.8785 0.940511,-1.63297 0.74414,-0.83716 1.860351,-1.32292 1.116211,-0.48576 2.304769,-0.48576 2.14974,0 3.607015,1.44694 1.467611,1.44694 1.467611,3.58635 0,2.07739 -1.312582,3.3693 -1.198893,1.18856 -3.61735,1.18856 z"
                     style="font-style:normal;font-variant:normal;font-weight:normal;font-stretch:normal;font-size:21.16666603px;font-family:'Bauhaus 93';-inkscape-font-specification:'Bauhaus 93, Normal';font-variant-ligatures:normal;font-variant-caps:normal;font-variant-numeric:normal;font-feature-settings:normal;text-align:start;writing-mode:lr-tb;text-anchor:start;fill:none;fill-opacity:1;stroke:#2e3192;stroke-width:1.29999995;stroke-miterlimit:4;stroke-dasharray:none;stroke-opacity:1"
                     id="path4869"
                     inkscape:connector-curvature="0" />
                  <path
                     d="m 86.775392,140.89398 v 14.10767 h -3.865397 v -14.10767 z"
                     style="font-style:normal;font-variant:normal;font-weight:normal;font-stretch:normal;font-size:21.16666603px;font-family:'Bauhaus 93';-inkscape-font-specification:'Bauhaus 93, Normal';font-variant-ligatures:normal;font-variant-caps:normal;font-variant-numeric:normal;font-feature-settings:normal;text-align:start;writing-mode:lr-tb;text-anchor:start;fill:none;fill-opacity:1;stroke:#2e3192;stroke-width:1.29999995;stroke-miterlimit:4;stroke-dasharray:none;stroke-opacity:1"
                     id="path4871"
                     inkscape:connector-curvature="0" />
                  <path
                     d="m 94.754234,151.13625 v 3.99976 q -0.475423,0.0827 -0.868164,0.0827 -2.325439,0 -3.875732,-1.52962 -1.550293,-1.52963 -1.550293,-3.83439 0,-2.24276 1.560628,-3.80339 1.570964,-1.56063 3.813721,-1.56063 2.501139,0 3.937744,1.46761 1.44694,1.45728 1.44694,3.98942 v 5.05396 h -3.865397 v -4.7749 q 0,-0.81649 -0.403076,-1.30225 -0.392741,-0.48576 -1.064535,-0.48576 -0.609782,0 -1.054199,0.44442 -0.444417,0.44442 -0.444417,1.0542 0,0.64079 0.403076,1.0542 0.403076,0.41341 1.023193,0.41341 0.506429,0 0.940511,-0.26872 z"
                     style="font-style:normal;font-variant:normal;font-weight:normal;font-stretch:normal;font-size:21.16666603px;font-family:'Bauhaus 93';-inkscape-font-specification:'Bauhaus 93, Normal';font-variant-ligatures:normal;font-variant-caps:normal;font-variant-numeric:normal;font-feature-settings:normal;text-align:start;writing-mode:lr-tb;text-anchor:start;fill:none;fill-opacity:1;stroke:#2e3192;stroke-width:1.29999995;stroke-miterlimit:4;stroke-dasharray:none;stroke-opacity:1"
                     id="path4873"
                     inkscape:connector-curvature="0" />
                  <path
                     d="m 102.80542,159.51817 v -3.35897 q 0.78548,0.33073 1.37459,0.33073 1.88103,0 2.43913,-2.11873 -1.01286,0.59944 -1.98437,0.59944 -1.43661,0 -2.36678,-1.06453 -0.93018,-1.07487 -0.93018,-2.72852 v -6.48022 h 3.8654 v 5.53971 q 0,0.91984 0.76481,0.91984 0.7338,0 0.7338,-1.01286 v -5.44669 h 3.8654 v 9.1984 q 0,2.57349 -1.44694,4.15479 -1.72599,1.88102 -4.17545,1.88102 -1.07487,0 -2.13941,-0.41341 z"
                     style="font-style:normal;font-variant:normal;font-weight:normal;font-stretch:normal;font-size:21.16666603px;font-family:'Bauhaus 93';-inkscape-font-specification:'Bauhaus 93, Normal';font-variant-ligatures:normal;font-variant-caps:normal;font-variant-numeric:normal;font-feature-settings:normal;text-align:start;writing-mode:lr-tb;text-anchor:start;fill:none;fill-opacity:1;stroke:#2e3192;stroke-width:1.29999995;stroke-miterlimit:4;stroke-dasharray:none;stroke-opacity:1"
                     id="path4875"
                     inkscape:connector-curvature="0" />
                  <path
                     d="m 122.96957,150.47479 h -5.86011 q -0.13436,-0.44441 -0.13436,-0.81648 0,-0.51677 0.18604,-1.01286 h 1.9637 q -0.20671,-1.14722 -1.29191,-1.14722 -0.72347,0 -1.17822,0.62012 -0.45476,0.60978 -0.45476,1.57096 0,1.00252 0.43409,1.62264 0.44441,0.62012 1.15755,0.62012 0.57877,0 1.11621,-0.57878 l 2.20141,2.64584 q -1.53995,1.20922 -3.42098,1.20922 -2.29443,0 -3.85506,-1.53995 -1.56063,-1.53996 -1.56063,-3.81372 0,-2.26343 1.57097,-3.82406 1.5813,-1.56063 3.87573,-1.56063 2.24276,0 3.76204,1.52962 1.52963,1.51929 1.52963,3.75171 0,0.22738 -0.0413,0.72347 z"
                     style="font-style:normal;font-variant:normal;font-weight:normal;font-stretch:normal;font-size:21.16666603px;font-family:'Bauhaus 93';-inkscape-font-specification:'Bauhaus 93, Normal';font-variant-ligatures:normal;font-variant-caps:normal;font-variant-numeric:normal;font-feature-settings:normal;text-align:start;writing-mode:lr-tb;text-anchor:start;fill:none;fill-opacity:1;stroke:#2e3192;stroke-width:1.29999995;stroke-miterlimit:4;stroke-dasharray:none;stroke-opacity:1"
                     id="path4877"
                     inkscape:connector-curvature="0" />
                  <path
                     d="m 130.23527,144.59401 v 4.13412 q -0.40308,-0.22738 -0.73381,-0.22738 -1.05419,0 -1.05419,1.61231 v 4.88859 h -3.8654 v -5.63273 q 0,-2.23242 1.21956,-3.55534 1.21957,-1.33325 3.25562,-1.33325 0.45475,0 1.17822,0.11368 z"
                     style="font-style:normal;font-variant:normal;font-weight:normal;font-stretch:normal;font-size:21.16666603px;font-family:'Bauhaus 93';-inkscape-font-specification:'Bauhaus 93, Normal';font-variant-ligatures:normal;font-variant-caps:normal;font-variant-numeric:normal;font-feature-settings:normal;text-align:start;writing-mode:lr-tb;text-anchor:start;fill:none;fill-opacity:1;stroke:#2e3192;stroke-width:1.29999995;stroke-miterlimit:4;stroke-dasharray:none;stroke-opacity:1"
                     id="path4879"
                     inkscape:connector-curvature="0" />
                </g>
                <g
                   aria-label="2 Player"
                   style="font-style:normal;font-variant:normal;font-weight:normal;font-stretch:normal;font-size:21.16666603px;line-height:1.25;font-family:'Bauhaus 93';-inkscape-font-specification:'Bauhaus 93, Normal';font-variant-ligatures:normal;font-variant-caps:normal;font-variant-numeric:normal;font-feature-settings:normal;text-align:start;letter-spacing:0px;word-spacing:0px;writing-mode:lr-tb;text-anchor:start;fill:none;fill-opacity:1;stroke:none;stroke-width:0.26458332"
                   id="g4897">
                  <path
                     d="m 63.562339,150.91921 v 4.08244 h -9.115722 l 4.526855,-8.49561 0.15503,-0.28939 q 0.186035,-0.34106 0.186035,-0.67179 0,-0.83716 -0.981852,-0.83716 -0.382406,0 -0.671794,0.28939 -0.279053,0.27905 -0.279053,0.66146 0,0.43408 0.372071,0.78548 l -1.808675,3.22461 q -1.136882,-0.7028 -1.746664,-1.788 -0.609782,-1.08521 -0.609782,-2.39779 0,-2.03605 1.436605,-3.48299 1.436605,-1.45728 3.472656,-1.45728 2.046387,0 3.472656,1.43661 1.436605,1.4366 1.436605,3.49332 0,1.17823 -0.527099,2.19108 l -1.674317,3.25562 z"
                     style="font-style:normal;font-variant:normal;font-weight:normal;font-stretch:normal;font-size:21.16666603px;font-family:'Bauhaus 93';-inkscape-font-specification:'Bauhaus 93, Normal';font-variant-ligatures:normal;font-variant-caps:normal;font-variant-numeric:normal;font-feature-settings:normal;text-align:start;writing-mode:lr-tb;text-anchor:start;fill:none;fill-opacity:1;stroke-width:0.26458332"
                     id="path4883"
                     inkscape:connector-curvature="0" />
                  <path
                     d="m 75.882,150.12339 v -3.70003 q 1.271241,0 1.271241,-0.97152 0,-0.88883 -0.971517,-0.88883 -0.981852,0 -0.981852,1.21956 v 9.21908 h -4.196127 v -8.785 q 0,-1.36425 0.268718,-2.23242 0.279053,-0.8785 0.940511,-1.63297 0.74414,-0.83716 1.860351,-1.32292 1.116211,-0.48576 2.304769,-0.48576 2.14974,0 3.607015,1.44694 1.467611,1.44694 1.467611,3.58635 0,2.07739 -1.312582,3.3693 -1.198893,1.18856 -3.61735,1.18856 z"
                     style="font-style:normal;font-variant:normal;font-weight:normal;font-stretch:normal;font-size:21.16666603px;font-family:'Bauhaus 93';-inkscape-font-specification:'Bauhaus 93, Normal';font-variant-ligatures:normal;font-variant-caps:normal;font-variant-numeric:normal;font-feature-settings:normal;text-align:start;writing-mode:lr-tb;text-anchor:start;fill:none;fill-opacity:1;stroke-width:0.26458332"
                     id="path4885"
                     inkscape:connector-curvature="0" />
                  <path
                     d="m 86.775392,140.89398 v 14.10767 h -3.865397 v -14.10767 z"
                     style="font-style:normal;font-variant:normal;font-weight:normal;font-stretch:normal;font-size:21.16666603px;font-family:'Bauhaus 93';-inkscape-font-specification:'Bauhaus 93, Normal';font-variant-ligatures:normal;font-variant-caps:normal;font-variant-numeric:normal;font-feature-settings:normal;text-align:start;writing-mode:lr-tb;text-anchor:start;fill:none;fill-opacity:1;stroke-width:0.26458332"
                     id="path4887"
                     inkscape:connector-curvature="0" />
                  <path
                     d="m 94.754234,151.13625 v 3.99976 q -0.475423,0.0827 -0.868164,0.0827 -2.325439,0 -3.875732,-1.52962 -1.550293,-1.52963 -1.550293,-3.83439 0,-2.24276 1.560628,-3.80339 1.570964,-1.56063 3.813721,-1.56063 2.501139,0 3.937744,1.46761 1.44694,1.45728 1.44694,3.98942 v 5.05396 h -3.865397 v -4.7749 q 0,-0.81649 -0.403076,-1.30225 -0.392741,-0.48576 -1.064535,-0.48576 -0.609782,0 -1.054199,0.44442 -0.444417,0.44442 -0.444417,1.0542 0,0.64079 0.403076,1.0542 0.403076,0.41341 1.023193,0.41341 0.506429,0 0.940511,-0.26872 z"
                     style="font-style:normal;font-variant:normal;font-weight:normal;font-stretch:normal;font-size:21.16666603px;font-family:'Bauhaus 93';-inkscape-font-specification:'Bauhaus 93, Normal';font-variant-ligatures:normal;font-variant-caps:normal;font-variant-numeric:normal;font-feature-settings:normal;text-align:start;writing-mode:lr-tb;text-anchor:start;fill:none;fill-opacity:1;stroke-width:0.26458332"
                     id="path4889"
                     inkscape:connector-curvature="0" />
                  <path
                     d="m 102.80542,159.51817 v -3.35897 q 0.78548,0.33073 1.37459,0.33073 1.88103,0 2.43913,-2.11873 -1.01286,0.59944 -1.98437,0.59944 -1.43661,0 -2.36678,-1.06453 -0.93018,-1.07487 -0.93018,-2.72852 v -6.48022 h 3.8654 v 5.53971 q 0,0.91984 0.76481,0.91984 0.7338,0 0.7338,-1.01286 v -5.44669 h 3.8654 v 9.1984 q 0,2.57349 -1.44694,4.15479 -1.72599,1.88102 -4.17545,1.88102 -1.07487,0 -2.13941,-0.41341 z"
                     style="font-style:normal;font-variant:normal;font-weight:normal;font-stretch:normal;font-size:21.16666603px;font-family:'Bauhaus 93';-inkscape-font-specification:'Bauhaus 93, Normal';font-variant-ligatures:normal;font-variant-caps:normal;font-variant-numeric:normal;font-feature-settings:normal;text-align:start;writing-mode:lr-tb;text-anchor:start;fill:none;fill-opacity:1;stroke-width:0.26458332"
                     id="path4891"
                     inkscape:connector-curvature="0" />
                  <path
                     d="m 122.96957,150.47479 h -5.86011 q -0.13436,-0.44441 -0.13436,-0.81648 0,-0.51677 0.18604,-1.01286 h 1.9637 q -0.20671,-1.14722 -1.29191,-1.14722 -0.72347,0 -1.17822,0.62012 -0.45476,0.60978 -0.45476,1.57096 0,1.00252 0.43409,1.62264 0.44441,0.62012 1.15755,0.62012 0.57877,0 1.11621,-0.57878 l 2.20141,2.64584 q -1.53995,1.20922 -3.42098,1.20922 -2.29443,0 -3.85506,-1.53995 -1.56063,-1.53996 -1.56063,-3.81372 0,-2.26343 1.57097,-3.82406 1.5813,-1.56063 3.87573,-1.56063 2.24276,0 3.76204,1.52962 1.52963,1.51929 1.52963,3.75171 0,0.22738 -0.0413,0.72347 z"
                     style="font-style:normal;font-variant:normal;font-weight:normal;font-stretch:normal;font-size:21.16666603px;font-family:'Bauhaus 93';-inkscape-font-specification:'Bauhaus 93, Normal';font-variant-ligatures:normal;font-variant-caps:normal;font-variant-numeric:normal;font-feature-settings:normal;text-align:start;writing-mode:lr-tb;text-anchor:start;fill:none;fill-opacity:1;stroke-width:0.26458332"
                     id="path4893"
                     inkscape:connector-curvature="0" />
                  <path
                     d="m 130.23527,144.59401 v 4.13412 q -0.40308,-0.22738 -0.73381,-0.22738 -1.05419,0 -1.05419,1.61231 v 4.88859 h -3.8654 v -5.63273 q 0,-2.23242 1.21956,-3.55534 1.21957,-1.33325 3.25562,-1.33325 0.45475,0 1.17822,0.11368 z"
                     style="font-style:normal;font-variant:normal;font-weight:normal;font-stretch:normal;font-size:21.16666603px;font-family:'Bauhaus 93';-inkscape-font-specification:'Bauhaus 93, Normal';font-variant-ligatures:normal;font-variant-caps:normal;font-variant-numeric:normal;font-feature-settings:normal;text-align:start;writing-mode:lr-tb;text-anchor:start;fill:none;fill-opacity:1;stroke-width:0.26458332"
                     id="path4895"
                     inkscape:connector-curvature="0" />
                </g>
              </g>
              <g
                 id="g4933"
                 transform="matrix(1.3834765,0,0,1.0207031,-25.704592,-3.2612246)"
                 style="fill:none;fill-opacity:1">
                <g
                   id="g4915"
                   style="font-style:normal;font-variant:normal;font-weight:normal;font-stretch:normal;font-size:21.16666603px;line-height:1.25;font-family:'Bauhaus 93';-inkscape-font-specification:'Bauhaus 93, Normal';font-variant-ligatures:normal;font-variant-caps:normal;font-variant-numeric:normal;font-feature-settings:normal;text-align:start;letter-spacing:0px;word-spacing:0px;writing-mode:lr-tb;text-anchor:start;fill:none;fill-opacity:1;stroke:#2e3192;stroke-width:1.29999995;stroke-miterlimit:4;stroke-dasharray:none;stroke-opacity:1"
                   aria-label="2 Player">
                  <path
                     inkscape:connector-curvature="0"
                     id="path4901"
                     style="font-style:normal;font-variant:normal;font-weight:normal;font-stretch:normal;font-size:21.16666603px;font-family:'Bauhaus 93';-inkscape-font-specification:'Bauhaus 93, Normal';font-variant-ligatures:normal;font-variant-caps:normal;font-variant-numeric:normal;font-feature-settings:normal;text-align:start;writing-mode:lr-tb;text-anchor:start;fill:none;fill-opacity:1;stroke:#2e3192;stroke-width:1.29999995;stroke-miterlimit:4;stroke-dasharray:none;stroke-opacity:1"
                     d="m 63.562339,150.91921 v 4.08244 h -9.115722 l 4.526855,-8.49561 0.15503,-0.28939 q 0.186035,-0.34106 0.186035,-0.67179 0,-0.83716 -0.981852,-0.83716 -0.382406,0 -0.671794,0.28939 -0.279053,0.27905 -0.279053,0.66146 0,0.43408 0.372071,0.78548 l -1.808675,3.22461 q -1.136882,-0.7028 -1.746664,-1.788 -0.609782,-1.08521 -0.609782,-2.39779 0,-2.03605 1.436605,-3.48299 1.436605,-1.45728 3.472656,-1.45728 2.046387,0 3.472656,1.43661 1.436605,1.4366 1.436605,3.49332 0,1.17823 -0.527099,2.19108 l -1.674317,3.25562 z" />
                  <path
                     inkscape:connector-curvature="0"
                     id="path4903"
                     style="font-style:normal;font-variant:normal;font-weight:normal;font-stretch:normal;font-size:21.16666603px;font-family:'Bauhaus 93';-inkscape-font-specification:'Bauhaus 93, Normal';font-variant-ligatures:normal;font-variant-caps:normal;font-variant-numeric:normal;font-feature-settings:normal;text-align:start;writing-mode:lr-tb;text-anchor:start;fill:none;fill-opacity:1;stroke:#2e3192;stroke-width:1.29999995;stroke-miterlimit:4;stroke-dasharray:none;stroke-opacity:1"
                     d="m 75.882,150.12339 v -3.70003 q 1.271241,0 1.271241,-0.97152 0,-0.88883 -0.971517,-0.88883 -0.981852,0 -0.981852,1.21956 v 9.21908 h -4.196127 v -8.785 q 0,-1.36425 0.268718,-2.23242 0.279053,-0.8785 0.940511,-1.63297 0.74414,-0.83716 1.860351,-1.32292 1.116211,-0.48576 2.304769,-0.48576 2.14974,0 3.607015,1.44694 1.467611,1.44694 1.467611,3.58635 0,2.07739 -1.312582,3.3693 -1.198893,1.18856 -3.61735,1.18856 z" />
                  <path
                     inkscape:connector-curvature="0"
                     id="path4905"
                     style="font-style:normal;font-variant:normal;font-weight:normal;font-stretch:normal;font-size:21.16666603px;font-family:'Bauhaus 93';-inkscape-font-specification:'Bauhaus 93, Normal';font-variant-ligatures:normal;font-variant-caps:normal;font-variant-numeric:normal;font-feature-settings:normal;text-align:start;writing-mode:lr-tb;text-anchor:start;fill:none;fill-opacity:1;stroke:#2e3192;stroke-width:1.29999995;stroke-miterlimit:4;stroke-dasharray:none;stroke-opacity:1"
                     d="m 86.775392,140.89398 v 14.10767 h -3.865397 v -14.10767 z" />
                  <path
                     inkscape:connector-curvature="0"
                     id="path4907"
                     style="font-style:normal;font-variant:normal;font-weight:normal;font-stretch:normal;font-size:21.16666603px;font-family:'Bauhaus 93';-inkscape-font-specification:'Bauhaus 93, Normal';font-variant-ligatures:normal;font-variant-caps:normal;font-variant-numeric:normal;font-feature-settings:normal;text-align:start;writing-mode:lr-tb;text-anchor:start;fill:none;fill-opacity:1;stroke:#2e3192;stroke-width:1.29999995;stroke-miterlimit:4;stroke-dasharray:none;stroke-opacity:1"
                     d="m 94.754234,151.13625 v 3.99976 q -0.475423,0.0827 -0.868164,0.0827 -2.325439,0 -3.875732,-1.52962 -1.550293,-1.52963 -1.550293,-3.83439 0,-2.24276 1.560628,-3.80339 1.570964,-1.56063 3.813721,-1.56063 2.501139,0 3.937744,1.46761 1.44694,1.45728 1.44694,3.98942 v 5.05396 h -3.865397 v -4.7749 q 0,-0.81649 -0.403076,-1.30225 -0.392741,-0.48576 -1.064535,-0.48576 -0.609782,0 -1.054199,0.44442 -0.444417,0.44442 -0.444417,1.0542 0,0.64079 0.403076,1.0542 0.403076,0.41341 1.023193,0.41341 0.506429,0 0.940511,-0.26872 z" />
                  <path
                     inkscape:connector-curvature="0"
                     id="path4909"
                     style="font-style:normal;font-variant:normal;font-weight:normal;font-stretch:normal;font-size:21.16666603px;font-family:'Bauhaus 93';-inkscape-font-specification:'Bauhaus 93, Normal';font-variant-ligatures:normal;font-variant-caps:normal;font-variant-numeric:normal;font-feature-settings:normal;text-align:start;writing-mode:lr-tb;text-anchor:start;fill:none;fill-opacity:1;stroke:#2e3192;stroke-width:1.29999995;stroke-miterlimit:4;stroke-dasharray:none;stroke-opacity:1"
                     d="m 102.80542,159.51817 v -3.35897 q 0.78548,0.33073 1.37459,0.33073 1.88103,0 2.43913,-2.11873 -1.01286,0.59944 -1.98437,0.59944 -1.43661,0 -2.36678,-1.06453 -0.93018,-1.07487 -0.93018,-2.72852 v -6.48022 h 3.8654 v 5.53971 q 0,0.91984 0.76481,0.91984 0.7338,0 0.7338,-1.01286 v -5.44669 h 3.8654 v 9.1984 q 0,2.57349 -1.44694,4.15479 -1.72599,1.88102 -4.17545,1.88102 -1.07487,0 -2.13941,-0.41341 z" />
                  <path
                     inkscape:connector-curvature="0"
                     id="path4911"
                     style="font-style:normal;font-variant:normal;font-weight:normal;font-stretch:normal;font-size:21.16666603px;font-family:'Bauhaus 93';-inkscape-font-specification:'Bauhaus 93, Normal';font-variant-ligatures:normal;font-variant-caps:normal;font-variant-numeric:normal;font-feature-settings:normal;text-align:start;writing-mode:lr-tb;text-anchor:start;fill:none;fill-opacity:1;stroke:#2e3192;stroke-width:1.29999995;stroke-miterlimit:4;stroke-dasharray:none;stroke-opacity:1"
                     d="m 122.96957,150.47479 h -5.86011 q -0.13436,-0.44441 -0.13436,-0.81648 0,-0.51677 0.18604,-1.01286 h 1.9637 q -0.20671,-1.14722 -1.29191,-1.14722 -0.72347,0 -1.17822,0.62012 -0.45476,0.60978 -0.45476,1.57096 0,1.00252 0.43409,1.62264 0.44441,0.62012 1.15755,0.62012 0.57877,0 1.11621,-0.57878 l 2.20141,2.64584 q -1.53995,1.20922 -3.42098,1.20922 -2.29443,0 -3.85506,-1.53995 -1.56063,-1.53996 -1.56063,-3.81372 0,-2.26343 1.57097,-3.82406 1.5813,-1.56063 3.87573,-1.56063 2.24276,0 3.76204,1.52962 1.52963,1.51929 1.52963,3.75171 0,0.22738 -0.0413,0.72347 z" />
                  <path
                     inkscape:connector-curvature="0"
                     id="path4913"
                     style="font-style:normal;font-variant:normal;font-weight:normal;font-stretch:normal;font-size:21.16666603px;font-family:'Bauhaus 93';-inkscape-font-specification:'Bauhaus 93, Normal';font-variant-ligatures:normal;font-variant-caps:normal;font-variant-numeric:normal;font-feature-settings:normal;text-align:start;writing-mode:lr-tb;text-anchor:start;fill:none;fill-opacity:1;stroke:#2e3192;stroke-width:1.29999995;stroke-miterlimit:4;stroke-dasharray:none;stroke-opacity:1"
                     d="m 130.23527,144.59401 v 4.13412 q -0.40308,-0.22738 -0.73381,-0.22738 -1.05419,0 -1.05419,1.61231 v 4.88859 h -3.8654 v -5.63273 q 0,-2.23242 1.21956,-3.55534 1.21957,-1.33325 3.25562,-1.33325 0.45475,0 1.17822,0.11368 z" />
                </g>
                <g
                   id="g4931"
                   style="font-style:normal;font-variant:normal;font-weight:normal;font-stretch:normal;font-size:21.16666603px;line-height:1.25;font-family:'Bauhaus 93';-inkscape-font-specification:'Bauhaus 93, Normal';font-variant-ligatures:normal;font-variant-caps:normal;font-variant-numeric:normal;font-feature-settings:normal;text-align:start;letter-spacing:0px;word-spacing:0px;writing-mode:lr-tb;text-anchor:start;fill:none;fill-opacity:1;stroke:none;stroke-width:0.26458332"
                   aria-label="2 Player">
                  <path
                     inkscape:connector-curvature="0"
                     id="path4917"
                     style="font-style:normal;font-variant:normal;font-weight:normal;font-stretch:normal;font-size:21.16666603px;font-family:'Bauhaus 93';-inkscape-font-specification:'Bauhaus 93, Normal';font-variant-ligatures:normal;font-variant-caps:normal;font-variant-numeric:normal;font-feature-settings:normal;text-align:start;writing-mode:lr-tb;text-anchor:start;fill:none;fill-opacity:1;stroke-width:0.26458332"
                     d="m 63.562339,150.91921 v 4.08244 h -9.115722 l 4.526855,-8.49561 0.15503,-0.28939 q 0.186035,-0.34106 0.186035,-0.67179 0,-0.83716 -0.981852,-0.83716 -0.382406,0 -0.671794,0.28939 -0.279053,0.27905 -0.279053,0.66146 0,0.43408 0.372071,0.78548 l -1.808675,3.22461 q -1.136882,-0.7028 -1.746664,-1.788 -0.609782,-1.08521 -0.609782,-2.39779 0,-2.03605 1.436605,-3.48299 1.436605,-1.45728 3.472656,-1.45728 2.046387,0 3.472656,1.43661 1.436605,1.4366 1.436605,3.49332 0,1.17823 -0.527099,2.19108 l -1.674317,3.25562 z" />
                  <path
                     inkscape:connector-curvature="0"
                     id="path4919"
                     style="font-style:normal;font-variant:normal;font-weight:normal;font-stretch:normal;font-size:21.16666603px;font-family:'Bauhaus 93';-inkscape-font-specification:'Bauhaus 93, Normal';font-variant-ligatures:normal;font-variant-caps:normal;font-variant-numeric:normal;font-feature-settings:normal;text-align:start;writing-mode:lr-tb;text-anchor:start;fill:none;fill-opacity:1;stroke-width:0.26458332"
                     d="m 75.882,150.12339 v -3.70003 q 1.271241,0 1.271241,-0.97152 0,-0.88883 -0.971517,-0.88883 -0.981852,0 -0.981852,1.21956 v 9.21908 h -4.196127 v -8.785 q 0,-1.36425 0.268718,-2.23242 0.279053,-0.8785 0.940511,-1.63297 0.74414,-0.83716 1.860351,-1.32292 1.116211,-0.48576 2.304769,-0.48576 2.14974,0 3.607015,1.44694 1.467611,1.44694 1.467611,3.58635 0,2.07739 -1.312582,3.3693 -1.198893,1.18856 -3.61735,1.18856 z" />
                  <path
                     inkscape:connector-curvature="0"
                     id="path4921"
                     style="font-style:normal;font-variant:normal;font-weight:normal;font-stretch:normal;font-size:21.16666603px;font-family:'Bauhaus 93';-inkscape-font-specification:'Bauhaus 93, Normal';font-variant-ligatures:normal;font-variant-caps:normal;font-variant-numeric:normal;font-feature-settings:normal;text-align:start;writing-mode:lr-tb;text-anchor:start;fill:none;fill-opacity:1;stroke-width:0.26458332"
                     d="m 86.775392,140.89398 v 14.10767 h -3.865397 v -14.10767 z" />
                  <path
                     inkscape:connector-curvature="0"
                     id="path4923"
                     style="font-style:normal;font-variant:normal;font-weight:normal;font-stretch:normal;font-size:21.16666603px;font-family:'Bauhaus 93';-inkscape-font-specification:'Bauhaus 93, Normal';font-variant-ligatures:normal;font-variant-caps:normal;font-variant-numeric:normal;font-feature-settings:normal;text-align:start;writing-mode:lr-tb;text-anchor:start;fill:none;fill-opacity:1;stroke-width:0.26458332"
                     d="m 94.754234,151.13625 v 3.99976 q -0.475423,0.0827 -0.868164,0.0827 -2.325439,0 -3.875732,-1.52962 -1.550293,-1.52963 -1.550293,-3.83439 0,-2.24276 1.560628,-3.80339 1.570964,-1.56063 3.813721,-1.56063 2.501139,0 3.937744,1.46761 1.44694,1.45728 1.44694,3.98942 v 5.05396 h -3.865397 v -4.7749 q 0,-0.81649 -0.403076,-1.30225 -0.392741,-0.48576 -1.064535,-0.48576 -0.609782,0 -1.054199,0.44442 -0.444417,0.44442 -0.444417,1.0542 0,0.64079 0.403076,1.0542 0.403076,0.41341 1.023193,0.41341 0.506429,0 0.940511,-0.26872 z" />
                  <path
                     inkscape:connector-curvature="0"
                     id="path4925"
                     style="font-style:normal;font-variant:normal;font-weight:normal;font-stretch:normal;font-size:21.16666603px;font-family:'Bauhaus 93';-inkscape-font-specification:'Bauhaus 93, Normal';font-variant-ligatures:normal;font-variant-caps:normal;font-variant-numeric:normal;font-feature-settings:normal;text-align:start;writing-mode:lr-tb;text-anchor:start;fill:none;fill-opacity:1;stroke-width:0.26458332"
                     d="m 102.80542,159.51817 v -3.35897 q 0.78548,0.33073 1.37459,0.33073 1.88103,0 2.43913,-2.11873 -1.01286,0.59944 -1.98437,0.59944 -1.43661,0 -2.36678,-1.06453 -0.93018,-1.07487 -0.93018,-2.72852 v -6.48022 h 3.8654 v 5.53971 q 0,0.91984 0.76481,0.91984 0.7338,0 0.7338,-1.01286 v -5.44669 h 3.8654 v 9.1984 q 0,2.57349 -1.44694,4.15479 -1.72599,1.88102 -4.17545,1.88102 -1.07487,0 -2.13941,-0.41341 z" />
                  <path
                     inkscape:connector-curvature="0"
                     id="path4927"
                     style="font-style:normal;font-variant:normal;font-weight:normal;font-stretch:normal;font-size:21.16666603px;font-family:'Bauhaus 93';-inkscape-font-specification:'Bauhaus 93, Normal';font-variant-ligatures:normal;font-variant-caps:normal;font-variant-numeric:normal;font-feature-settings:normal;text-align:start;writing-mode:lr-tb;text-anchor:start;fill:none;fill-opacity:1;stroke-width:0.26458332"
                     d="m 122.96957,150.47479 h -5.86011 q -0.13436,-0.44441 -0.13436,-0.81648 0,-0.51677 0.18604,-1.01286 h 1.9637 q -0.20671,-1.14722 -1.29191,-1.14722 -0.72347,0 -1.17822,0.62012 -0.45476,0.60978 -0.45476,1.57096 0,1.00252 0.43409,1.62264 0.44441,0.62012 1.15755,0.62012 0.57877,0 1.11621,-0.57878 l 2.20141,2.64584 q -1.53995,1.20922 -3.42098,1.20922 -2.29443,0 -3.85506,-1.53995 -1.56063,-1.53996 -1.56063,-3.81372 0,-2.26343 1.57097,-3.82406 1.5813,-1.56063 3.87573,-1.56063 2.24276,0 3.76204,1.52962 1.52963,1.51929 1.52963,3.75171 0,0.22738 -0.0413,0.72347 z" />
                  <path
                     inkscape:connector-curvature="0"
                     id="path4929"
                     style="font-style:normal;font-variant:normal;font-weight:normal;font-stretch:normal;font-size:21.16666603px;font-family:'Bauhaus 93';-inkscape-font-specification:'Bauhaus 93, Normal';font-variant-ligatures:normal;font-variant-caps:normal;font-variant-numeric:normal;font-feature-settings:normal;text-align:start;writing-mode:lr-tb;text-anchor:start;fill:none;fill-opacity:1;stroke-width:0.26458332"
                     d="m 130.23527,144.59401 v 4.13412 q -0.40308,-0.22738 -0.73381,-0.22738 -1.05419,0 -1.05419,1.61231 v 4.88859 h -3.8654 v -5.63273 q 0,-2.23242 1.21956,-3.55534 1.21957,-1.33325 3.25562,-1.33325 0.45475,0 1.17822,0.11368 z" />
                </g>
              </g>
              <g
                 id="g5573"
                 transform="translate(-10.373931,-20.280847)"
                 style="stroke:#ffffff;fill:none">
                <g
                   aria-label="2 Player"
                   style="font-style:normal;font-variant:normal;font-weight:normal;font-stretch:normal;font-size:21.16666603px;line-height:1.25;font-family:'Bauhaus 93';-inkscape-font-specification:'Bauhaus 93, Normal';font-variant-ligatures:normal;font-variant-caps:normal;font-variant-numeric:normal;font-feature-settings:normal;text-align:start;letter-spacing:0px;word-spacing:0px;writing-mode:lr-tb;text-anchor:start;fill:none;fill-opacity:1;stroke:#ffffff;stroke-width:1.29999995;stroke-miterlimit:4;stroke-dasharray:none;stroke-opacity:1"
                   id="g4949"
                   transform="matrix(1.3834765,0,0,1.0207031,-15.330661,17.019622)">
                  <path
                     d="m 63.562339,150.91921 v 4.08244 h -9.115722 l 4.526855,-8.49561 0.15503,-0.28939 q 0.186035,-0.34106 0.186035,-0.67179 0,-0.83716 -0.981852,-0.83716 -0.382406,0 -0.671794,0.28939 -0.279053,0.27905 -0.279053,0.66146 0,0.43408 0.372071,0.78548 l -1.808675,3.22461 q -1.136882,-0.7028 -1.746664,-1.788 -0.609782,-1.08521 -0.609782,-2.39779 0,-2.03605 1.436605,-3.48299 1.436605,-1.45728 3.472656,-1.45728 2.046387,0 3.472656,1.43661 1.436605,1.4366 1.436605,3.49332 0,1.17823 -0.527099,2.19108 l -1.674317,3.25562 z"
                     style="font-style:normal;font-variant:normal;font-weight:normal;font-stretch:normal;font-size:21.16666603px;font-family:'Bauhaus 93';-inkscape-font-specification:'Bauhaus 93, Normal';font-variant-ligatures:normal;font-variant-caps:normal;font-variant-numeric:normal;font-feature-settings:normal;text-align:start;writing-mode:lr-tb;text-anchor:start;fill:none;fill-opacity:1;stroke:#ffffff;stroke-width:1.29999995;stroke-miterlimit:4;stroke-dasharray:none;stroke-opacity:1"
                     id="path4935"
                     inkscape:connector-curvature="0" />
                  <path
                     d="m 75.882,150.12339 v -3.70003 q 1.271241,0 1.271241,-0.97152 0,-0.88883 -0.971517,-0.88883 -0.981852,0 -0.981852,1.21956 v 9.21908 h -4.196127 v -8.785 q 0,-1.36425 0.268718,-2.23242 0.279053,-0.8785 0.940511,-1.63297 0.74414,-0.83716 1.860351,-1.32292 1.116211,-0.48576 2.304769,-0.48576 2.14974,0 3.607015,1.44694 1.467611,1.44694 1.467611,3.58635 0,2.07739 -1.312582,3.3693 -1.198893,1.18856 -3.61735,1.18856 z"
                     style="font-style:normal;font-variant:normal;font-weight:normal;font-stretch:normal;font-size:21.16666603px;font-family:'Bauhaus 93';-inkscape-font-specification:'Bauhaus 93, Normal';font-variant-ligatures:normal;font-variant-caps:normal;font-variant-numeric:normal;font-feature-settings:normal;text-align:start;writing-mode:lr-tb;text-anchor:start;fill:none;fill-opacity:1;stroke:#ffffff;stroke-width:1.29999995;stroke-miterlimit:4;stroke-dasharray:none;stroke-opacity:1"
                     id="path4937"
                     inkscape:connector-curvature="0" />
                  <path
                     d="m 86.775392,140.89398 v 14.10767 h -3.865397 v -14.10767 z"
                     style="font-style:normal;font-variant:normal;font-weight:normal;font-stretch:normal;font-size:21.16666603px;font-family:'Bauhaus 93';-inkscape-font-specification:'Bauhaus 93, Normal';font-variant-ligatures:normal;font-variant-caps:normal;font-variant-numeric:normal;font-feature-settings:normal;text-align:start;writing-mode:lr-tb;text-anchor:start;fill:none;fill-opacity:1;stroke:#ffffff;stroke-width:1.29999995;stroke-miterlimit:4;stroke-dasharray:none;stroke-opacity:1"
                     id="path4939"
                     inkscape:connector-curvature="0" />
                  <path
                     d="m 94.754234,151.13625 v 3.99976 q -0.475423,0.0827 -0.868164,0.0827 -2.325439,0 -3.875732,-1.52962 -1.550293,-1.52963 -1.550293,-3.83439 0,-2.24276 1.560628,-3.80339 1.570964,-1.56063 3.813721,-1.56063 2.501139,0 3.937744,1.46761 1.44694,1.45728 1.44694,3.98942 v 5.05396 h -3.865397 v -4.7749 q 0,-0.81649 -0.403076,-1.30225 -0.392741,-0.48576 -1.064535,-0.48576 -0.609782,0 -1.054199,0.44442 -0.444417,0.44442 -0.444417,1.0542 0,0.64079 0.403076,1.0542 0.403076,0.41341 1.023193,0.41341 0.506429,0 0.940511,-0.26872 z"
                     style="font-style:normal;font-variant:normal;font-weight:normal;font-stretch:normal;font-size:21.16666603px;font-family:'Bauhaus 93';-inkscape-font-specification:'Bauhaus 93, Normal';font-variant-ligatures:normal;font-variant-caps:normal;font-variant-numeric:normal;font-feature-settings:normal;text-align:start;writing-mode:lr-tb;text-anchor:start;fill:none;fill-opacity:1;stroke:#ffffff;stroke-width:1.29999995;stroke-miterlimit:4;stroke-dasharray:none;stroke-opacity:1"
                     id="path4941"
                     inkscape:connector-curvature="0" />
                  <path
                     d="m 102.80542,159.51817 v -3.35897 q 0.78548,0.33073 1.37459,0.33073 1.88103,0 2.43913,-2.11873 -1.01286,0.59944 -1.98437,0.59944 -1.43661,0 -2.36678,-1.06453 -0.93018,-1.07487 -0.93018,-2.72852 v -6.48022 h 3.8654 v 5.53971 q 0,0.91984 0.76481,0.91984 0.7338,0 0.7338,-1.01286 v -5.44669 h 3.8654 v 9.1984 q 0,2.57349 -1.44694,4.15479 -1.72599,1.88102 -4.17545,1.88102 -1.07487,0 -2.13941,-0.41341 z"
                     style="font-style:normal;font-variant:normal;font-weight:normal;font-stretch:normal;font-size:21.16666603px;font-family:'Bauhaus 93';-inkscape-font-specification:'Bauhaus 93, Normal';font-variant-ligatures:normal;font-variant-caps:normal;font-variant-numeric:normal;font-feature-settings:normal;text-align:start;writing-mode:lr-tb;text-anchor:start;fill:none;fill-opacity:1;stroke:#ffffff;stroke-width:1.29999995;stroke-miterlimit:4;stroke-dasharray:none;stroke-opacity:1"
                     id="path4943"
                     inkscape:connector-curvature="0" />
                  <path
                     d="m 122.96957,150.47479 h -5.86011 q -0.13436,-0.44441 -0.13436,-0.81648 0,-0.51677 0.18604,-1.01286 h 1.9637 q -0.20671,-1.14722 -1.29191,-1.14722 -0.72347,0 -1.17822,0.62012 -0.45476,0.60978 -0.45476,1.57096 0,1.00252 0.43409,1.62264 0.44441,0.62012 1.15755,0.62012 0.57877,0 1.11621,-0.57878 l 2.20141,2.64584 q -1.53995,1.20922 -3.42098,1.20922 -2.29443,0 -3.85506,-1.53995 -1.56063,-1.53996 -1.56063,-3.81372 0,-2.26343 1.57097,-3.82406 1.5813,-1.56063 3.87573,-1.56063 2.24276,0 3.76204,1.52962 1.52963,1.51929 1.52963,3.75171 0,0.22738 -0.0413,0.72347 z"
                     style="font-style:normal;font-variant:normal;font-weight:normal;font-stretch:normal;font-size:21.16666603px;font-family:'Bauhaus 93';-inkscape-font-specification:'Bauhaus 93, Normal';font-variant-ligatures:normal;font-variant-caps:normal;font-variant-numeric:normal;font-feature-settings:normal;text-align:start;writing-mode:lr-tb;text-anchor:start;fill:none;fill-opacity:1;stroke:#ffffff;stroke-width:1.29999995;stroke-miterlimit:4;stroke-dasharray:none;stroke-opacity:1"
                     id="path4945"
                     inkscape:connector-curvature="0" />
                  <path
                     d="m 130.23527,144.59401 v 4.13412 q -0.40308,-0.22738 -0.73381,-0.22738 -1.05419,0 -1.05419,1.61231 v 4.88859 h -3.8654 v -5.63273 q 0,-2.23242 1.21956,-3.55534 1.21957,-1.33325 3.25562,-1.33325 0.45475,0 1.17822,0.11368 z"
                     style="font-style:normal;font-variant:normal;font-weight:normal;font-stretch:normal;font-size:21.16666603px;font-family:'Bauhaus 93';-inkscape-font-specification:'Bauhaus 93, Normal';font-variant-ligatures:normal;font-variant-caps:normal;font-variant-numeric:normal;font-feature-settings:normal;text-align:start;writing-mode:lr-tb;text-anchor:start;fill:none;fill-opacity:1;stroke:#ffffff;stroke-width:1.29999995;stroke-miterlimit:4;stroke-dasharray:none;stroke-opacity:1"
                     id="path4947"
                     inkscape:connector-curvature="0" />
                </g>
              </g>
              <path
                 transform="matrix(0.25525297,0,0,0.25434804,6.8770844,112.2017)"
                 inkscape:connector-curvature="0"
                 id="path984"
                 d="m 175.52387,163.57495 c 0.24684,-0.64325 5.24,-7.81877 11.09591,-15.9456 10.49325,-14.56254 11.99225,-17.657 9.99922,-20.64185 -2.3962,-3.58864 -10.66372,-3.93572 -14.61203,-0.61344 -2.3245,1.95594 -2.62716,2.66023 -2.22041,5.16677 0.38339,2.36253 -0.0334,3.5908 -2.24134,6.60588 -1.49175,2.03706 -3.24255,3.61679 -3.89065,3.51052 -2.37058,-0.38873 -6.19889,-6.30723 -6.64609,-10.27474 -0.57305,-5.08405 0.84763,-8.26986 5.52314,-12.38541 4.41439,-3.8857 10.23556,-5.89509 17.0582,-5.88826 6.04363,0.006 9.73537,1.05647 14.63615,4.16445 4.46809,2.83358 6.45255,5.45416 7.43759,9.82172 1.02528,4.54595 -0.20202,7.56208 -7.22758,17.76196 l -6.40952,9.30551 7.66257,0.24341 7.66257,0.24341 v 5.04761 5.04762 h -19.13827 c -15.93458,0 -19.06313,-0.19578 -18.68946,-1.16956 z"
                 style="fill:none;stroke:none;stroke-width:0.84656399" />
              <path
                 transform="matrix(0.25525297,0,0,0.25434804,6.8770844,112.2017)"
                 inkscape:connector-curvature="0"
                 id="path986"
                 d="m 260.75918,148.1881 c 0,-9.80778 0.40476,-19.01039 0.92742,-21.08609 1.16732,-4.63583 4.92635,-8.55108 10.92448,-11.37848 4.09809,-1.93176 5.72139,-2.19292 13.54502,-2.1791 7.99504,0.0141 9.32726,0.24522 13.24773,2.29823 10.73331,5.62062 13.53589,15.76775 6.50456,23.5506 -3.25933,3.60768 -8.98946,5.88027 -14.82656,5.88027 h -3.2326 v -4.4993 c 0,-4.27609 0.14163,-4.56685 2.85482,-5.86068 5.14553,-2.45373 4.57061,-8.76526 -0.99432,-10.9156 -3.35647,-1.29696 -9.35233,-0.39172 -11.47917,1.73311 -1.72466,1.72303 -1.82204,2.70472 -2.0666,20.83412 l -0.25666,19.02589 h -7.57406 -7.57406 z"
                 style="fill:none;stroke:none;stroke-width:0.84656399" />
              <path
                 transform="matrix(0.25525297,0,0,0.25434804,6.8770844,112.2017)"
                 inkscape:connector-curvature="0"
                 id="path988"
                 d="m 325.09805,139.77087 v -25.8202 h 6.77251 6.77251 v 25.8202 25.8202 h -6.77251 -6.77251 z"
                 style="fill:none;stroke:none;stroke-width:0.84656399" />
              <path
                 transform="matrix(0.25525297,0,0,0.25434804,6.8770844,112.2017)"
                 inkscape:connector-curvature="0"
                 id="path990"
                 d="m 373.3522,165.28667 c -11.07974,-2.48607 -16.9189,-8.60596 -16.92695,-17.74074 -0.002,-2.70787 0.42166,-5.7555 0.94232,-6.77251 1.91821,-3.74686 7.12531,-8.24614 11.39012,-9.84181 4.6985,-1.75794 16.01179,-3.30252 14.03366,-1.91599 -0.79323,0.556 -1.05223,2.23309 -0.84656,5.48174 l 0.29633,4.68066 -3.70088,0.41568 c -4.76166,0.53483 -8.85649,4.33516 -8.85649,8.21953 0,3.98151 4.08677,7.68336 9.10696,8.24921 l 3.95135,0.44538 -0.25047,4.75326 c -0.23128,4.38902 -0.41266,4.76542 -2.36688,4.9118 -1.16403,0.0872 -4.21166,-0.3116 -6.77251,-0.88621 z"
                 style="fill:none;stroke:none;stroke-width:0.84656399" />
              <path
                 transform="matrix(0.25525297,0,0,0.25434804,6.8770844,112.2017)"
                 inkscape:connector-curvature="0"
                 id="path992"
                 d="m 392.82317,155.49726 c 0,-9.61805 -0.10307,-10.21631 -2.1866,-12.69245 -1.20263,-1.42924 -3.38522,-2.90922 -4.85019,-3.28883 -2.99817,-0.7769 -4.59036,-4.34813 -3.63523,-8.15368 0.44781,-1.78422 1.04576,-2.17348 3.3387,-2.17348 4.64493,0 11.40685,2.45156 14.67394,5.3201 5.12651,4.50114 6.16448,7.90551 6.18581,20.28846 l 0.0186,10.79369 h -6.77251 -6.77251 z"
                 style="fill:none;stroke:none;stroke-width:0.84656399" />
              <path
                 transform="matrix(0.25525297,0,0,0.25434804,6.8770844,112.2017)"
                 inkscape:connector-curvature="0"
                 id="path994"
                 d="m 434.51645,184.55663 c -0.61405,-0.27983 -1.05821,-2.05162 -1.05821,-4.22124 v -3.73899 l 3.5979,-0.005 c 8.53937,-0.0112 14.49111,-4.02561 17.03433,-11.48955 0.75542,-2.21705 1.22542,-4.17908 1.04443,-4.36007 -0.18099,-0.18099 -2.74133,0.68623 -5.68964,1.92716 -9.56513,4.02592 -17.69282,2.82929 -22.24776,-3.27549 -1.60938,-2.15699 -1.80912,-3.73241 -2.0661,-16.29636 l -0.28447,-13.90853 h 6.77807 6.77807 l 0.27892,11.08066 c 0.27545,10.94289 0.30845,11.10604 2.65417,13.12174 3.39764,2.91962 7.62812,2.75 10.81161,-0.43349 2.47271,-2.47271 2.47457,-2.48257 2.47457,-13.12174 v -10.64717 h 6.83966 6.83966 l -0.27879,20.10589 c -0.30661,22.11234 -0.41973,22.64861 -5.9099,28.01627 -4.77135,4.66487 -11.09686,7.09785 -19.32673,7.43365 -3.96638,0.16184 -7.68778,0.0772 -8.26979,-0.188 z"
                 style="fill:none;stroke:none;stroke-width:0.84656399" />
              <path
                 transform="matrix(0.25525297,0,0,0.25434804,6.8770844,112.2017)"
                 inkscape:connector-curvature="0"
                 id="path996"
                 d="m 503.66516,165.62897 c -8.70784,-1.57638 -16.71648,-7.71608 -18.51561,-14.19471 -1.09633,-3.94786 -1.09609,-4.14159 0.0102,-8.12541 1.29967,-4.68037 5.88608,-9.28388 11.99249,-12.0372 4.44505,-2.00422 6.46294,-2.39566 12.49681,-2.42418 3.95769,-0.0187 8.79883,0.44177 10.75809,1.02328 7.04182,2.09 14.63883,9.70911 14.63883,14.68141 v 2.4145 h -6.63142 -6.63142 v -2.5721 c 0,-5.63806 -6.73806,-10.16289 -13.30057,-8.93175 -1.83827,0.34486 -4.52633,1.81372 -6.30921,3.44761 -2.92226,2.67805 -3.10635,3.15067 -3.10635,7.97491 0,4.60168 0.26839,5.39654 2.6142,7.74235 3.04324,3.04325 7.53957,4.3001 11.88075,3.321 2.81334,-0.63451 3.3527,-0.42446 6.53686,2.54569 l 3.47052,3.23727 -3.36224,0.90129 c -5.04333,1.35193 -12.19668,1.78265 -16.54188,0.99604 z"
                 style="fill:none;stroke:none;stroke-width:0.84656399" />
              <path
                 transform="matrix(0.25525297,0,0,0.25434804,6.8770844,112.2017)"
                 inkscape:connector-curvature="0"
                 id="path998"
                 d="m 551.13064,154.28878 c 0,-6.21625 0.43204,-12.59723 0.96009,-14.17994 2.18908,-6.56124 9.2197,-10.99087 17.81135,-11.222 l 4.50907,-0.1213 0.25203,5.29102 c 0.24597,5.16355 0.2004,5.29103 -1.89141,5.29103 -1.1789,0 -3.38756,1.11068 -4.90814,2.46818 l -2.76469,2.46818 -0.28068,10.65356 -0.28068,10.65356 h -6.70347 -6.70347 z"
                 style="fill:none;stroke:none;stroke-width:0.84656399" />
              <path
                 transform="matrix(0.25525297,0,0,0.25434804,6.8770844,112.2017)"
                 inkscape:connector-curvature="0"
                 id="path1000"
                 d="m 518.74956,147.25256 c 0.58202,-0.23484 1.5344,-0.23484 2.11641,0 0.58202,0.23485 0.10582,0.427 -1.0582,0.427 -1.16403,0 -1.64022,-0.19215 -1.05821,-0.427 z"
                 style="fill:none;stroke:none;stroke-width:0.84656399" />
              <path
                 transform="matrix(0.25525297,0,0,0.25434804,6.8770844,112.2017)"
                 inkscape:connector-curvature="0"
                 id="path1002"
                 d="m 515.36331,147.25256 c 0.58201,-0.23484 1.5344,-0.23484 2.11641,0 0.58201,0.23485 0.10582,0.427 -1.05821,0.427 -1.16402,0 -1.64021,-0.19215 -1.0582,-0.427 z"
                 style="fill:none;stroke:none;stroke-width:0.84656399" />
              <path
                 transform="matrix(0.25525297,0,0,0.25434804,6.8770844,112.2017)"
                 inkscape:connector-curvature="0"
                 id="path1004"
                 d="m 509.94403,146.26868 v -1.0392 h 5.98611 5.98611 v 0.87298 c 0,0.48013 0.15375,0.92422 0.34166,0.98686 0.18791,0.0626 -2.50584,0.13743 -5.98611,0.16622 l -6.32777,0.0523 z"
                 style="fill:none;stroke:none;stroke-width:0.29930559" />
            </g>
          </g>
        </g>
      </g>
    </g>
  </g>
</svg>
