<?xml version="1.0" encoding="UTF-8" standalone="no"?>
<svg
   xmlns:dc="http://purl.org/dc/elements/1.1/"
   xmlns:cc="http://creativecommons.org/ns#"
   xmlns:rdf="http://www.w3.org/1999/02/22-rdf-syntax-ns#"
   xmlns:svg="http://www.w3.org/2000/svg"
   xmlns="http://www.w3.org/2000/svg"
   xmlns:sodipodi="http://sodipodi.sourceforge.net/DTD/sodipodi-0.dtd"
   xmlns:inkscape="http://www.inkscape.org/namespaces/inkscape"
   viewBox="0 0 482.30113 213.97076"
   version="1.1"
   id="svg32"
   sodipodi:docname="system.svg"
   inkscape:version="0.92.4 (5da689c313, 2019-01-14)"
   width="482.30115"
   height="213.97076">
  <metadata
     id="metadata38">
    <rdf:RDF>
      <cc:Work
         rdf:about="">
        <dc:format>image/svg+xml</dc:format>
        <dc:type
           rdf:resource="http://purl.org/dc/dcmitype/StillImage" />
        <dc:title />
      </cc:Work>
    </rdf:RDF>
  </metadata>
  <defs
     id="defs36" />
  <sodipodi:namedview
     pagecolor="#ffffff"
     bordercolor="#666666"
     borderopacity="1"
     objecttolerance="10"
     gridtolerance="10"
     guidetolerance="10"
     inkscape:pageopacity="0"
     inkscape:pageshadow="2"
     inkscape:window-width="1600"
     inkscape:window-height="837"
     id="namedview34"
     showgrid="false"
     inkscape:zoom="1.023092"
     inkscape:cx="142.91022"
     inkscape:cy="164.00436"
     inkscape:window-x="-8"
     inkscape:window-y="-8"
     inkscape:window-maximized="1"
     inkscape:current-layer="g836" />
  <g
     id="g36"
     transform="matrix(2.8991511,0,0,2.8991511,158.06904,-31.581708)">
    <g
       id="g836">
      <g
         style="fill:none;stroke:#ffffff;stroke-width:2.51832338;stroke-miterlimit:4;stroke-dasharray:none"
         transform="translate(-128.39865,4.9870661)"
         id="g870">
        <path
           style="fill:none;stroke:#ffffff;stroke-width:2.51832338;stroke-miterlimit:4;stroke-dasharray:none"
           inkscape:connector-curvature="0"
           d="m 128.60443,59.320919 h 21.059 c 0,0 2.033,-0.078 2.033,1.922 v 15.077 c 0,0 0.044,1.042 -0.972,1.042 h -3.049 c 0,0 -1.016,-0.025 -1.016,-1.042 v -9.327 c 0,0 -0.088,-1.191 -0.972,-1.191 h -3.049 c 0,0 -1.016,-0.117 -1.016,1.191 v 9.327 c 0,0 -0.133,1.042 -1.016,1.042 h -2.873 c 0,0 -1.105,0.063 -1.105,-1.042 v -9.327 c 0,0 0.309,-1.191 -1.061,-1.191 h -2.873 c 0,0 -1.016,-0.117 -1.016,1.191 v 9.327 c 0,0 0,1.042 -1.016,1.042 h -3.049 c 0,0 -0.928,-0.069 -0.928,-1.042 v -15.077 c 0,0 0.04,-1.776 1.919,-1.922 z m 31.041,8.98 c 0,0 0.977,-0.074 0.977,0.965 v 7.054 c 0,0 -0.102,1.042 -0.946,1.042 h -2.063 c 0,0 -1.013,-0.027 -1.013,-1.042 v -7.054 c 0,0 0.044,-0.965 1.044,-0.965 1.001,0 1.939,0.036 2.001,0 z m -2,-3.029 c 0,0 -1.044,0.018 -1.044,-1.005 v -3.023 c 0,0 -0.002,-1 1.06,-1 h 2 c 0,0 0.962,-0.02 0.962,1 v 3.023 c 0,0 0.101,1.005 -0.946,1.005 -1.047,0 -2.001,-0.013 -2.032,0 z m 7.969,11.048 c 0,0 0.031,1.042 1.031,1.042 h 2.938 c 0,0 1.031,-0.058 1.031,-1.042 v -9.327 c 0,0 0.031,-1.191 1,-1.191 h 3 c 0,0 1.031,-0.117 1.031,1.191 v 9.327 c 0,0 -0.063,1.042 1,1.042 h 2.031 c 0,0 0.938,-0.058 0.938,-1.042 v -14.057 c 0,0 -0.031,-2.02 -2,-2.02 h -9.969 c 0,0 -2.031,0.017 -2.031,2.02 0,2.003 0.093,14.168 0,14.057 z m 23.063,-8.019 c 0,0 0.977,-0.074 0.977,0.965 v 7.054 c 0,0 -0.102,1.042 -0.946,1.042 h -2.063 c 0,0 -1.013,-0.027 -1.013,-1.042 v -7.054 c 0,0 0.044,-0.965 1.044,-0.965 1.001,0 1.939,0.036 2.001,0 z m -2,-3.029 c 0,0 -1.044,0.018 -1.044,-1.005 v -3.023 c 0,0 -0.002,-1 1.06,-1 h 2 c 0,0 0.962,-0.02 0.962,1 v 3.023 c 0,0 0.101,1.005 -0.946,1.005 -1.047,0 -2,-0.013 -2.032,0 z"
           id="path31" />
        <path
           id="path30-1"
           d="m 128.60443,59.320919 h 21.059 c 0,0 2.033,-0.078 2.033,1.922 V 76.31992 c 0,0 0.044,1.042 -0.972,1.042 h -3.049 c 0,0 -1.016,-0.025 -1.016,-1.042 v -9.327001 c 0,0 -0.088,-1.191 -0.972,-1.191 h -3.049 c 0,0 -1.016,-0.116999 -1.016,1.191 v 9.327001 c 0,0 -0.133,1.042 -1.016,1.042 h -2.873 c 0,0 -1.105,0.063 -1.105,-1.042 v -9.327001 c 0,0 0.309,-1.191 -1.061,-1.191 h -2.873 c 0,0 -1.016,-0.116999 -1.016,1.191 v 9.327001 c 0,0 0,1.042 -1.016,1.042 h -3.049 c 0,0 -0.928,-0.069 -0.928,-1.042 V 61.242919 c 0,0 0.04,-1.776 1.919,-1.922 z m 31.041,8.980001 c 0,0 0.977,-0.074 0.977,0.965 v 7.054 c 0,0 -0.102,1.042 -0.946,1.042 h -2.063 c 0,0 -1.013,-0.027 -1.013,-1.042 v -7.054 c 0,0 0.044,-0.965 1.044,-0.965 1.001,0 1.939,0.036 2.001,0 z m -2,-3.029001 c 0,0 -1.044,0.018 -1.044,-1.005 v -3.023 c 0,0 -0.002,-1 1.06,-1 h 2 c 0,0 0.962,-0.02 0.962,1 v 3.023 c 0,0 0.101,1.005 -0.946,1.005 -1.047,0 -2.001,-0.013 -2.032,0 z m 7.969,11.048001 c 0,0 0.031,1.042 1.03101,1.042 h 2.93799 c 0,0 1.031,-0.058 1.031,-1.042 v -9.327001 c 0,0 0.031,-1.191 1,-1.191 h 3 c 0,0 1.03101,-0.116999 1.03101,1.191 v 9.327001 c 0,0 -0.063,1.042 0.99999,1.042 h 2.031 c 0,0 0.938,-0.058 0.938,-1.042 V 62.262919 c 0,0 -0.031,-2.02 -1.99999,-2.02 h -9.96901 c 0,0 -2.031,0.017 -2.031,2.02 0,2.003 0.093,14.168001 0,14.057001 z m 23.063,-8.019 c 0,0 0.97701,-0.074 0.97701,0.965 v 7.054 c 0,0 -0.10201,1.042 -0.94601,1.042 h -2.063 c 0,0 -1.013,-0.027 -1.013,-1.042 v -7.054 c 0,0 0.044,-0.965 1.044,-0.965 1.001,0 1.93901,0.036 2.001,0 z m -2,-3.029001 c 0,0 -1.044,0.018 -1.044,-1.005 v -3.023 c 0,0 -0.002,-1 1.06,-1 h 2 c 0,0 0.962,-0.02 0.962,1 v 3.023 c 0,0 0.101,1.005 -0.94599,1.005 -1.047,0 -2,-0.013 -2.03201,0 z"
           inkscape:connector-curvature="0"
           style="fill:none;stroke:#ffffff;stroke-width:2.51832338;stroke-miterlimit:4;stroke-dasharray:none" />
      </g>
      <g
         style="fill:#ffffff;stroke:#ffffff"
         transform="matrix(0.27726573,0,0,0.2551919,-54.522524,10.893433)"
         id="g879">
        <path
           inkscape:connector-curvature="0"
           d="m 552.813,65.277 -4.485,18.48 -4.14,-20.463 -55.452,-12.207 0.39,30.834 8.355,1.872 -0.603,5.562 c -0.108,-0.042 -0.174,-0.108 -0.234,-0.156 -10.359,-5.466 -23.202,-6.024 -35.289,-1.461 -4.053,1.551 -7.818,3.591 -11.232,6.069 L 441.759,41.001 H 404.88 l -1.014,6.072 h -38.814 l -4.434,27.147 -3.219,-3.978 C 347.994,58.689 334.359,52.323 319.254,52.008 L 352.209,34.293 329.229,0 l -41.52,47.841 7.167,8.739 c -6.492,2.652 -12.162,6.309 -16.86,10.728 l -35.601,-31.584 -12.447,23.856 0.48,-22.926 -55.659,17.781 1.428,29.901 9.468,-2.457 1.401,15.156 c -10.821,-4.86 -23.826,-4.74 -35.886,0.357 -3.576,1.557 -6.906,3.471 -9.978,5.697 2.085,-9.231 1.593,-18.333 -1.926,-26.451 C 135.141,67.047 127.83,59.121 118.869,54.12 112.584,49.935 105.096,47.325 97.257,46.44 78,43.071 54.873,46.53 32.112,56.226 23.742,59.796 15.939,63.846 8.898,68.331 L 0,73.974 5.373,83.046 22.05,111.231 c 0,0 5.103,8.637 5.136,8.631 l 9.018,-4.431 1.257,-0.579 41.439,92.484 3.996,8.889 9.252,-2.982 22.422,-7.182 9.825,-3.12 -2.592,-10.002 -11.907,-45.711 c 3.423,-2.535 6.621,-5.226 9.573,-8.04 -0.666,5.463 -0.318,10.992 1.188,16.284 3.111,11.082 10.368,19.833 20.439,24.684 10.875,5.226 24.144,5.241 36.42,0.033 6.159,-2.61 11.634,-6.423 16.272,-10.959 l 1.692,18.204 39.264,-5.781 -0.063,-35.205 82.044,40.548 v -39.261 c 3.291,-0.276 6.651,-0.795 10.029,-1.626 9.036,-2.181 16.77,-5.175 23.64,-9.291 l -3.447,21.084 44.235,6.963 2.427,-15.918 11.556,21.342 7.062,-13.608 2.58,22.344 50.154,8.841 -2.661,-16.872 c 6.867,0.777 14.103,-0.144 21.093,-2.781 1.656,-0.612 3.288,-1.359 4.854,-2.157 l -1.998,17.952 33.378,4.71 0.249,13.689 34.806,10.926 L 600,76.746 Z m -195.963,20.298 2.298,-2.448 -2.778,17.223 -7.251,-6.531 z m -29.394,-70.347 12.153,16.509 -34.743,17.223 -2.4,-3.648 z M 97.41,142.518 111.27,195.702 88.836,202.866 42.801,100.059 c -2.502,1.317 -7.128,3.525 -11.373,5.607 L 14.757,77.505 c 6.63,-4.233 13.899,-7.983 21.633,-11.253 21.702,-9.228 42.408,-11.982 58.968,-9.057 5.859,0.66 12.063,2.388 17.496,5.991 7.452,4.2 13.152,10.173 16.44,17.781 8.019,18.528 -5.376,45.192 -31.884,61.551 z m 103.14,-9.465 c -0.258,7.92 -3.168,15.852 -8.034,22.566 -4.632,6.489 -11.1,11.847 -18.711,15.123 -19.464,8.247 -38.925,0 -44.124,-18.477 -5.037,-17.865 6.681,-39.135 25.539,-47.259 12.045,-5.085 24.129,-3.879 32.784,2.004 5.346,3.624 9.423,9.078 11.328,15.909 0.24,0.726 0.396,1.488 0.558,2.232 0.543,2.604 0.762,5.271 0.66,7.902 z m 105.894,37.599 -81.408,-40.713 0.147,42.657 -21.06,2.874 -1.467,-17.586 c 6.501,-11.148 8.88,-24.288 5.487,-36.333 -1.863,-6.624 -5.304,-12.372 -9.981,-16.977 l -3.021,-35.853 -9.456,2.451 -0.417,-9.063 33.816,-10.071 2.073,34.878 24.915,-35.001 24.354,23.193 -34.059,35.883 31.998,12.657 c 3.573,6.774 9.027,12.528 15.867,16.767 6.615,4.083 14.19,6.498 22.206,7.29 z m -42.27,-58.986 -11.322,-4.371 10.554,-10.257 c -0.45,4.707 -0.219,9.633 0.768,14.628 z m 88.59,10.665 c -7.812,6.462 -16.716,10.674 -28.482,13.518 -2.571,0.588 -5.091,1.017 -7.557,1.236 -18.675,1.833 -34.341,-6.741 -40.287,-20.649 -0.741,-1.686 -1.311,-3.39 -1.743,-5.208 -2.751,-11.715 -0.402,-22.185 5.385,-30.387 1.668,-2.394 3.645,-4.575 5.865,-6.537 5.451,-4.866 12.411,-8.4 20.322,-10.302 17.79,-4.29 33.456,1.14 43.062,12.927 l -33.9,36.081 c 2.298,0.435 5.955,-0.168 8.652,-0.813 8.073,-1.971 12.591,-6.255 16.572,-10.926 l 13.548,12.189 4.104,3.708 c -1.779,1.839 -3.648,3.576 -5.541,5.163 z m 71.919,48.153 -7.374,-48.849 -10.428,26.949 -15.615,-33.681 h -0.177 l -6.171,39.003 -26.025,-4.53 3.66,-21.765 c 0.981,-0.921 1.947,-1.848 2.898,-2.826 l 8.436,-8.685 -8.199,-7.344 8.712,-51.831 h 26.256 l 6.573,35.88 7.365,-41.583 h 18.783 l 7.794,50.661 c -9.918,11.298 -14.736,26.487 -11.421,40.383 2.562,10.77 9.183,19.446 18.672,24.513 0.954,0.48 1.944,0.957 2.964,1.368 l 0.993,6.567 z m 64.854,-15.915 c -2.868,2.043 -6.027,3.78 -9.423,5.031 -6.702,2.553 -13.371,3.084 -19.311,1.905 -4.14,-0.819 -7.917,-2.433 -11.202,-4.77 -5.223,-3.78 -9.072,-9.36 -10.767,-16.368 -1.977,-8.421 -0.156,-17.412 4.374,-25.287 2.259,-3.849 5.154,-7.467 8.583,-10.584 3.822,-3.426 8.253,-6.234 13.185,-8.13 11.475,-4.281 22.794,-2.805 30.762,2.925 2.931,2.076 5.364,4.719 7.281,7.794 1.452,2.427 2.583,5.103 3.267,8.022 2.439,10.113 -0.465,20.94 -6.846,29.664 -2.73,3.72 -6.06,7.062 -9.903,9.798 z m 58.602,46.041 -19.245,-5.733 -1.677,-70.953 -9.678,54.735 -20.997,-3.351 1.503,-15.759 c 13.71,-11.586 20.979,-29.859 16.995,-46.422 -1.749,-7.332 -5.52,-13.716 -10.836,-18.573 l 1.773,-18.585 -7.938,-2.112 0.531,-9.924 36.171,7.269 12.165,57.678 12.474,-51.711 27.519,6.081 z"
           id="path3522"
           style="fill:#ffffff;fill-opacity:1;stroke:#ffffff" />
        <path
           inkscape:connector-curvature="0"
           d="m 489.996,109.038 c 0.216,0.855 0.327,1.704 0.3,2.604 -0.237,5.388 -5.301,9.546 -11.337,9.264 -6.033,-0.207 -10.773,-4.788 -10.536,-10.161 0.204,-5.037 4.692,-9.024 10.236,-9.279 -1.053,-0.237 -2.154,-0.363 -3.3,-0.402 -10.098,-0.435 -18.354,6.717 -18.702,15.621 -0.387,9.525 7.245,17.289 17.184,17.721 10.113,0.402 18.363,-6.774 18.765,-16.251 0.117,-3.288 -0.852,-6.438 -2.61,-9.117"
           id="path3500"
           style="fill:#ffffff;fill-opacity:1;stroke:#ffffff" />
        <path
           inkscape:connector-curvature="0"
           d="m 183.621,119.916 c 0,5.409 -4.92,9.744 -10.944,9.744 -6.042,0 -10.944,-4.338 -10.944,-9.744 0,-5.043 4.311,-9.201 9.84,-9.681 -1.059,-0.195 -2.163,-0.306 -3.3,-0.306 -10.095,0 -18.063,7.491 -18.063,16.407 0,9.519 7.968,16.983 17.901,16.983 10.107,0 18.063,-7.47 18.063,-16.983 0,-3.291 -1.086,-6.396 -2.958,-8.952 0.252,0.771 0.405,1.623 0.405,2.532"
           id="path3509"
           style="fill:#ffffff;fill-opacity:1;stroke:#ffffff" />
        <path
           inkscape:connector-curvature="0"
           style="fill:#ffffff;stroke:#ffffff"
           d="m 335.766,106.185 c -0.15,0.135 -0.288,0.3 -0.405,0.471 0.156,-0.141 0.306,-0.264 0.468,-0.399 z"
           id="path3414" />
        <path
           inkscape:connector-curvature="0"
           style="fill:#ffffff;stroke:#ffffff"
           d="m 252.852,107.295 0.117,0.048 z"
           id="path3420" />
        <path
           inkscape:connector-curvature="0"
           d="m 318.657,83.649 c 0,5.412 -4.92,9.744 -10.947,9.744 -6.042,0 -10.941,-4.335 -10.941,-9.744 0,-5.04 4.311,-9.198 9.837,-9.681 -1.059,-0.192 -2.16,-0.303 -3.3,-0.303 -10.095,0 -18.06,7.488 -18.06,16.41 0,9.516 7.968,16.98 17.898,16.98 10.107,0 18.066,-7.47 18.066,-16.98 0,-3.297 -1.089,-6.402 -2.961,-8.958 0.255,0.771 0.408,1.626 0.408,2.532"
           id="path3509-8"
           style="fill:#ffffff;fill-opacity:1;stroke:#ffffff" />
        <path
           inkscape:connector-curvature="0"
           d="m 107.247,92.526 c 0,5.409 -4.92,9.744 -10.947,9.744 -6.042,0 -10.944,-4.338 -10.944,-9.744 0,-5.043 4.314,-9.198 9.84,-9.681 -1.059,-0.192 -2.16,-0.303 -3.3,-0.303 -10.095,0 -18.06,7.488 -18.06,16.407 0,9.516 7.968,16.983 17.898,16.983 10.107,0 18.066,-7.47 18.066,-16.983 0,-3.294 -1.089,-6.399 -2.961,-8.955 0.252,0.771 0.408,1.623 0.408,2.532"
           id="path3509-2"
           style="fill:#ffffff;fill-opacity:1;stroke:#ffffff" />
      </g>
      <path
         transform="matrix(0.34492856,0,0,0.34492856,0,3.2534563e-4)"
         inkscape:connector-curvature="0"
         id="path907"
         d="m -1.4866065,236.95551 c -0.3361961,-0.3362 -0.6112656,-10.97472 -0.6112656,-23.64115 0,-19.44317 0.2098189,-23.32944 1.34722265,-24.95331 l 1.34722252,-1.92343 H 33.490838 c 21.019844,0 33.498549,0.3234 34.568236,0.89588 1.594907,0.85357 1.673971,2.06112 1.673971,25.56667 v 24.67079 l -6.707103,-0.25276 -6.707104,-0.25277 -0.237451,-15.08181 c -0.151372,-9.61442 -0.59254,-15.50967 -1.216961,-16.26205 -0.698992,-0.84223 -2.737688,-1.1082 -7.118727,-0.92869 l -6.139218,0.25154 -0.432716,15.14507 c -0.237994,8.3298 -0.747784,15.63188 -1.132866,16.22687 -0.447614,0.6916 -2.833391,1.08179 -6.614512,1.08179 -4.739019,0 -6.025168,-0.28875 -6.471936,-1.45301 -0.306666,-0.79916 -0.50899,-7.79124 -0.449609,-15.53795 0.05938,-7.74672 -0.143806,-14.49231 -0.451527,-14.99021 -0.837044,-1.35437 -12.157984,-1.15045 -13.311769,0.23978 -0.587997,0.70849 -1.040837,6.89508 -1.187759,16.22686 l -0.237452,15.08181 -6.0958378,0.25067 c -3.352711,0.13787 -6.3709077,-0.0244 -6.7071037,-0.36059 z"
         style="fill:none;stroke:#ffffff;stroke-width:0.86197614;stroke-miterlimit:4;stroke-dasharray:none" />
    </g>
  </g>
</svg>
