<?xml version="1.0" encoding="UTF-8" standalone="no"?>
<!-- Created with Inkscape (http://www.inkscape.org/) -->

<svg
   xmlns:dc="http://purl.org/dc/elements/1.1/"
   xmlns:cc="http://creativecommons.org/ns#"
   xmlns:rdf="http://www.w3.org/1999/02/22-rdf-syntax-ns#"
   xmlns:svg="http://www.w3.org/2000/svg"
   xmlns="http://www.w3.org/2000/svg"
   xmlns:sodipodi="http://sodipodi.sourceforge.net/DTD/sodipodi-0.dtd"
   xmlns:inkscape="http://www.inkscape.org/namespaces/inkscape"
   width="159.27917mm"
   height="34.75901mm"
   viewBox="0 0 159.27918 34.759011"
   version="1.1"
   id="svg8"
   inkscape:version="0.92.4 (5da689c313, 2019-01-14)"
   sodipodi:docname="system.svg">
  <defs
     id="defs2" />
  <sodipodi:namedview
     id="base"
     pagecolor="#ffffff"
     bordercolor="#666666"
     borderopacity="1.0"
     inkscape:pageopacity="0.0"
     inkscape:pageshadow="2"
     inkscape:zoom="0.75246068"
     inkscape:cx="-5.193163"
     inkscape:cy="226.81508"
     inkscape:document-units="mm"
     inkscape:current-layer="g12"
     showgrid="false"
     inkscape:window-width="1600"
     inkscape:window-height="837"
     inkscape:window-x="-8"
     inkscape:window-y="-8"
     inkscape:window-maximized="1"
     showguides="false">
    <sodipodi:guide
       position="27.384112,154.74625"
       orientation="0,1"
       id="guide252"
       inkscape:locked="false" />
  </sodipodi:namedview>
  <metadata
     id="metadata5">
    <rdf:RDF>
      <cc:Work
         rdf:about="">
        <dc:format>image/svg+xml</dc:format>
        <dc:type
           rdf:resource="http://purl.org/dc/dcmitype/StillImage" />
        <dc:title />
      </cc:Work>
    </rdf:RDF>
  </metadata>
  <g
     inkscape:label="Camada 1"
     inkscape:groupmode="layer"
     id="layer1"
     transform="translate(-30.87029,-266.77528)">
    <g
       id="g12"
       transform="matrix(0.92408831,0,0,0.92408831,1.3178591,23.681549)">
      <path
         inkscape:connector-curvature="0"
         id="path1124"
         d="m 58.126956,263.5403 -1.70545,0.11893 c -2.326822,0.16159 -4.412341,1.17807 -6.50202,3.16939 -2.735756,2.60693 -4.55868,5.93863 -6.482748,11.84703 -2.034568,6.24834 -2.907211,8.2363 -4.689646,10.68795 -1.654839,2.27638 -3.003953,3.25371 -5.161667,3.73989 -0.554685,0.12487 -0.593149,0.20958 -0.627053,1.3817 -0.07556,2.60464 -0.06913,4.74436 0.01522,5.03253 0.06705,0.22951 0.439546,0.27521 1.611539,0.1963 1.715261,-0.11522 4.295638,-1.05742 5.645205,-2.06115 2.28009,-1.69615 4.197778,-4.57507 6.180776,-9.27677 l 1.233954,-2.92567 2.395155,-0.1397 c 1.317101,-0.0792 2.901902,-0.1404 3.522147,-0.14117 l 1.128001,-9.7e-4 v -3.36847 -3.36943 l -2.199138,-0.0628 c -1.908623,-0.0543 -2.20935,-0.11312 -2.272808,-0.44926 -0.103807,-0.55115 1.754553,-3.67033 3.029942,-5.0856 1.203189,-1.33509 2.195774,-1.9306 3.797665,-2.27915 l 1.081241,-0.2352 v -3.38941 z m 41.109183,2.46853 c -0.918422,0.007 -1.787519,0.0611 -1.930382,0.15696 -0.310692,0.20924 -0.600842,19.94543 -0.387702,26.36554 l 0.153627,4.63191 2.384076,-0.062 2.384152,-0.0618 0.10717,-7.73322 c 0.094,-6.75728 0.1538,-7.81928 0.47522,-8.41483 0.40693,-0.75373 0.75819,-0.95258 1.68533,-0.95258 0.4386,0 0.73398,0.17389 1.00263,0.58952 0.34069,0.52671 0.39402,1.42887 0.50748,8.54953 0.0705,4.37896 0.14233,7.98947 0.16103,8.02311 0.0194,0.034 1.12201,0.034 2.45141,0 l 2.41651,-0.062 -0.0138,-8.1687 c -0.0149,-8.92623 -0.10918,-9.7654 -1.32177,-12.02922 -1.32656,-2.47178 -4.09646,-2.84371 -6.33489,-0.8507 -0.42053,0.37423 -0.82427,0.68046 -0.89717,0.68046 -0.0731,0 -0.13243,-2.34084 -0.13243,-5.20275 v -5.20273 l -0.4836,-0.13081 c -0.34137,-0.095 -1.30921,-0.13396 -2.227578,-0.12746 z m -35.545843,0.0575 c -0.422093,-5.6e-4 -0.88092,0.0185 -1.273919,0.0582 l -1.428996,0.14265 -0.141109,6.34674 c -0.221067,9.94603 -0.175458,23.63051 0.0807,24.11542 0.198108,0.3752 0.467711,0.42128 2.470301,0.42129 h 2.248235 V 281.7119 266.27292 l -0.900168,-0.14525 c -0.247421,-0.0403 -0.632684,-0.0611 -1.05477,-0.0618 z m 66.059804,0.65683 c -1.59568,0.01 -3.21723,0.16082 -3.74478,0.44722 -3.13802,1.70268 -5.1984,4.64518 -6.25484,8.93097 -0.64913,2.63317 -0.80269,8.45641 -0.29961,11.3639 0.89091,5.14286 3.0378,8.36681 6.35713,9.54549 1.30415,0.4629 5.02481,0.44219 6.85628,-0.0383 l 1.39591,-0.36602 0.0575,-8.22391 0.0575,-8.22332 h -3.33966 -3.33886 l 0.0619,2.45088 0.0619,2.4508 1.02092,0.0676 1.01974,0.0679 v 3.58197 3.58244 l -0.5905,-0.004 c -0.9427,-0.008 -2.30948,-0.75251 -2.95574,-1.61216 -1.15157,-1.53202 -1.61466,-3.37444 -1.75524,-6.98751 -0.14854,-3.8163 0.12014,-6.29616 0.86719,-8.00887 0.59451,-1.3629 1.84064,-2.85957 2.80086,-3.363 0.7306,-0.38341 2.77327,-0.48215 4.13507,-0.20025 1.0244,0.21193 0.93034,0.39929 1.44235,-2.87695 l 0.28456,-1.81507 -0.54804,-0.36319 c -0.42181,-0.28052 -1.99181,-0.41262 -3.58719,-0.4029 z m 69.31826,7.9926 c -4.81424,0.009 -7.75271,6.45096 -4.92029,10.78731 0.35932,0.5509 1.44743,1.67397 2.41719,2.49555 2.26549,1.91873 2.69414,2.9399 1.77182,4.21813 -0.45565,0.63217 -1.97574,0.70487 -3.37898,0.16247 -0.6502,-0.2511 -1.23921,-0.45655 -1.30907,-0.45661 -0.1509,-1.4e-4 -0.55916,1.8471 -0.74887,3.39304 l -0.13587,1.10553 1.0432,0.46638 c 1.54497,0.69108 4.70406,0.67458 6.19966,-0.0319 1.31403,-0.6207 2.70006,-2.36945 3.13277,-3.95343 0.42889,-1.56927 0.33296,-3.68023 -0.23627,-5.20227 -0.54998,-1.46995 -1.44505,-2.55289 -3.45552,-4.18026 -1.58586,-1.28399 -2.11128,-2.20104 -1.73754,-3.03242 0.39777,-0.88518 1.19505,-1.26982 2.28972,-1.1031 0.52913,0.0827 1.0183,0.23851 1.08715,0.35162 0.0702,0.11284 0.3012,0.20483 0.51567,0.20483 0.32044,0 0.45716,-0.3498 0.76439,-1.95387 0.20594,-1.07484 0.32433,-2.08571 0.26342,-2.24712 -0.16814,-0.44296 -2.19829,-1.02695 -3.56258,-1.02436 z m -29.11367,0.0211 c -1.20129,-9.3e-4 -2.09106,0.44934 -3.09204,1.52533 -0.54552,0.58614 -1.06064,1.06572 -1.14492,1.06572 -0.0857,0 -0.36277,-0.34409 -0.61917,-0.76457 -1.39184,-2.28466 -4.37473,-2.42398 -6.74296,-0.31495 -0.88993,0.7922 -1.19412,0.66576 -1.20061,-0.4999 l -0.003,-0.59929 h -2.14764 -2.14814 v 9.66202 c 0,5.31428 0.0631,10.26443 0.13765,11.00067 l 0.13796,1.33906 h 2.18189 c 1.41107,0 2.27326,-0.0947 2.43955,-0.26136 0.19032,-0.19302 0.25878,-2.22811 0.26105,-7.78781 0.003,-8.08582 0.0157,-8.18318 1.1346,-9.02588 0.55386,-0.41683 0.64509,-0.42649 1.18131,-0.1225 0.95261,0.54071 1.09222,1.39176 1.10665,6.74132 0.008,2.69592 0.0774,6.15116 0.15291,7.67864 l 0.13976,2.77759 h 2.22216 c 1.22174,0 2.23859,-0.0249 2.25818,-0.0557 0.0201,-0.0302 0.0938,-3.58782 0.16085,-7.9064 0.11249,-7.06839 0.16396,-7.91198 0.51208,-8.45107 0.21329,-0.32946 0.62745,-0.70975 0.91948,-0.84488 0.44207,-0.20412 0.63067,-0.17106 1.11127,0.19289 0.31888,0.24155 0.6451,0.67496 0.72432,0.96387 0.0812,0.28844 0.15571,3.66194 0.16885,7.4956 0.0133,3.83421 0.0858,7.34121 0.15788,7.79474 l 0.13421,0.82367 2.3871,-0.062 2.38763,-0.062 -0.0368,-7.9512 c -0.0202,-4.37296 -0.13784,-8.5819 -0.26301,-9.35317 -0.48792,-3.01726 -1.92101,-4.762 -4.08435,-4.97285 -0.18592,-0.0181 -0.36346,-0.0279 -0.53505,-0.0281 z m 14.81552,0.009 c -0.18092,4.8e-4 -0.36533,0.01 -0.55388,0.0266 -2.91069,0.26765 -5.27798,2.85732 -6.31903,6.91256 -0.56495,2.1997 -0.68627,6.27567 -0.25222,8.50172 0.65201,3.3484 2.33062,5.89862 4.45882,6.77436 1.25817,0.51805 5.10436,0.55371 6.56342,0.0618 1.56298,-0.52765 1.57851,-0.56447 1.15945,-2.8112 -0.3223,-1.72597 -0.41583,-1.95179 -0.78567,-1.88973 -0.23079,0.039 -1.30878,0.12355 -2.39453,0.18855 -1.76561,0.10767 -2.05409,0.0688 -2.72397,-0.35131 -0.79636,-0.49883 -1.5691,-1.86027 -1.67949,-2.95765 l -0.0673,-0.65394 4.08137,-0.11077 c 2.24461,-0.0609 4.21599,-0.19702 4.38059,-0.30469 0.39814,-0.26005 0.18875,-6.00611 -0.28397,-7.8016 -0.97656,-3.70542 -2.8665,-5.5932 -5.58487,-5.58607 z m -41.9168,5e-4 c -1.58948,-0.008 -2.97025,0.32929 -4.56519,1.09869 -0.91749,0.44241 -0.92578,0.45677 -0.79073,1.34675 0.17576,1.15998 0.73154,3.18633 0.87374,3.18633 0.0616,0 0.47985,-0.19098 0.93211,-0.42504 0.45199,-0.23362 1.26835,-0.53989 1.81553,-0.67955 0.84045,-0.2142 1.11069,-0.19757 1.74941,0.11087 0.89213,0.4288 1.36941,1.09574 1.53775,2.1487 0.14455,0.90255 -0.11512,1.10342 -1.73562,1.34175 -2.64664,0.39033 -5.07047,2.2675 -5.91592,4.58377 -0.41446,1.13736 -0.46648,1.63214 -0.39495,3.81231 0.0754,2.25465 0.14411,2.62125 0.69938,3.67293 0.3472,0.65874 0.98991,1.44261 1.47222,1.79744 0.76997,0.56488 1.02679,0.62876 2.52664,0.62876 1.57754,0 1.72428,-0.0424 2.65473,-0.76207 1.10963,-0.85924 1.41047,-0.93782 1.41047,-0.37061 0,0.7494 0.45293,0.91483 2.50061,0.91483 1.09192,0 2.02075,-0.076 2.06522,-0.16349 0.0448,-0.0922 -0.0335,-3.98605 -0.17154,-8.65869 -0.27277,-9.24431 -0.2865,-9.34127 -1.64589,-11.37724 -0.9463,-1.41865 -2.19031,-2.04623 -4.32325,-2.18118 -0.23652,-0.0151 -0.46812,-0.0234 -0.69472,-0.0245 z m -67.755678,0.01 c -2.448726,-0.0317 -5.379591,0.90055 -5.55803,1.82743 -0.09365,0.48505 0.349025,3.13902 0.589031,3.53276 0.127348,0.20906 0.440068,0.14616 1.332204,-0.26719 2.482493,-1.14994 3.900507,-0.83216 4.725292,1.05891 0.354368,0.81248 0.384674,1.64824 0.05961,1.64824 -0.05121,0 -0.838647,0.15447 -1.749283,0.34298 -2.65802,0.55065 -4.42973,1.8481 -5.563801,4.07548 -0.76315,1.49888 -0.957771,4.84456 -0.395915,6.80479 0.501903,1.75096 2.022631,3.37867 3.359878,3.59731 0.519273,0.087 1.072746,0.1176 1.230086,0.0755 0.157337,-0.0447 0.599478,-0.0829 0.982043,-0.0829 0.484454,0 0.961768,-0.23106 1.573492,-0.76205 0.483084,-0.41951 0.962853,-0.7627 1.065849,-0.7627 0.102736,0 0.298033,0.29772 0.433469,0.66129 l 0.246111,0.66179 2.110033,-0.0636 2.110027,-0.0634 -0.07532,-5.44581 c -0.120842,-8.76587 -0.323972,-11.82008 -0.869349,-13.07026 -1.104531,-2.53227 -2.52318,-3.57091 -5.123593,-3.75088 -0.158006,-0.011 -0.318868,-0.0176 -0.482116,-0.0197 z m 14.927685,0.0418 c -0.89204,0.0187 -1.758666,0.1754 -2.362884,0.50249 -0.902244,0.48855 -1.92128,1.49919 -2.553607,2.53296 -0.631978,1.0335 -1.02772,3.46103 -0.797584,4.89178 0.331412,2.05983 0.581074,2.45408 3.145063,4.96946 2.268363,2.22571 2.461609,2.47905 2.461609,3.22324 0,1.66206 -1.519594,2.31421 -3.544328,1.52143 -1.601056,-0.62721 -1.64014,-0.60173 -2.070055,1.33588 -0.212661,0.95873 -0.389802,1.91166 -0.393487,2.11869 -0.0096,0.52854 0.920994,1.0856 2.333501,1.39628 2.320278,0.51127 4.767427,-0.0109 6.207267,-1.32296 1.089877,-0.9933 1.558941,-1.93569 1.870658,-3.75611 0.623995,-3.64396 -0.637761,-6.53069 -3.828005,-8.75624 -1.125086,-0.78499 -1.649579,-1.53756 -1.649579,-2.36716 0,-1.53637 1.400044,-2.15465 3.125781,-1.38065 0.561981,0.25195 1.044854,0.43261 1.07259,0.40151 0.108958,-0.12336 0.742196,-3.50907 0.742196,-3.96881 0,-0.78075 -1.672127,-1.30295 -3.375759,-1.34131 -0.127765,-0.003 -0.255934,-0.003 -0.383377,-4.8e-4 z m 94.371883,4.39247 c 0.36104,-0.01 0.73094,0.20479 1.08754,0.6647 0.40107,0.51747 0.99364,3.64698 0.76249,4.02674 -0.0682,0.11081 -1.04498,0.19927 -2.17361,0.19927 h -2.05195 l 0.14178,-0.81623 c 0.44505,-2.56872 1.31093,-4.05137 2.23375,-4.07448 z m -108.348348,7.51914 c 0.129169,0.007 0.239069,0.034 0.32221,0.0883 0.134031,0.0863 0.226734,0.92737 0.223963,2.0364 -0.0052,2.07593 -0.461889,3.51656 -1.251274,3.94518 -1.55977,0.84642 -2.596257,-0.61903 -2.341207,-3.31043 0.09198,-0.96753 0.220168,-1.22518 0.916539,-1.83576 0.650608,-0.5701 1.570052,-0.94896 2.129769,-0.92157 z m 67.692248,0.003 c 0.11244,-0.003 0.2267,0.003 0.34125,0.0201 0.49174,0.0715 0.50262,0.12357 0.4818,2.25344 -0.025,2.4409 -0.37081,3.46341 -1.29185,3.81874 -0.29702,0.11435 -0.55807,0.20246 -0.58012,0.19483 -1.07885,-0.37538 -1.44576,-0.81177 -1.65413,-1.96627 -0.38465,-2.13396 1.015,-4.27846 2.70305,-4.32094 z"
         style="fill:none;stroke:#ffffff;stroke-width:1.85129786;stroke-miterlimit:4;stroke-dasharray:none" />
    </g>
  </g>
</svg>
