<?xml version="1.0" encoding="UTF-8" standalone="no"?>
<svg
   xmlns:dc="http://purl.org/dc/elements/1.1/"
   xmlns:cc="http://creativecommons.org/ns#"
   xmlns:rdf="http://www.w3.org/1999/02/22-rdf-syntax-ns#"
   xmlns:svg="http://www.w3.org/2000/svg"
   xmlns="http://www.w3.org/2000/svg"
   xmlns:sodipodi="http://sodipodi.sourceforge.net/DTD/sodipodi-0.dtd"
   xmlns:inkscape="http://www.inkscape.org/namespaces/inkscape"
   width="601.30798"
   height="144.9209"
   viewBox="8.78 12 101.79447 24.513984"
   version="1.1"
   id="svg4"
   sodipodi:docname="system.svg"
   inkscape:version="0.92.4 (5da689c313, 2019-01-14)">
  <metadata
     id="metadata10">
    <rdf:RDF>
      <cc:Work
         rdf:about="">
        <dc:format>image/svg+xml</dc:format>
        <dc:type
           rdf:resource="http://purl.org/dc/dcmitype/StillImage" />
        <dc:title></dc:title>
      </cc:Work>
    </rdf:RDF>
  </metadata>
  <defs
     id="defs8" />
  <sodipodi:namedview
     pagecolor="#ffffff"
     bordercolor="#666666"
     borderopacity="1"
     objecttolerance="10"
     gridtolerance="10"
     guidetolerance="10"
     inkscape:pageopacity="0"
     inkscape:pageshadow="2"
     inkscape:window-width="1600"
     inkscape:window-height="837"
     id="namedview6"
     showgrid="false"
     inkscape:zoom="1.53555"
     inkscape:cx="198.3516"
     inkscape:cy="21.335251"
     inkscape:window-x="-8"
     inkscape:window-y="-8"
     inkscape:window-maximized="1"
     inkscape:current-layer="svg4" />
  <path
     d="m 110.57447,17.137407 h -0.48104 v -1.202619 l -0.48104,0.793729 h -0.24053 l -0.24053,-0.793729 v 1.202619 h -0.48104 v -2.044452 h 0.48104 l 0.48106,1.106409 0.48104,-1.106409 h 0.48104 z m -2.16471,-1.683666 h -0.48104 v 1.683666 h -0.48106 v -1.683666 h -0.48104 v -0.360786 h 1.44314 z m -2.64576,7.576498 h -1.44315 v -4.618055 l -1.68366,3.006547 h -0.9621 l -1.44313,-3.006547 v 4.618055 h -1.683672 v -7.937284 h 1.683672 l 1.92417,4.281323 2.16472,-4.281323 h 1.44315 z m -9.380429,0 h -1.683666 l -0.481047,-1.395038 h -2.645762 l -0.481047,1.395038 h -1.683667 l 2.886285,-7.937284 h 1.202619 z m -2.405237,-2.717918 -0.962095,-2.886285 -0.962096,2.886285 z m -6.97519,2.717918 h -5.291522 v -7.937284 h 5.291522 v 1.370985 h -3.607856 v 1.876087 h 3.126809 v 1.370985 h -3.126809 v 1.948242 h 3.607856 z M 79.306382,16.46394 h -1.924188 v 6.566299 H 75.698527 V 16.46394 h -2.164715 v -1.370985 h 5.77257 z m -7.696759,4.233219 c 0,1.635562 -1.443144,2.381185 -2.886286,2.405237 -1.443143,0 -2.405237,-0.336732 -2.886286,-1.058304 l 0.962096,-0.986147 c 0.481047,0.432943 0.962095,0.673466 1.92419,0.673466 0.962095,0 1.443142,-0.336732 1.443142,-0.986147 0,-0.601309 -0.481047,-0.865886 -0.962094,-0.962095 l -0.962096,-0.120262 c -1.443142,-0.192419 -2.164714,-0.938042 -2.164714,-2.236871 0,-0.721572 0.240525,-1.298829 0.721572,-1.755823 0.481047,-0.432944 1.202618,-0.649415 1.92419,-0.649415 1.202619,0 1.924191,0.312681 2.645762,0.91399 l -0.962096,0.986148 c -0.481047,-0.360786 -0.962095,-0.553205 -1.683666,-0.553205 -0.721572,0.0481 -1.202619,0.312681 -1.202619,1.010199 0,0.553206 0.481047,0.817782 0.962096,0.865887 l 0.962094,0.144314 c 1.20262,0.144314 2.164715,0.962095 2.164715,2.309028 z M 59.342909,19.254017 c 0,2.164714 -1.92419,3.920537 -4.088904,3.920537 -2.164713,0 -3.84838,-1.755823 -3.84838,-3.920537 0,-2.140662 1.683667,-3.896485 3.84838,-3.896485 2.164714,0 4.088904,1.755823 4.088904,3.896485 z m -4.088904,-7.263819 c -3.84838,0 -7.215714,3.223019 -7.215714,7.239766 l -4.569951,6.518195 c -0.240524,-0.02429 -0.240524,-0.04811 -0.481048,-0.04811 -0.962095,0 -1.92419,0.288628 -2.886285,0.769676 L 19.560275,18.195712 c -0.553204,-2.453342 -2.741971,-4.281323 -5.339627,-4.281323 -2.982496,0 -5.440648,2.453342 -5.440648,5.459889 0,2.982495 2.458152,5.435838 5.440648,5.435838 1.034492,0 1.972295,-0.264577 2.790316,-0.769676 l 20.685046,8.274018 c 0.481047,2.525499 2.645762,4.209166 5.291523,4.209166 2.645761,0 5.050999,-2.164714 5.291523,-4.834529 l 6.975189,-5.099103 c 4.088904,0 7.456238,-3.271124 7.456238,-7.311924 -2.41e-4,-4.016746 -3.367574,-7.28787 -7.456478,-7.28787 z m 0,2.405238 c 2.886285,0 5.051,2.188767 5.051,4.882632 0,2.71792 -2.164715,4.906686 -5.051,4.906686 -2.645762,0 -4.810476,-2.188766 -4.810476,-4.906686 0,-2.693865 2.164714,-4.882632 4.810476,-4.882632 z m -41.033357,0.962096 c 1.539352,0 2.886285,0.841832 3.559993,2.116608 l -1.996588,-0.793728 c -1.61151,-0.577257 -3.391386,0.216472 -4.0408,1.803929 -0.625362,1.61151 0.09621,3.415437 1.659614,4.112957 l 1.683667,0.673465 c -0.264816,0.07215 -0.553205,0.09621 -0.866127,0.09621 -2.212578,0 -3.992694,-1.779876 -3.992694,-3.992695 2.41e-4,-2.236871 1.780116,-4.016746 3.992935,-4.016746 z m 28.766644,11.785665 c 2.164714,0 3.848381,1.803927 3.848381,4.016747 0,2.236871 -1.683667,3.920538 -3.848381,3.920538 -1.683666,0 -2.886285,-0.721572 -3.607857,-2.044453 0.721572,0.360786 1.20262,0.60131 1.924191,0.841834 1.683666,0.72157 3.367333,-0.240524 4.088904,-1.779877 0.481047,-1.491007 0,-3.535458 -1.683667,-4.184873 l -1.683666,-0.673466 c 0.240524,-0.04835 0.721572,-0.09645 0.962095,-0.09645 z"
     id="path2"
     inkscape:connector-curvature="0"
     style="stroke-width:0.24052379;fill:#ffffff" />
</svg>
