<?xml version="1.0" encoding="UTF-8" standalone="no"?>
<svg
   xmlns:dc="http://purl.org/dc/elements/1.1/"
   xmlns:cc="http://creativecommons.org/ns#"
   xmlns:rdf="http://www.w3.org/1999/02/22-rdf-syntax-ns#"
   xmlns:svg="http://www.w3.org/2000/svg"
   xmlns="http://www.w3.org/2000/svg"
   xmlns:sodipodi="http://sodipodi.sourceforge.net/DTD/sodipodi-0.dtd"
   xmlns:inkscape="http://www.inkscape.org/namespaces/inkscape"
   viewBox="0 0 601 62.266232"
   version="1.1"
   id="svg4"
   sodipodi:docname="system.svg"
   width="601"
   height="62.266232"
   inkscape:version="0.92.4 (5da689c313, 2019-01-14)">
  <metadata
     id="metadata10">
    <rdf:RDF>
      <cc:Work
         rdf:about="">
        <dc:format>image/svg+xml</dc:format>
        <dc:type
           rdf:resource="http://purl.org/dc/dcmitype/StillImage" />
        <dc:title></dc:title>
      </cc:Work>
    </rdf:RDF>
  </metadata>
  <defs
     id="defs8" />
  <sodipodi:namedview
     pagecolor="#ffffff"
     bordercolor="#666666"
     borderopacity="1"
     objecttolerance="10"
     gridtolerance="10"
     guidetolerance="10"
     inkscape:pageopacity="0"
     inkscape:pageshadow="2"
     inkscape:window-width="1600"
     inkscape:window-height="837"
     id="namedview6"
     showgrid="false"
     inkscape:zoom="1.3823883"
     inkscape:cx="396.60662"
     inkscape:cy="36.902768"
     inkscape:window-x="-8"
     inkscape:window-y="-8"
     inkscape:window-maximized="1"
     inkscape:current-layer="svg4" />
  <path
     d="M 250.60272,35.741852 C 244.54049,24.072042 238.70558,12.932682 233.02224,2.0206563 H 207.40929 V 59.611902 h 16.29226 V 24.375154 c 0.30311,-0.151556 0.60622,-0.227334 0.90933,-0.37889 6.06224,11.897138 12.12448,23.794278 18.26249,35.691418 h 15.38293 c 5.91068,-12.0487 11.82136,-23.87006 17.65626,-35.767196 0.30311,0.07578 0.60622,0.151556 0.90934,0.303112 v 35.388304 h 16.06492 V 1.9448783 H 267.50121 C 261.96942,13.084238 256.36185,24.14782 250.60272,35.741852 Z m 238.2459,4.31934 c -0.30311,0.0758 -0.60622,0.22733 -0.90933,0.30311 C 478.77015,27.48205 469.52524,14.599797 460.65922,2.1722123 H 433.60649 V 59.611902 h 16.36804 V 21.722925 c 0.22733,-0.07578 0.45467,-0.07578 0.682,-0.151556 8.9418,12.806473 17.80782,25.537173 26.59806,38.116313 h 26.97696 V 2.0964343 h -15.53449 c 0.15156,12.7306967 0.15156,25.3856157 0.15156,37.9647577 z M 114.8844,19.904254 H 83.739661 V 1.4902113 H 64.037392 V 60.369682 h 19.929603 v -20.53582 h 30.993185 v 20.53582 H 134.132 V 1.4902113 H 114.8844 Z M 416.93534,2.9299923 c -13.79159,-1.667115 -27.58318,-1.667115 -41.37477,0 -7.27468,0.909335 -11.6698,5.152901 -13.0338,12.5033627 -1.97023,10.38158 -2.04601,20.763157 -0.15156,31.068967 1.74289,9.16913 5.68335,12.50336 15.15559,13.41269 6.06224,0.60623 12.20025,0.68201 18.86871,0.98512 6.28957,-0.30311 13.03381,-0.45467 19.77805,-1.13667 8.18402,-0.83356 12.20025,-4.4709 14.01892,-12.42759 2.34912,-10.3058 1.97023,-20.687379 0.30311,-31.06896 C 429.36292,8.5375613 424.74047,3.8393273 416.93534,2.9299923 Z m -2.57645,35.2367497 c -0.15156,4.31934 -1.74289,6.5169 -5.98646,6.66846 -8.2598,0.30311 -16.59537,0.0758 -24.85517,-0.0758 -3.18267,-0.0758 -5.07712,-2.12178 -5.22868,-5.22868 -0.22733,-5.60757 -0.37889,-11.139356 0,-16.746925 0.30311,-4.167788 2.34912,-5.834903 6.74424,-6.062237 3.7889,-0.227334 7.50202,-0.07578 11.29091,-0.07578 3.63735,0 7.27469,-0.151556 10.91203,0 5.00135,0.227334 6.97157,2.273339 7.12313,7.350462 0.15155,4.849789 0.15155,9.54802 0,14.17048 z M 192.55681,3.2331043 c -14.24626,-2.046005 -28.56829,-2.046005 -42.81455,-0.151556 -7.04735,0.909335 -11.06358,5.228679 -12.42758,12.1244727 -2.04601,10.230024 -2.12179,20.460051 -0.30312,30.690071 1.66712,9.69958 5.53179,13.10959 15.38293,14.0947 6.06224,0.60623 12.20025,0.682 18.94449,0.98512 6.13801,-0.37889 12.95803,-0.45467 19.62649,-1.13667 7.04735,-0.68201 11.82136,-4.4709 13.26114,-11.74559 2.19756,-11.21514 2.19756,-22.506051 -0.0758,-33.721189 -1.364,-6.2895697 -5.22868,-10.2300237 -11.59402,-11.1393587 z m -3.63735,35.8429777 c -0.15155,3.18267 -1.89444,5.60756 -5.30445,5.68334 -8.41136,0.15156 -16.89849,0.15156 -25.30984,0 -3.33423,-0.0758 -5.30446,-2.19756 -5.45601,-5.53179 -0.15156,-5.45601 -0.30312,-10.912024 0.0758,-16.368037 0.22734,-3.788898 2.04601,-5.228679 5.91069,-5.380235 4.16778,-0.151556 8.33557,-0.07578 12.50336,-0.07578 3.94045,0 7.80513,-0.151556 11.74558,0 3.71312,0.151556 5.60757,1.818671 5.8349,5.531791 0.22734,5.456013 0.15156,10.836251 0,16.140711 z M 347.9774,24.52671 c -5.83491,-0.530446 -11.66981,-0.606224 -17.58049,-0.833558 -4.16779,-0.151556 -8.33557,0 -12.50336,-0.07578 -2.72801,-0.07578 -4.84979,-1.212447 -5.07713,-4.319343 -0.22733,-3.182675 1.81868,-4.167788 4.39513,-4.319344 5.60757,-0.303112 11.21513,-0.454668 16.74693,-0.530446 3.94045,-0.07578 7.65357,0.530446 8.18401,5.456013 5.22868,0.303112 10.07847,0.530446 15.45871,0.833558 -0.22734,-3.031118 -0.15156,-5.607569 -0.60623,-8.108242 -1.06089,-6.2137917 -3.71312,-9.1691327 -9.92691,-9.7753557 -13.4127,-1.439781 -26.8254,-1.591337 -40.16232,0.682001 -4.77401,0.833558 -8.79024,3.334231 -9.69957,8.4113537 -0.83356,4.546677 -1.0609,9.320689 -0.60623,13.943144 0.60623,6.213792 3.41001,8.790241 9.69958,10.002691 2.4249,0.45467 4.92557,0.682 7.35046,0.75778 7.95669,0.22733 15.91337,0.30311 23.87006,0.60622 4.39512,0.15156 6.5169,1.89445 6.36535,4.77402 -0.0758,2.65222 -2.04601,3.94045 -6.36535,4.31934 -0.682,0.0758 -1.28823,0.0758 -1.97023,0.0758 h -14.47359 c -4.31934,0 -8.48713,-0.30311 -9.47224,-5.60757 h -15.23137 c 0,2.046 -0.15156,3.71312 0,5.38023 0.98511,9.16914 3.63734,12.20025 12.80647,13.18537 6.06224,0.60622 12.20025,0.60622 18.33827,0.60622 6.89579,-0.0758 13.79159,-0.15155 20.68738,-0.83356 6.66846,-0.682 9.77536,-3.78889 10.76047,-10.38158 0.60622,-3.94045 0.83356,-8.03246 0.60622,-12.04869 -0.45466,-8.108245 -3.78889,-11.518253 -11.59402,-12.200254 z m 252.64371,2.95534 V 13.235794 C 589.33019,8.9922283 578.26661,4.8244413 567.12725,0.80820926 c -1.13667,-0.37889 -2.65223,-0.606224 -3.71312,-0.227334 C 552.35055,4.6728853 541.36275,8.9164503 530.45072,13.084238 v 14.322034 c 2.34912,-0.833557 4.31934,-1.515559 6.5169,-2.273339 v 11.669809 c -2.34911,-0.75778 -4.39512,-1.36401 -6.66846,-2.12179 v 14.17048 c 9.77536,3.86468 19.55072,7.65358 29.25029,11.82136 3.86468,1.66712 7.12313,1.59134 10.98781,0 9.92691,-4.16778 20.00538,-7.95668 30.00807,-11.89714 v -14.17047 c -2.34912,0.75778 -4.4709,1.43978 -6.74424,2.19756 V 25.132933 c 2.34912,0.75778 4.54668,1.51556 6.82002,2.349117 z m -38.4952,31.296292 c -10.00269,-3.78889 -19.6265,-7.42624 -29.32607,-11.13936 v -9.39646 c 9.92691,3.7889 19.55071,7.42624 29.32607,11.06358 z m 15.53448,-15.53448 c -4.16779,1.66712 -8.33558,3.33423 -12.65492,5.00135 -3.94046,-1.66712 -7.88091,-3.25845 -11.89714,-4.92557 V 19.222253 c 3.94045,-1.667115 7.88091,-3.258453 11.89714,-4.925568 4.24356,1.667115 8.41135,3.334231 12.65492,5.001346 z M 569.24903,13.235794 V 3.8393273 c 10.00269,3.788898 19.62649,7.5020177 29.32607,11.1393597 v 9.472245 C 588.64819,20.662034 579.02439,16.948914 569.24903,13.235794 Z M 0.45968595,18.616029 H 22.056404 V 60.293902 H 41.531339 V 18.312917 H 61.991387 V 1.4144333 H 0.38390799 c 0.075778,5.759124 0.075778,11.2151367 0.075778,17.2015957 z"
     id="path2"
     style="fill:#ffffff;stroke:#000000;stroke-width:0.7577796"
     inkscape:connector-curvature="0" />
</svg>
