<?xml version="1.0" encoding="UTF-8" standalone="no"?>
<svg
   xmlns:osb="http://www.openswatchbook.org/uri/2009/osb"
   xmlns:dc="http://purl.org/dc/elements/1.1/"
   xmlns:cc="http://creativecommons.org/ns#"
   xmlns:rdf="http://www.w3.org/1999/02/22-rdf-syntax-ns#"
   xmlns:svg="http://www.w3.org/2000/svg"
   xmlns="http://www.w3.org/2000/svg"
   xmlns:xlink="http://www.w3.org/1999/xlink"
   xmlns:sodipodi="http://sodipodi.sourceforge.net/DTD/sodipodi-0.dtd"
   xmlns:inkscape="http://www.inkscape.org/namespaces/inkscape"
   viewBox="0 0 601.44798 107.25231"
   version="1.1"
   id="svg36"
   sodipodi:docname="system.svg"
   width="601.448"
   height="107.25231"
   inkscape:version="0.92.4 (5da689c313, 2019-01-14)">
  <metadata
     id="metadata42">
    <rdf:RDF>
      <cc:Work
         rdf:about="">
        <dc:format>image/svg+xml</dc:format>
        <dc:type
           rdf:resource="http://purl.org/dc/dcmitype/StillImage" />
        <dc:title />
      </cc:Work>
    </rdf:RDF>
  </metadata>
  <defs
     id="defs40">
    <linearGradient
       id="linearGradient852"
       osb:paint="solid">
      <stop
         style="stop-color:#000000;stop-opacity:1;"
         offset="0"
         id="stop850" />
    </linearGradient>
    <linearGradient
       inkscape:collect="always"
       xlink:href="#linearGradient852"
       id="linearGradient854"
       x1="-0.49991894"
       y1="14.198948"
       x2="187.32401"
       y2="14.198948"
       gradientUnits="userSpaceOnUse" />
  </defs>
  <sodipodi:namedview
     pagecolor="#ffffff"
     bordercolor="#666666"
     borderopacity="1"
     objecttolerance="10"
     gridtolerance="10"
     guidetolerance="10"
     inkscape:pageopacity="0"
     inkscape:pageshadow="2"
     inkscape:window-width="1600"
     inkscape:window-height="837"
     id="namedview38"
     showgrid="false"
     inkscape:zoom="1.564245"
     inkscape:cx="252.80189"
     inkscape:cy="5.9718891"
     inkscape:window-x="-8"
     inkscape:window-y="-8"
     inkscape:window-maximized="1"
     inkscape:current-layer="g43" />
  <g
     id="g61"
     transform="matrix(3.2212648,0,0,3.2212648,-59.225978,125.81011)">
    <g
       id="g41">
      <g
         id="g60"
         transform="translate(-9.6687821,-34.212614)">
        <g
           id="g103">
          <g
             style="stroke:url(#linearGradient854);stroke-width:0.13069402;stroke-miterlimit:4;stroke-dasharray:none"
             id="g43">
            <g
               id="g4"
               style="fill:#ffffff;stroke:#ffffff;stroke-width:0.13069402;stroke-miterlimit:4;stroke-dasharray:none"
               transform="matrix(1.1755105,0,0,1.1755105,-4.923911,-4.993565)">
              <path
                 id="path2"
                 d="m 64.497,11.663 c 1.282,-0.014 2.564,-0.038 3.847,-0.066 0.008,1.661 0.032,3.322 0.044,4.987 0.973,-0.005 1.945,-0.009 2.922,-0.005 -0.012,1.008 -0.024,2.02 -0.032,3.028 -0.945,-0.005 -1.889,-0.014 -2.834,-0.033 0.016,1.945 0.044,3.885 0.06,5.825 l 2.299,0.028 c 0.02,0.984 0.04,1.968 0.064,2.953 -1.612,-0.038 -3.244,0.114 -4.843,-0.199 -0.639,-0.071 -1.146,-0.729 -1.154,-1.486 -0.265,-2.347 -0.145,-4.722 -0.177,-7.084 -0.47,0.005 -0.937,0.009 -1.403,0.019 -0.056,-0.994 -0.121,-1.987 -0.185,-2.981 0.502,-0.005 1.009,-0.014 1.511,-0.019 a 304.578,304.578 0 0 1 -0.119,-4.967 z m 23.309,-0.086 c 1.298,-0.024 2.593,-0.057 3.895,-0.066 A 839.678,839.678 0 0 0 91.508,28.385 541.233,541.233 0 0 0 87.685,28.38 c 0.105,-5.598 0.105,-11.2 0.121,-16.803 z m 5.539,-0.047 c 1.294,0.009 2.589,0.028 3.887,0.052 a 540.326,540.326 0 0 0 -0.285,16.746 c -1.286,0.024 -2.572,0.033 -3.859,0.057 0.088,-5.617 0.233,-11.234 0.257,-16.855 z m 39.185,-1.333 c 1.158,-0.724 3.155,-0.028 3.019,1.784 -0.229,2.224 -2.91,2.484 -3.995,0.979 -0.41,-1.079 0.056,-2.332 0.976,-2.763 z M 28.217,15.523 c 0.374,-2.461 2.597,-3.719 4.546,-3.762 4.144,-0.151 8.292,-0.062 12.436,-0.166 0.024,1.079 0.056,2.158 0.08,3.241 -3.364,-0.066 -6.729,0.028 -10.097,0.009 -0.9,0.085 -2.667,-0.057 -3.302,0.875 -0.405,0.54 -0.46,1.562 0.299,2.319 2.652,0.885 8.405,-0.388 12.456,1.032 2.81,0.866 3.489,5.735 1.419,7.893 -1.27,1.117 -2.946,1.226 -4.474,1.282 -4.192,0.047 -8.389,-0.038 -12.585,0.137 -0.084,-1.046 -0.161,-2.091 -0.249,-3.132 3.871,-0.038 7.741,-0.057 11.612,-0.123 0.953,-0.085 2.263,-0.033 2.693,-1.282 0.506,-0.918 -0.43,-1.907 -1.113,-2.196 -3.517,-0.677 -7.159,0.402 -10.652,-0.563 -2.08,-0.543 -3.567,-3.075 -3.069,-5.564 z m 71.362,0.965 c 3.099,0.123 6.206,-0.17 9.297,0.099 1.375,0.189 3.139,0.667 3.553,2.475 0.354,1.945 0.221,3.979 -0.004,5.934 -0.173,1.926 -1.865,2.858 -3.304,3.114 -2.267,0.374 -4.562,0.265 -6.841,0.246 -1.19,-0.066 -2.597,-0.147 -3.404,-1.325 -0.699,-1.273 -0.744,-3.421 0.667,-4.041 3.051,-1.334 6.383,-1.424 9.47,-2.636 -0.732,-0.364 -1.479,-0.771 -2.291,-0.767 -2.408,-0.071 -4.819,0.043 -7.227,-0.005 l 0.084,-3.094 m 2.13,8.839 c 1.929,0.237 3.891,0.355 5.824,0.095 0.989,-0.014 1.065,-1.438 1.515,-2.181 -2.455,0.629 -5.032,0.823 -7.339,2.086 z m 10.636,-9.051 c 1.383,-0.024 2.765,-0.038 4.148,-0.038 1.503,3.095 3.103,6.123 4.61,9.218 1.692,-3.147 3.626,-6.095 5.346,-9.218 1.399,0 2.802,-0.009 4.204,-0.019 a 743.423,743.423 0 0 0 -5.326,8.957 c -0.78,1.235 -1.588,2.759 -2.982,3.043 -1.58,0.312 -3.618,0.35 -4.598,-1.438 -1.958,-3.383 -3.549,-7.041 -5.402,-10.505 z m 19.032,0.236 c 1.29,-0.052 2.581,-0.099 3.875,-0.147 -0.221,4.003 -0.414,8.011 -0.631,12.019 a 560.334,560.334 0 0 0 -3.875,-0.062 c 0.233,-3.936 0.37,-7.877 0.631,-11.81 z m 5.784,2.037 c 1.399,-2.21 4.044,-2.087 6.146,-2.153 2.179,0.147 4.514,-0.383 6.564,0.7 1.085,0.601 1.113,2.205 0.977,3.407 -0.165,1.103 -1.15,1.59 -1.961,1.855 -2.946,0.885 -5.997,1.164 -8.931,2.101 0.784,0.497 1.624,0.927 2.536,0.88 2.54,0.033 5.085,-0.17 7.629,-0.109 -0.06,1.05 -0.117,2.101 -0.173,3.151 -3.429,-0.071 -6.869,0.147 -10.286,-0.203 -1.351,-0.17 -3.139,-0.913 -3.187,-2.811 -0.038,-2.271 -0.086,-4.694 0.686,-6.818 m 2.898,3.066 c 2.48,-0.502 4.988,-0.932 7.388,-1.864 -1.869,-0.44 -3.798,-0.568 -5.692,-0.312 -1.013,0.014 -1.222,1.391 -1.696,2.176 z m 10.667,-5.601 c 1.447,0.009 2.894,0.014 4.345,0.009 1.322,3.128 2.785,6.17 4.144,9.279 1.31,-3.104 2.633,-6.199 4.032,-9.246 1.314,0.028 2.633,0.038 3.951,0.028 0.8,3.057 1.596,6.118 2.331,9.199 1.994,-3.019 3.847,-6.161 5.856,-9.161 1.427,0.009 2.858,0.024 4.289,0.024 -2.267,3.317 -4.341,6.809 -6.624,10.112 -1.407,2.172 -4.369,2.882 -6.238,1.173 -1.262,-1.916 -1.419,-4.472 -1.998,-6.724 -0.736,1.694 -1.371,3.445 -2.15,5.11 -1.21,3.256 -5.76,3.374 -7.159,0.26 -1.712,-3.277 -2.986,-6.84 -4.779,-10.063 z m -78.411,3.351 c 0.547,-2.082 2.649,-2.546 4.253,-2.655 2.552,-0.095 5.145,-0.369 7.669,0.161 2.05,0.251 2.942,4.363 0.796,5.214 -3.043,1.211 -6.311,1.344 -9.369,2.513 0.768,0.483 1.592,0.909 2.484,0.852 2.564,0.009 5.129,-0.076 7.693,-0.071 -0.012,0.998 -0.02,1.997 -0.028,2.995 -3.195,-0.052 -6.391,0.095 -9.582,-0.071 -1.527,-0.104 -3.481,-0.658 -3.923,-2.655 -0.254,-2.072 -0.286,-4.216 0.007,-6.283 m 4.273,0.312 c -0.523,0.544 -0.659,1.41 -0.957,2.125 2.436,-0.573 4.908,-1.008 7.275,-1.916 C 80.86,19.18 78.67,19.279 76.588,19.677 Z m -14.186,5.897 c -0.547,2.082 -2.649,2.546 -4.253,2.655 -2.552,0.095 -5.145,0.369 -7.669,-0.161 -2.05,-0.251 -2.942,-4.363 -0.796,-5.214 3.043,-1.211 6.311,-1.344 9.369,-2.513 -0.768,-0.483 -1.592,-0.909 -2.484,-0.852 -2.564,-0.009 -5.129,0.076 -7.693,0.071 0.012,-0.998 0.02,-1.997 0.028,-2.995 3.195,0.052 6.391,-0.095 9.582,0.071 1.527,0.104 3.481,0.658 3.923,2.655 0.254,2.072 0.286,4.216 -0.007,6.283 m -4.273,-0.312 c 0.523,-0.544 0.659,-1.41 0.957,-2.125 -2.436,0.573 -4.908,1.008 -7.275,1.916 2.045,0.706 4.236,0.607 6.318,0.209 z M 183.778,14.059 h -0.823 v 2.333 h -0.58 v -2.333 h -0.853 v -0.483 h 2.256 z m 3.048,2.333 h -0.58 v -2.287 l -0.502,2.287 h -0.58 l -0.503,-2.276 v 2.276 h -0.58 v -2.816 h 0.848 l 0.523,2.156 0.529,-2.156 h 0.843 v 2.816 z"
                 inkscape:connector-curvature="0"
                 style="fill:#ffffff;stroke:#ffffff;stroke-width:0.13069402;stroke-miterlimit:4;stroke-dasharray:none" />
            </g>
            <path
               id="path34"
               d="m 110.57613,5.1804838 h -2.62755 v -9.9459989 h 9.67563 c 1.67196,0 2.97762,1.3259765 3.02382,3.1997427 v 6.7474293 h -2.48176 V -1.001529 c 0,-0.9192499 -0.48322,-1.5563773 -1.29776,-1.641014 -0.44671,-0.045851 -0.89922,-0.00811 -1.38353,-0.00811 v 7.8312384 h -2.59682 v -7.8865183 h -2.31203 z m 39.95523,0 h -2.62693 v -9.9459989 h 9.67548 c 1.67256,0 2.97911,1.3259765 3.02462,3.1997427 v 6.7474293 h -2.48139 V -1.001529 c 0,-0.9192499 -0.48325,-1.5563773 -1.29765,-1.641014 -0.44679,-0.045851 -0.89925,-0.00811 -1.38356,-0.00811 v 7.8312389 h -2.59695 v -7.8865118 h -2.3124 z M 78.766622,1.3871093 81.33864,5.1804838 H 78.388136 L 76.12759,1.4917308 h -2.513233 v 3.688753 h -2.588468 v -9.9459989 h 7.16356 c 1.844352,0.00104 3.165658,1.8608321 2.79419,3.86743137 -0.204537,1.10850681 -0.84169,1.78795196 -1.779743,2.14295843 -0.130458,0.049351 -0.263283,0.086966 -0.437274,0.1422346 z m -5.147575,-1.67862885 h 3.414877 c 0.178677,-0.002089 0.364403,-0.0893521 0.533674,-0.16927398 0.37615,-0.17985255 0.635952,-0.4666777 0.638304,-0.96627017 0.001,-0.5301557 -0.171624,-0.9509892 -0.627738,-1.1437738 A 2.2334692,2.2334692 0 0 0 76.768258,-2.7506911 H 73.619047 Z M 106.47814,5.1769596 H 99.879984 A 4.6832371,4.6832371 0 0 1 98.415295,4.9054167 c -1.216653,-0.4278862 -1.852614,-1.5023033 -1.78207,-2.8929339 0.07271,-1.42119399 0.875762,-2.51206812 2.080644,-2.80124394 0.280951,-0.0669968 0.57366,-0.10110336 0.861646,-0.10344052 h 4.209525 c 0.1153,0 -0.11533,0 0,0 -0.0144,-1.08499744 -0.81456,-1.96310374 -1.83841,-1.96780434 h -4.603392 v -1.9055084 h 5.385102 c 2.06884,0 3.68626,1.7315262 3.74849,4.04023099 V 5.1769608 Z m -2.60842,-4.19657631 h -3.23039 c -0.68412,0 -1.149627,0.45844891 -1.160217,1.14142351 -0.008,0.6641622 0.438487,1.1026294 1.134377,1.1038038 h 3.25506 c 0.001,10e-4 0.001,-1.4458792 0.001,-2.24522731 z M 28.685145,5.1769596 V 3.2232591 h 5.811735 c 0.537187,0 0.863996,-0.2985784 0.979185,-0.8886864 0.08456,-0.4349406 -0.158675,-0.8792834 -0.62653,-1.0744186 A 1.8502536,1.8502536 0 0 0 34.173577,1.1190948 H 30.58827 c -1.46231,-0.024674 -2.316925,-0.99801109 -2.44857,-2.7295394 -0.102264,-1.3483116 0.785254,-2.8870552 1.9866,-3.1562476 h 7.644366 v 2.0042473 h -0.367948 c -1.705662,0 -3.411314,-0.00108 -5.115826,0.00215 -0.161019,0 -0.325586,0.01529 -0.483133,0.047041 a 0.94276035,0.94276035 0 0 0 -0.772299,0.79347 1.1590559,1.1590559 0 0 0 0.41495,1.09087443 0.63830259,0.63830259 0 0 0 0.38673,0.12342702 h 3.862738 c 0.958064,0.030538 1.857303,0.3056339 2.34397,1.35889173 C 38.888582,2.4930908 38.234985,5.1356425 35.73467,5.1756079 Z M 141.19245,-4.7655151 c 0.99206,0.036402 1.95703,0.163396 2.85973,0.6288975 1.25559,0.6477065 2.19374,1.6668753 2.46044,3.2114976 0.33514,1.9466464 0.024,3.7651619 -1.36503,5.1546154 -0.78977,0.7887696 -1.78872,1.1367198 -2.81251,1.3342077 -1.58965,0.3056337 -3.11096,0.017679 -4.55217,-0.7958239 -1.34799,-0.7605496 -1.91324,-2.0783018 -2.06596,-3.6746458 -0.0737,-0.80287437 -0.0574,-1.6069249 0.16185,-2.3874652 0.52801,-1.8373227 1.75246,-2.7789083 3.35397,-3.1821092 0.63936,-0.1622192 1.00717,-0.2644904 1.95968,-0.2891741 z m 2.89267,5.19928609 c -0.007,-0.1810294 -0.012,-0.3632337 -0.02,-0.54426181 -0.0728,-1.35771498 -0.78749,-2.38276248 -1.89844,-2.70837908 -0.65125,-0.1904337 -1.31191,-0.1692725 -1.96295,-0.016462 -0.94543,0.2209949 -1.56348,0.869877 -1.83378,1.9019764 -0.21509,0.82168223 -0.21509,1.66922561 -0.0872,2.5050129 0.14593,0.9709734 0.67107,1.6304341 1.50699,1.8902247 a 4.9371477,4.9371477 0 0 0 1.57149,0.2010118 c 1.7846,-0.048184 2.7718,-1.2401649 2.72956,-3.22912985 z M 69.625837,-0.77700587 V 1.1120404 h -6.165543 c 0.01634,1.1931458 0.768789,2.0418637 1.786767,2.0430402 1.322487,0.002 4.332926,0 4.332926,0 v 2.0148263 h -4.98415 c -2.47797,-0.1281304 -3.988533,-2.0841836 -3.905063,-4.65384898 0.02694,-0.84636975 0.07755,-1.68098302 0.358532,-2.47915482 0.608928,-1.7280021 2.011315,-2.8035953 3.662908,-2.8035953 h 4.915965 v 2.0124766 c 0,0 -3.364295,-0.011779 -4.176581,-0.00811 -0.989781,0.00567 -1.813817,0.8310869 -1.944275,1.98426294 z M 46.18146,3.1468522 v -7.9123673 h 2.533206 v 9.9436532 l -6.668679,0.00304 C 41.221956,5.1848703 40.55898,4.8276416 40.042921,4.1282132 39.552748,3.464048 39.251803,2.7446358 39.272952,1.8265614 c 0.04839,-1.98543852 0.01392,-6.5910924 0.01392,-6.5910924 h 2.541468 l -0.009,6.3559901 c -0.01752,0.9333575 0.444336,1.4787952 1.215466,1.556379 z M 52.706699,1.8196993 V 5.179312 h -2.470907 v -9.9436526 h 6.745059 c 1.19316,-0.036404 2.392183,0.9603919 2.747185,2.4380101 0.518386,2.15941566 -0.827548,4.1354496 -2.83648,4.1448535 -1.276633,0.00548 -2.553242,0.001 -3.829851,0.001 z m 0.08328,-1.93606779 h 3.419582 c 0.137512,-0.002078 0.289159,-0.0999274 0.409078,-0.19043308 0.373804,-0.28212167 0.633644,-1.05325723 0.513725,-1.47526663 -0.18807,-0.6594627 -0.564208,-0.976849 -1.184871,-0.9803767 H 52.79013 Z M 95.939587,-4.7655151 v 1.9066788 h -4.336412 c -0.735857,0.023532 -1.365923,0.4126038 -1.796182,1.0908737 -0.146905,0.232752 -0.237434,0.525453 -0.257446,0.92395225 h 6.280796 V 1.2613303 H 89.52608 v 3.9203266 h -2.561445 v -5.87872793 c 0,-2.12650047 1.440029,-3.99791337 3.344333,-4.06726957 z m 38.990543,7.9946512 v 1.9513477 h -4.68636 c -1.94222,0 -3.4199,-1.2777749 -3.89261,-3.3936985 -0.36782,-1.65041817 -0.19825,-3.3196461 0.63604,-4.7572955 0.69466,-1.1966722 1.71137,-1.7914799 2.99176,-1.7950049 h 5.00062 v 1.9666291 h -4.24595 c -0.83246,0 -1.36958,0.4314132 -1.64572,1.3118706 -0.32221,1.02622187 -0.37726,2.17116916 -0.0738,3.2220785 0.27832,0.973322 0.9436,1.494073 1.85332,1.494073 z m -12.70244,-7.9946512 h 2.74103 v 9.9530523 h -2.74103 z m 40.49177,1.4999509 c 0,-0.9392321 0.69352,-1.4999509 1.49854,-1.4999509 0.80402,0 1.49774,0.564245 1.49774,1.4999509 0,0.9404097 -0.69372,1.518762 -1.49774,1.518762 -0.80504,0 -1.49854,-0.5783523 -1.49854,-1.518762 z m 2.68586,0 c 0,-0.7452747 -0.51808,-1.2248835 -1.18856,-1.2248835 -0.66998,0 -1.18937,0.4796088 -1.18937,1.2248835 0,0.7464495 0.51836,1.2425155 1.18937,1.2425155 0.67048,0 1.18856,-0.496066 1.18856,-1.2425155 z m -2.01243,0.00678 c 0,-0.5348588 0.41955,-0.875757 0.87694,-0.875757 0.28072,0 0.45837,0.1222538 0.6042,0.2680165 l -0.25041,0.2797747 c -0.0948,-0.099934 -0.18696,-0.1575189 -0.3103,-0.1575189 -0.28674,0 -0.43962,0.2151188 -0.43962,0.4843116 0,0.3079832 0.16076,0.5019429 0.41519,0.5019429 0.15265,0 0.24996,-0.063487 0.3652,-0.1539924 l 0.2152,0.3091628 a 0.92865394,0.92865394 0 0 1 -0.59833,0.2362771 c -0.50807,0.00107 -0.8781,-0.3408979 -0.8781,-0.8922122 z"
               inkscape:connector-curvature="0"
               style="fill:#ffffff;stroke:#ffffff;stroke-width:0.15363222;stroke-miterlimit:4;stroke-dasharray:none" />
          </g>
        </g>
      </g>
    </g>
  </g>
</svg>
