<?xml version="1.0" encoding="UTF-8" standalone="no"?>
<svg
   xmlns:dc="http://purl.org/dc/elements/1.1/"
   xmlns:cc="http://creativecommons.org/ns#"
   xmlns:rdf="http://www.w3.org/1999/02/22-rdf-syntax-ns#"
   xmlns:svg="http://www.w3.org/2000/svg"
   xmlns="http://www.w3.org/2000/svg"
   xmlns:sodipodi="http://sodipodi.sourceforge.net/DTD/sodipodi-0.dtd"
   xmlns:inkscape="http://www.inkscape.org/namespaces/inkscape"
   width="412.64157pt"
   height="197.48189pt"
   viewBox="0 0 412.64157 197.48189"
   version="1.1"
   id="svg2"
   inkscape:version="0.92.4 (5da689c313, 2019-01-14)"
   sodipodi:docname="system.svg">
  <metadata
     id="metadata1794">
    <rdf:RDF>
      <cc:Work
         rdf:about="">
        <dc:format>image/svg+xml</dc:format>
        <dc:type
           rdf:resource="http://purl.org/dc/dcmitype/StillImage" />
        <dc:title></dc:title>
      </cc:Work>
    </rdf:RDF>
  </metadata>
  <defs
     id="defs1792" />
  <sodipodi:namedview
     pagecolor="#ffffff"
     bordercolor="#666666"
     borderopacity="1"
     objecttolerance="10"
     gridtolerance="10"
     guidetolerance="10"
     inkscape:pageopacity="0"
     inkscape:pageshadow="2"
     inkscape:window-width="1600"
     inkscape:window-height="837"
     id="namedview1790"
     showgrid="false"
     inkscape:zoom="1.8842575"
     inkscape:cx="317.33873"
     inkscape:cy="118.13239"
     inkscape:window-x="-8"
     inkscape:window-y="-8"
     inkscape:window-maximized="1"
     inkscape:current-layer="svg2" />
  <path
     style="fill:#ffffff;stroke:#000000;stroke-width:1.07325001;stroke-miterlimit:4;stroke-dasharray:none"
     d="m 4.379146,0.19981738 c -2.636074,-0.01276 -4.26031002,0.128914 -4.17920002,0.366211 0.07297,0.213492 1.47529402,1.37034002 3.11718802,2.57080002 1.641893,1.200464 3.119988,2.191173 3.28418,2.200196 0.16419,0.009 0.298828,-0.858376 0.298828,-1.926269 0,-1.563077 0.174047,-2.063482 0.895019,-2.56640702 0.838224,-0.584716 0.619873,-0.624994 -3.416015,-0.644531 z m 119.649914,1.09130802 -2.03907,1.434082 c -1.12185,0.788536 -2.20168,1.434083 -2.39941,1.434083 -0.19776,0 -0.46284,0.267812 -0.58887,0.596191 -0.12602,0.328379 -0.42237,0.597657 -0.65772,0.597657 -0.23535,0 -0.84539,0.40245 -1.35645,0.895019 -0.88917,0.856999 -0.94026,1.22113 -1.18506,8.4580076 -0.1407,4.159464 -0.42201,11.772875 -0.62547,16.917478 -0.20349,5.144596 -0.37878,28.48348 -0.38967,51.86427 l -0.0205,42.509767 1.39306,0.583 c 0.76622,0.32015 1.39307,0.75814 1.39307,0.97412 0,0.21599 0.27412,0.39256 0.60937,0.39258 0.33525,0 0.71334,0.26928 0.83936,0.59766 0.12604,0.32838 0.48358,0.59619 0.7954,0.59619 0.31184,0 0.67088,0.26928 0.79689,0.59766 0.12601,0.32838 0.53502,0.59619 0.90966,0.59619 0.37466,0 1.38636,0.63024 2.24708,1.40039 0.86071,0.77014 2.32594,1.77166 3.25634,2.22509 0.93041,0.45344 1.6919,0.98714 1.6919,1.18652 0,0.19939 0.20907,0.36329 0.46435,0.36329 0.25529,0 0.7475,0.27976 1.09424,0.62109 0.84873,0.83548 4.78771,3.35889 5.24268,3.35889 0.1998,0 0.36328,0.18435 0.36328,0.40869 0,0.22433 0.44733,0.57708 0.99463,0.78516 0.5473,0.20808 0.99463,0.56227 0.99463,0.78661 0,0.22437 0.24186,0.40723 0.5376,0.40723 0.29572,0 1.68837,0.87117 3.09375,1.93506 1.40537,1.06389 2.95429,2.0614 3.44238,2.21631 0.48808,0.15492 0.88771,0.44769 0.88769,0.65186 0,0.20416 0.25966,0.37207 0.57715,0.37207 0.31751,0 0.71995,0.23988 0.89502,0.5332 0.29157,0.48851 2.7228,2.0889 5.11816,3.36914 0.53436,0.2856 0.97266,0.68805 0.97266,0.89502 0,0.20697 0.20319,0.37647 0.45263,0.37647 0.24946,0 1.29019,0.51413 2.31153,1.14258 1.02136,0.62844 2.29479,1.28188 2.83008,1.45166 0.53529,0.16977 2.35411,1.36008 4.04296,2.64551 1.68885,1.28544 3.6546,2.45445 4.36818,2.59717 0.71355,0.14271 1.48193,0.41007 1.70654,0.59473 0.22462,0.18467 1.21359,0.95855 2.19873,1.71973 2.04796,1.58238 2.11618,1.60267 2.78613,0.7954 0.27253,-0.32837 1.01068,-0.59765 1.64062,-0.59765 0.62996,0 1.14552,-0.16243 1.14552,-0.36182 0,-0.19939 0.81201,-0.75578 1.80468,-1.23633 0.99267,-0.48054 2.02779,-1.07961 2.2998,-1.33008 0.80367,-0.74001 3.00708,-2.2456 3.28565,-2.2456 0.14155,0 0.91029,-0.51131 1.708,-1.13525 2.41601,-1.88968 5.59935,-4.04005 5.98095,-4.04005 0.19778,0 0.46287,-0.26781 0.58887,-0.59619 0.12602,-0.32838 0.4836,-0.59764 0.79542,-0.59766 0.31182,0 0.67086,-0.26781 0.79688,-0.59619 0.12601,-0.32838 0.41503,-0.59766 0.64306,-0.59766 0.38175,0 2.15765,-1.17173 6.13917,-4.05176 0.85379,-0.61759 1.78515,-1.12207 2.06982,-1.12207 0.28464,0 0.65988,-0.23865 0.83496,-0.52881 0.17507,-0.29016 0.61485,-0.63624 0.97704,-0.76904 1.52871,-0.56044 1.67474,-3.03541 1.81935,-30.94337 0.12585,-24.287475 0.076,-27.034777 -0.52149,-28.602527 -0.92247,-2.42039 -0.95538,-5.7272 -0.0659,-6.71192 0.96635,-1.06986 0.89417,-3.45961 -0.14796,-4.86915 -0.84129,-1.13792 -0.84412,-1.20052 -0.41014,-13.01952 0.23983,-6.53187 0.6201,-12.500855 0.8452,-13.265625 0.60833,-2.066708 0.49835,-8.680064 -0.17578,-10.55127 -0.40386,-1.121033 -0.5795,-3.440843 -0.5918,-7.838378 -0.0174,-6.205805 -0.24306,-7.260197 -1.36083,-6.332521 -0.55026,0.456669 -3.75256,-0.534306 -4.32129,-1.337401 -0.16084,-0.227118 -0.29583,-2.405835 -0.29883,-4.84131 l -0.006,-4.428223 -1.0957,-0.228516 c -1.73655,-0.362148 -3.28272,-2.0700786 -3.28272,-3.6254876 0,-0.818975 -0.23123,-1.423843 -0.59766,-1.564453 -0.32838,-0.126012 -0.59619,-0.527214 -0.59619,-0.89209 0,-0.364876 -0.49368,-1.131212 -1.09569,-1.703613 -1.0629,-1.010596 -1.26249,-1.0451 -6.92286,-1.168946 -5.02271,-0.109894 -5.90435,-0.03731 -6.36914,0.525879 -0.29668,0.359487 -0.84199,0.988989 -1.21288,1.398926 -0.37092,0.409936 -0.79647,1.393207 -0.94482,2.184082 -0.53139,2.832288 -3.12384,3.289009 -5.49756,0.968262 -1.14792,-1.122306 -1.33787,-1.16748 -4.89992,-1.16748 -2.86596,0 -3.70605,0.123224 -3.70605,0.543456 0,0.298857 -0.36379,1.00629 -0.8086,1.571778 -0.73058,0.928785 -0.81072,1.615727 -0.8291,7.1176756 -0.0151,4.512496 -0.15909,6.246126 -0.55518,6.688476 -0.324,0.361848 -0.57363,1.772313 -0.6328,3.581546 l -0.0967,2.985353 2.5547,0.25488 c 5.2785,0.524835 8.50926,1.16385 8.83593,1.74756 0.18027,0.322147 0.53259,0.584467 0.78222,0.584467 0.24966,0 1.13614,0.75414 1.97022,1.675785 l 1.51611,1.675778 v 28.7124 c 0,28.206752 0.0134,28.725362 0.79542,29.433112 0.43783,0.39624 0.79687,1.12138 0.79687,1.61133 0,0.48994 0.26781,0.99312 0.59619,1.11913 0.77772,0.29842 0.81104,3.85644 0.0498,5.349625 -0.35118,0.68884 -0.61227,3.00442 -0.72802,6.44824 -0.13334,3.96675 -0.35465,5.70708 -0.84522,6.64746 -0.52805,1.0122 -0.66504,2.41443 -0.66504,6.82617 v 5.55176 l -1.604,0.83642 c -0.88242,0.45995 -1.74457,0.83643 -1.91455,0.83643 -0.63063,0 -2.8511,-2.12861 -2.86377,-2.74512 -0.008,-0.40723 -1.30632,-1.25446 -3.58155,-2.33789 -1.96305,-0.93477 -3.56982,-1.87577 -3.56982,-2.09033 0,-0.21459 -0.33603,-0.38965 -0.74706,-0.38965 -0.41105,0 -0.96966,-0.26927 -1.2422,-0.59765 -0.27253,-0.32838 -0.99847,-0.59619 -1.61278,-0.59619 -0.61433,0 -1.35428,-0.22614 -1.64355,-0.50245 -0.28929,-0.27627 -1.69323,-1.25636 -3.12012,-2.17676 -1.42692,-0.9204 -3.03819,-2.22852 -3.58155,-2.90772 -0.54336,-0.67917 -1.30146,-1.5306 -1.68456,-1.89258 -0.38311,-0.36198 -0.69727,-0.82305 -0.69727,-1.02391 0,-0.20087 -0.29759,-0.58307 -0.66212,-0.84962 -0.48222,-0.35262 -0.74913,-1.44855 -0.97998,-4.02393 -0.17448,-1.94677 -0.49336,-4.43518 -0.70752,-5.529785 -0.22563,-1.15339 -0.39933,-12.05245 -0.41308,-25.921872 -0.0208,-21.01598 -0.10148,-24.143355 -0.6665,-25.672855 -0.41644,-1.12731 -0.71665,-3.610668 -0.84961,-7.040028 -0.20237,-5.219542 -0.18839,-5.331562 0.92431,-7.530765 1.47972,-2.92461 2.45592,-3.925312 4.15137,-4.255372 2.89419,-0.563423 4.7754,-1.2159 4.7754,-1.656735 0,-0.251063 0.37243,-0.929048 0.82617,-1.505865 l 0.8247,-1.048823 -0.8247,-1.04883 c -0.45374,-0.576818 -0.82617,-1.395385 -0.82617,-1.819337 0,-0.423952 -0.28986,-1.060362 -0.64455,-1.415039 -0.49917,-0.499185 -0.59433,-1.129251 -0.42333,-2.786131 0.1215,-1.177239 0.39996,-2.355924 0.61962,-2.620607 0.49996,-0.602416 -0.64145,-5.1982976 -1.64355,-6.6181646 -0.38202,-0.541279 -0.69434,-1.123248 -0.69434,-1.293456 0,-0.642416 -1.6267,-1.901367 -2.45653,-1.901367 -0.47535,0 -1.17534,-0.281294 -1.55568,-0.625489 -0.55188,-0.499454 -0.9783,-0.547234 -2.11668,-0.23291 -0.8583,0.236982 -1.51659,0.248977 -1.65235,0.0293 -0.1241,-0.200798 -0.61898,-0.366326 -1.09863,-0.367676 -0.47966,-0.0014 -1.32941,-0.2423 -1.88966,-0.534668 -0.56023,-0.292369 -1.78294,-0.653562 -2.71581,-0.802735 -0.93288,-0.149172 -2.10975,-0.542664 -2.61621,-0.874511 -0.69238,-0.453666 -2.15322,-0.609556 -5.88867,-0.628418 z m -63.084975,0.08057 c -3.07638,0 -4.027371,0.156483 -5.47558,0.896484 -2.59019,1.32352 -3.39112,2.646922 -3.39112,5.604493 V 10.32775 l -1.393063,0.112793 c -1.047503,0.08443 -1.245803,0.01134 -0.796875,-0.292969 0.512925,-0.3476926 0.49881,-0.4049056 -0.09961,-0.4101556 -0.383107,-0.0034 -0.695805,-0.304568 -0.695805,-0.669434 0,-0.364861 -0.116737,-0.54684 -0.259275,-0.404297 -0.142545,0.142544 -0.468247,-0.02721 -0.72363,-0.376465 -0.42351,-0.579186 -0.523027,-0.575607 -1.13379,0.03516 -0.368295,0.368293 -0.669435,1.219241 -0.669435,1.8911136 0,0.67187 -0.376132,2.04655 -0.83496,3.055663 -1.795837,3.949653 -2.557582,5.439234 -3.041017,5.944336 -0.27687,0.289286 -0.50244,0.864035 -0.50244,1.278809 0,0.414774 -0.293115,1.367478 -0.650393,2.116697 -0.600772,1.259835 -0.600772,1.50636 0,3.269535 0.731783,2.147663 0.868688,5.346675 0.228518,5.346675 -0.23181,0 -0.320745,0.162825 -0.197753,0.361823 0.122993,0.199005 -0.03405,1.318057 -0.348637,2.4873 -0.31458,1.169242 -0.583253,1.957981 -0.597653,1.751955 -0.01441,-0.206033 -0.268792,-0.04477 -0.563962,0.358891 -0.327443,0.447591 -0.753825,0.621855 -1.094243,0.445311 -0.306862,-0.159135 -0.209617,-0.0077 0.215333,0.336909 0.42495,0.34461 0.570105,0.625491 0.322267,0.625491 -0.247845,0 -0.595042,-0.22293 -0.770512,-0.496581 -0.497505,-0.77589 -1.953405,-7.881076 -2.235345,-10.908691 -0.04392,-0.47166 -0.187778,-0.790298 -0.319335,-0.708983 -0.131574,0.08131 -0.34908,-1.656443 -0.483405,-3.861332 -0.134334,-2.204895 -0.444414,-4.251033 -0.689941,-4.546875 -0.245528,-0.295841 -0.314475,-0.752802 -0.15234,-1.015137 0.186487,-0.301737 0.126645,-0.373026 -0.164063,-0.193359 -0.302654,0.187053 -0.459959,-0.07099 -0.459959,-0.757323 0,-0.585306 0.17304,-0.934929 0.394042,-0.798341 0.216397,0.133751 0.299842,-7.5e-4 0.18603,-0.297364 -0.113813,-0.296592 0.06759,-1.195704 0.402832,-1.998045 0.751689,-1.799035 0.784434,-3.8785696 0.07618,-4.8471696 -0.502748,-0.687532 -0.628283,-0.643721 -2.185553,0.763184 -1.328558,1.200266 -1.606208,1.680224 -1.41357,2.4477536 0.144097,0.574128 -0.01592,1.343845 -0.40137,1.932129 -0.872831,1.332104 -0.837885,1.491378 0.738285,3.37793 0.758437,0.907788 1.497337,2.281164 1.642087,3.052734 0.283733,1.512433 -0.3141,3.33252 -1.094242,3.33252 -0.574958,0 -3.31674,-2.847602 -3.190427,-3.313476 0.04893,-0.180459 -0.06475,-0.232326 -0.253417,-0.115722 -0.188667,0.116601 -0.730586,-0.05945 -1.204102,-0.391115 -0.732462,-0.513037 -0.861328,-0.988501 -0.861328,-3.190429 0,-1.604082 0.150174,-2.495934 0.394043,-2.345214 0.233721,0.144447 0.286056,-0.03521 0.130371,-0.440919 -0.167374,-0.436167 -0.106678,-0.586619 0.166992,-0.417481 0.272631,0.168494 0.352251,-0.02496 0.219727,-0.531738 -0.114576,-0.438141 -0.538757,-0.796876 -0.94336,-0.796876 -1.097714,0 -1.563066,-1.2499336 -1.297851,-3.4892576 0.216853,-1.830986 0.151899,-2.053952 -0.782227,-2.666015 -1.146404,-0.751153 -6.298822,-1.770414 -9.058594,-1.791504 -1.695574,-0.01296 -1.873901,0.08802 -2.667481,1.5 -0.828147,1.47349 -0.839817,1.68002 -0.395507,7.8603516 0.879127,12.228605 0.441433,45.137597 -0.591797,44.499017 -0.271848,-0.168 -0.31548,0.24962 -0.130371,1.23633 0.190191,1.01382 0.144575,1.40562 -0.143555,1.22754 -0.232882,-0.14393 -0.42334,0.003 -0.42334,0.32667 0,0.32339 -0.119939,0.901 -0.266601,1.2832 -0.181805,0.47377 -0.118274,0.60344 0.199218,0.40722 0.256122,-0.15829 0.465821,-0.10905 0.465821,0.10987 0,0.65385 -0.833856,0.96643 -1.309571,0.49072 -0.885458,-0.88546 -1.53315,-0.49633 -1.403321,0.84375 0.114401,1.18082 0.239817,1.28745 1.517579,1.29345 1.216934,0.005 1.393067,0.13162 1.393067,0.9961 0,0.64995 -0.254249,1.03826 -0.742676,1.13233 -0.517642,0.0997 -0.648912,-0.01 -0.432129,-0.36035 0.22323,-0.3612 0.114276,-0.42843 -0.38379,-0.23731 -0.382196,0.14666 -0.859532,0.2666 -1.060547,0.2666 -0.201013,0 -0.36621,0.60482 -0.36621,1.34326 0,1.29512 0.05318,1.34071 1.492676,1.29346 1.404012,-0.0461 1.492676,0.0223 1.492676,1.14551 0,0.942 -0.154341,1.16737 -0.735352,1.06787 -0.478572,-0.0819 -0.636194,0.0366 -0.449707,0.33838 0.213857,0.34606 0.08462,0.3553 -0.505371,0.0396 -1.108266,-0.59313 -1.294922,-0.24773 -1.294922,2.40087 0,2.12454 0.07702,2.32782 0.896484,2.38332 0.492568,0.0333 1.154707,0.079 1.472168,0.10107 0.441242,0.0307 0.584223,0.68379 0.606446,2.77295 0.03322,3.12283 -0.505658,4.32676 -1.548341,3.46141 -0.357359,-0.29659 -0.778599,-0.40908 -0.9375,-0.25047 -0.376038,0.37536 -0.632267,25.248147 -0.288573,28.015137 0.193962,1.56154 0.406126,2.06548 0.807129,1.91161 0.329988,-0.12663 0.467629,-0.007 0.348632,0.30323 -0.129338,0.33705 0.114669,0.48328 0.716309,0.42919 0.502224,-0.0451 1.271634,0.2325 1.709473,0.61671 0.437839,0.38421 1.182928,0.81506 1.655273,0.95801 1.358576,0.41116 1.403432,1.3123 0.137695,2.75389 -0.642179,0.7314 -1.352828,1.81746 -1.579101,2.4126 -0.226274,0.59514 -0.572654,0.98271 -0.769043,0.86133 -0.19639,-0.12138 -0.465258,0.0607 -0.597657,0.40577 -0.325628,0.84857 -0.304108,1.55509 0.03662,1.21435 0.456499,-0.45649 1.247394,3.37053 0.927246,4.48682 -0.16312,0.56877 -0.04104,4.07827 0.270996,7.79883 0.695262,8.29005 0.213872,22.04542 -0.75,21.44971 -0.460518,-0.28462 -0.05967,1.58841 0.752931,3.51857 0.557256,1.32363 0.562362,1.64644 0.03662,2.98388 -0.324386,0.82521 -0.798983,1.4566 -1.053223,1.40185 -0.647884,-0.13947 -0.584386,0.34285 0.413086,3.18311 1.343826,3.82648 0.957627,10.937 -0.543457,10.00928 -0.327511,-0.20241 -0.377313,-0.0603 -0.165527,0.47461 0.165886,0.41902 0.403415,2.5354 0.527343,4.70361 0.178002,3.11425 0.119667,3.8764 -0.276855,3.63135 -0.369096,-0.22811 -0.430337,-0.0859 -0.232911,0.53613 0.198634,0.62584 0.09955,0.84667 -0.379394,0.84667 -0.392906,0 -0.533565,-0.18318 -0.358887,-0.46581 0.196221,-0.31749 0.06655,-0.38103 -0.407227,-0.19923 -0.382196,0.14667 -0.837595,0.26661 -1.012206,0.26661 -0.393888,0 -0.989303,10.5357 -0.628419,11.11962 0.164853,0.26675 0.805047,0.006 1.729981,-0.70164 0.808055,-0.6186 2.174442,-1.63776 3.035156,-2.26467 0.941505,-0.68574 1.358895,-1.20768 1.048829,-1.31103 -0.412643,-0.13755 -0.406591,-0.24039 0.02783,-0.51561 0.394029,-0.24966 0.285795,-0.3456 -0.395508,-0.3501 -0.698046,-0.005 -0.876,-0.17025 -0.692871,-0.64746 0.176109,-0.45891 0.07596,-0.57534 -0.354492,-0.41016 -0.46398,0.17805 -0.602052,-0.0791 -0.602052,-1.12207 2e-6,-1.63985 0.956931,-2.73146 2.081544,-2.37452 0.509472,0.1617 0.710436,0.10341 0.547851,-0.15966 -0.156267,-0.25285 0.446403,-0.52119 1.542481,-0.68556 2.169774,-0.32538 3.981692,0.5769 3.596192,1.79151 -0.185112,0.58323 -0.03437,0.72165 0.73828,0.6753 0.533843,-0.032 0.896946,-0.17826 0.807129,-0.32373 -0.08982,-0.1455 0.509234,-0.66753 1.331544,-1.16016 0.822311,-0.49264 1.829709,-1.17936 2.238282,-1.52637 0.695947,-0.59107 0.595258,-0.64266 -1.592286,-0.82911 -2.260281,-0.19264 -2.338813,-0.23716 -2.422852,-1.39305 -0.04775,-0.65673 0.01359,-0.96935 0.134766,-0.69434 0.121177,0.27501 0.403278,0.38579 0.626953,0.24756 0.256286,-0.1584 0.30689,0.0616 0.137696,0.59473 -0.253344,0.79822 -0.134369,0.84667 2.113768,0.84667 1.310362,0 2.710317,0.12348 3.11133,0.27393 0.630522,0.23655 0.659031,0.18615 0.206542,-0.3706 -0.444883,-0.5474 -0.399873,-0.71006 0.298829,-1.08399 0.451972,-0.24189 0.821776,-0.62 0.821776,-0.84082 0,-0.42423 -1.253109,-0.35177 -1.592284,0.0923 -0.109598,0.1435 -1.005725,0.31553 -1.990724,0.38086 -1.632526,0.10833 -1.782169,0.0413 -1.697753,-0.74707 0.08197,-0.76549 -0.02181,-0.82034 -0.896484,-0.48779 -0.615704,0.23406 -0.987305,0.2346 -0.987305,7.5e-4 0,-0.60274 1.473243,-1.21871 2.225097,-0.93018 0.470526,0.18055 0.598758,0.11633 0.402832,-0.20068 -0.20377,-0.32971 0.27218,-0.47344 1.627442,-0.49219 l 1.913086,-0.0264 -2.586915,-1.26708 c -2.294525,-1.12384 -2.601305,-1.41028 -2.709961,-2.53125 -0.06738,-0.69519 -0.380076,-1.47822 -0.6958,-1.74024 -0.644466,-0.53486 -0.811836,-3.35941 -0.175781,-2.96631 0.218919,0.1353 0.396972,-0.0442 0.396972,-0.39843 0,-0.35422 0.156042,-0.54787 0.345704,-0.43067 0.455089,0.28127 1.856747,-1.28095 1.483887,-1.65381 -0.158738,-0.15874 -0.828759,0.022 -1.489746,0.40137 -0.709331,0.40711 -1.139139,0.49797 -1.047365,0.22265 0.132921,-0.39876 4.909074,-3.56763 6.082032,-4.03564 0.220536,-0.088 0.08612,-0.51023 -0.300293,-0.94629 -0.383586,-0.43286 -0.599847,-0.88403 -0.480468,-1.00342 0.119379,-0.11938 -0.06829,-0.32743 -0.417481,-0.46142 -0.399462,-0.15329 -0.536124,-0.0821 -0.367676,0.19042 0.177068,0.28649 -0.02776,0.27456 -0.606445,-0.0352 -0.527372,-0.28224 -0.786204,-0.70223 -0.650391,-1.05615 0.143418,-0.37374 0.05997,-0.48536 -0.22998,-0.30615 -0.760744,0.47016 -0.03905,-3.9933 0.903808,-5.59131 0.990245,-1.67836 1.289534,-1.82365 0.730958,-0.35448 -0.571425,1.50295 0.259756,2.27695 1.105957,1.02978 0.334206,-0.49257 0.848604,-0.89649 1.142577,-0.89649 0.612531,0 1.574415,1.54743 1.423829,2.28955 -0.163634,0.80642 0.635068,0.56852 1.305175,-0.38818 0.863625,-1.233 0.81909,-1.3392 -0.968262,-2.34375 -2.057853,-1.15659 -1.771824,-1.45831 0.354494,-0.37353 1.742368,0.88887 1.914561,1.35024 1.138183,3.05419 -0.391792,0.85991 -0.391792,1.11599 0,1.24658 0.70431,0.23478 0.60885,0.91443 -0.260745,1.86328 -0.414202,0.45195 -0.866685,1.3637 -1.006345,2.02589 -0.215679,1.02261 -0.04192,1.40986 1.152835,2.56786 1.003455,0.97259 1.33659,1.58174 1.163085,2.12843 -0.153307,0.483 -0.08799,0.67131 0.175778,0.50829 0.264892,-0.16371 0.462015,0.43912 0.539062,1.64209 0.116348,1.81659 0.17859,1.90526 1.394535,2.02295 0.784966,0.076 1.201853,0.3052 1.089841,0.59766 -0.107693,0.28116 0.22473,0.49629 0.815918,0.53028 0.548085,0.0315 0.89868,-0.0998 0.779295,-0.29298 -0.119378,-0.19316 0.06016,-0.24462 0.399907,-0.11426 0.33975,0.13038 0.618165,0.39632 0.618165,0.5918 0,0.64846 0.148028,0.94671 0.84228,1.69191 0.666645,0.71556 0.74181,0.69606 2.441895,-0.60207 1.005773,-0.76796 1.676663,-1.57353 1.571783,-1.88817 -0.11073,-0.33222 -0.0056,-0.43922 0.266595,-0.27101 0.51024,0.31535 0.553335,0.16661 0.209475,-0.72949 -0.132398,-0.345 -0.40167,-0.52835 -0.597653,-0.40722 -0.195982,0.12112 -0.355957,-0.13785 -0.355957,-0.57569 0,-1.21291 0.838335,-1.47556 1.621582,-0.5083 0.747525,0.92316 1.750852,1.12419 2.176755,0.43506 0.144525,-0.23379 0.521752,-0.32549 0.839355,-0.20361 0.317632,0.12187 0.473767,0.0519 0.345705,-0.15528 -0.300653,-0.48645 5.008312,-4.42119 5.658693,-4.19385 0.271029,0.0947 0.450559,-0.0448 0.398439,-0.31053 -0.0521,-0.26577 0.2169,-0.45921 0.59765,-0.42921 0.38076,0.03 0.60742,-0.083 0.50391,-0.25049 -0.21774,-0.35232 2.92706,-2.52391 3.65479,-2.52391 0.2683,0 0.40961,-0.12516 0.31494,-0.27834 -0.27695,-0.44811 1.30894,-1.68384 1.78418,-1.39013 0.24057,0.14868 0.38448,0.0336 0.32373,-0.25927 -0.0606,-0.29184 0.15725,-0.46748 0.48779,-0.39405 0.32841,0.073 0.46203,-0.002 0.29736,-0.16698 -0.3852,-0.3852 0.888021,-1.80947 1.35792,-1.51905 0.195081,0.12057 0.3211,0.0721 0.27978,-0.10841 -0.17148,-0.7486 0.56775,-2.49376 0.95508,-2.25439 0.2487,0.15372 0.29882,0.0647 0.12304,-0.21972 -0.16213,-0.26234 -0.0905,-0.72246 0.15968,-1.02393 0.38449,-0.4633 0.62411,-0.45196 1.54687,0.0776 1.03077,0.59159 1.20979,0.56784 3.19775,-0.43067 1.15806,-0.58166 2.29518,-0.9395 2.52832,-0.79541 0.250851,0.15503 0.30825,0.0729 0.139161,-0.20068 -0.165131,-0.2672 0.0179,-0.57972 0.435069,-0.73974 0.396981,-0.15231 1.46415,-0.77778 2.37158,-1.39014 0.907419,-0.61238 1.806969,-1.11329 1.998039,-1.11329 0.19108,0 1.01894,-0.45585 1.83984,-1.01367 0.82092,-0.55782 1.71363,-0.8875 1.9834,-0.73242 0.26977,0.15506 0.35616,0.13424 0.19337,-0.0454 -0.40995,-0.45237 1.18627,-1.50537 1.75194,-1.15575 0.27471,0.16977 0.35131,0.10941 0.19044,-0.15088 -0.35541,-0.57506 3.181458,-3.00422 3.830558,-2.63087 0.27181,0.1563 0.35785,0.13446 0.1919,-0.0483 -0.35631,-0.39249 1.69166,-1.83441 2.17822,-1.53369 0.18327,0.11325 0.28427,-0.0309 0.22412,-0.32082 -0.0605,-0.29154 0.20013,-0.50328 0.58301,-0.47313 0.38075,0.03 0.60877,-0.0797 0.50683,-0.24463 -0.42851,-0.69335 3.46639,-3.03249 4.24659,-2.5503 0.26013,0.16078 0.33846,0.0987 0.18603,-0.14795 -0.43253,-0.69985 3.89473,-3.81426 4.98047,-3.58447 0.27256,0.0577 0.504189,-0.12558 0.514159,-0.40722 0.0248,-0.70172 1.01076,-1.25496 1.73877,-0.97559 0.36038,0.1383 0.49626,0.0612 0.33984,-0.19189 -0.35041,-0.56697 0.76748,-1.44995 1.3667,-1.0796 0.27785,0.17174 0.37362,0.12639 0.22852,-0.10839 -0.13699,-0.22165 0.3892,-0.74157 1.17041,-1.15576 l 1.42089,-0.7544 -0.20507,-6.76611 c -0.11231,-3.72162 -0.39095,-23.60277 -0.61963,-44.181167 -0.38622,-34.755171 -0.83549,-66.24254 -0.98145,-68.723141 -0.0342,-0.581124 -0.19616,-0.973059 -0.36035,-0.871584 -0.16419,0.101475 -0.29882,-0.821464 -0.29882,-2.0507796 0,-2.010894 -0.13001,-2.352729 -1.28614,-3.408691 -1.46715,-1.340034 -2.61126,-1.809646 -3.134769,-1.286133 -0.68878,0.688779 -1.60937,4.713787 -1.87792,8.2119136 -0.23378,3.045221 -0.3977,3.622194 -1.21583,4.284668 -1.36564,1.105833 -2.81588,1.367024 -3.96972,0.716308 -1.07817,-0.608052 -1.69382,-1.697329 -0.75586,-1.337402 0.34052,0.13067 0.56397,-0.03484 0.56397,-0.416015 0,-0.362564 -0.22548,-0.544693 -0.53028,-0.427735 -0.68344,0.262261 -0.66879,0.05733 0.10547,-1.439941 0.47191,-0.912609 0.60014,-2.048368 0.49365,-4.3930666 -0.16285,-3.586099 -0.66306,-4.286132 -3.06152,-4.286132 -1.64141,0 -5.672738,-1.203381 -5.41699,-1.617188 0.0983,-0.159111 -0.098,-0.395987 -0.436528,-0.525879 -0.41751,-0.160215 -0.51819,-0.07929 -0.31347,0.251953 0.16598,0.268549 -0.48625,-0.09237 -1.4502,-0.801269 -1.44142,-1.060032 -2.11052,-1.286017 -3.76465,-1.274415 -2.45259,0.0172 -3.286759,0.456948 -6.042479,3.184571 -1.96843,1.948364 -2.23873,2.093685 -3.23731,1.73291 -0.64722,-0.233839 -1.06804,-0.667161 -1.03564,-1.066406 0.03,-0.369721 -0.09,-0.582265 -0.2666,-0.473145 -0.17656,0.109119 -0.52813,-0.432723 -0.78222,-1.202636 -0.2541,-0.769914 -0.79527,-1.577196 -1.20118,-1.794434 -0.405919,-0.216997 -2.412709,-0.395266 -4.460449,-0.395266 z m 319.047365,0 c -0.92151,0 -2.52099,1.874073 -2.52099,2.953125 0,0.506495 -0.35903,1.375508 -0.79688,1.932129 -0.52639,0.6692 -0.7954,1.615549 -0.7954,2.791992 0,1.0958816 -0.22989,1.9696886 -0.59766,2.2749026 -0.33609,0.278938 -0.59619,1.146247 -0.59619,1.984864 0,0.887022 -0.32288,1.899358 -0.79688,2.501952 -0.43783,0.556623 -0.7954,1.374006 -0.7954,1.816407 0,0.442401 -0.24729,1.05147 -0.54933,1.353516 -0.30204,0.302046 -0.67473,1.289291 -0.82763,2.194335 -0.15291,0.905045 -0.53248,1.856915 -0.84375,2.115237 -0.31126,0.25833 -0.56686,1.029181 -0.56836,1.713863 -7.5e-4,0.684675 -0.35898,1.78221 -0.79395,2.43897 -0.47073,0.710798 -0.79098,1.868843 -0.79248,2.859375 -0.003,1.714575 -1.37607,4.455953 -2.24853,4.488278 -0.25023,0.0093 -0.55806,0.28539 -0.68409,0.61377 -0.3774,0.983491 -2.69591,0.739426 -3.94041,-0.414548 -0.97416,-0.903277 -1.09131,-1.288732 -1.09131,-3.610845 0,-1.779997 -0.18738,-2.787472 -0.59619,-3.19629 -0.33273,-0.33273 -0.59766,-1.305367 -0.59766,-2.19726 0,-0.997732 -0.29913,-1.980907 -0.79542,-2.611823 -0.43784,-0.55662 -0.79687,-1.577169 -0.79687,-2.267574 0,-1.193847 -0.50312,-2.397929 -2.22071,-5.302734 -0.94509,-1.598337 -1.22078,-1.610157 -2.07568,-0.09082 -0.5124,0.910652 -0.92051,1.1777 -1.66992,1.094238 -1.07769,-0.120019 -1.42023,-0.962497 -1.02686,-2.529784 0.149,-0.593645 0.53036,-0.963867 0.99317,-0.963867 0.55527,0 0.69733,-0.207005 0.54345,-0.795411 -0.11451,-0.437838 -0.45594,-0.796876 -0.75879,-0.796876 -0.30284,0 -0.55364,-0.133173 -0.55664,-0.297363 -0.003,-0.164189 -0.17134,-0.560697 -0.37354,-0.880372 -0.63953,-1.0110836 -2.00829,0.61411 -2.00829,2.384768 0,0.814941 -0.25698,1.696179 -0.57129,1.95703 -0.31431,0.260852 -0.69078,1.01057 -0.83496,1.666992 -0.14418,0.656423 -0.51258,1.291091 -0.82032,1.40918 -0.30774,0.11809 -0.55956,0.454456 -0.55956,0.748536 0,0.294078 -0.26685,0.683869 -0.59181,0.865722 -0.5958,0.333435 -1.56342,4.005059 -1.44432,5.479979 0.5614,6.952808 0.59458,6.530625 -0.54492,6.96387 -1.44774,0.550425 -1.54116,0.530618 -2.73488,-0.575685 -0.8773,-0.813067 -1.05625,-1.328445 -1.0708,-3.08496 -0.01,-1.159777 -0.29802,-2.825985 -0.6416,-3.701662 -0.45133,-1.150343 -0.69579,-3.7451 -0.87889,-9.353026 -0.24227,-7.4189556 -0.2874,-7.7560316 -1.03272,-7.6259776 -0.42888,0.07484 -1.23411,0.494344 -1.79004,0.931641 -0.9104,0.716131 -0.99753,1.025211 -0.87744,3.1098636 0.075,1.301113 -0.0752,2.703562 -0.34278,3.203614 -0.42288,0.790155 -0.33774,0.996976 0.76173,1.857421 1.31253,1.027208 1.66506,2.711867 0.75877,3.618164 -0.77679,0.776794 -3.39676,0.583209 -4.29784,-0.317871 -0.43785,-0.437838 -0.96285,-0.796875 -1.16601,-0.796875 -0.59837,0 -0.94068,-4.057986 -0.43653,-5.173827 0.94059,-2.081841 1.66191,-3.187215 2.12109,-3.24756 0.2617,-0.03439 -0.42006,-0.169032 -1.51464,-0.298829 -1.63485,-0.193856 -2.01171,-0.386135 -2.11085,-1.0810536 -0.0664,-0.465281 0.15803,-1.124815 0.49805,-1.464844 0.78072,-0.78075 0.78948,-1.630605 0.022,-2.267578 -0.32837,-0.272531 -0.59766,-0.741395 -0.59766,-1.042969 0,-0.433625 -0.94821,-0.547851 -4.53223,-0.547851 h -4.53222 L 318.8167,15.602653 c -0.12834,6.293925 -0.42063,18.875794 -0.65038,27.960941 -0.52239,20.656279 -0.51741,43.601571 0.0117,53.690911 0.2226,4.244425 0.49494,7.864495 0.60645,8.044915 0.11151,0.18044 0.64353,0.12675 1.18212,-0.11865 0.79165,-0.36069 1.11973,-0.31986 1.70949,0.21387 1.3491,1.22091 2.00412,0.84362 2.1372,-1.23046 0.1005,-1.56632 0.26379,-1.90997 0.95214,-2.00831 1.28215,-0.18318 1.64602,0.6794 1.39161,3.30323 l -0.23292,2.38768 -2.63232,0.11574 c -2.22177,0.0983 -2.78229,0.27458 -3.58301,1.12793 l -0.94921,1.01221 0.0542,11.32763 c 0.0479,10.23745 0.11996,11.40265 0.75734,12.10693 0.38787,0.42861 0.95257,0.7793 1.25389,0.7793 0.30132,0 0.65036,0.26781 0.77637,0.59619 0.12602,0.32838 0.39113,0.59766 0.58886,0.59766 0.19776,0 1.25073,0.62685 2.34084,1.39306 1.09009,0.76623 2.16358,1.39307 2.38476,1.39307 0.22116,0 0.40137,0.16243 0.40137,0.36181 0,0.19941 0.78579,0.74364 1.74609,1.2085 0.96028,0.46487 2.17056,1.19384 2.68798,1.62012 0.51743,0.42628 1.11995,0.92228 1.33887,1.10157 0.21893,0.17928 0.70697,0.44436 1.08545,0.58887 0.37848,0.1445 1.8117,1.08636 3.18457,2.09325 1.37288,1.00691 3.9293,2.88302 5.68067,4.17042 1.75135,1.28739 3.30594,2.21808 3.45556,2.06689 0.47804,-0.48298 1.11575,-14.91536 1.37549,-31.12354 0.14944,-9.32563 0.41172,-15.9251 0.64453,-16.22021 0.50079,-0.63476 3.56734,-0.64847 4.19677,-0.019 0.26271,0.26271 0.47754,1.13583 0.47754,1.94091 0,0.80508 0.24547,1.66922 0.54639,1.91895 0.30091,0.24974 0.63085,1.33002 0.73389,2.40234 0.10303,1.07235 0.48442,2.24663 0.84668,2.60889 0.36227,0.36228 0.65918,1.12421 0.65918,1.69335 0,0.56916 0.29448,1.36116 0.65478,1.75929 0.3603,0.39813 0.74237,1.66536 0.84961,2.8169 0.10836,1.16348 0.43652,2.23571 0.73829,2.41259 0.31448,0.18434 0.54345,0.98503 0.54345,1.90284 0,1.04157 0.20381,1.6629 0.59619,1.81347 0.76478,0.29348 0.76478,1.10261 0,1.73731 -0.66629,0.55298 -0.77379,1.88879 -0.22266,2.75977 0.28464,0.44981 0.48379,0.47056 0.93604,0.0952 0.45306,-0.37601 0.6798,-0.35014 1.07373,0.12451 0.79524,0.9582 1.19826,0.7065 1.19826,-0.74853 0,-0.88007 0.22551,-1.43624 0.64746,-1.59815 0.8163,-0.31324 1.74168,0.42881 1.74168,1.39746 0,0.6436 0.12777,0.68062 0.99465,0.28565 0.83242,-0.37929 0.99462,-0.72864 0.99462,-2.13281 0,-0.9367 0.24168,-1.87848 0.54639,-2.13135 0.3003,-0.24924 0.63688,-1.26388 0.74853,-2.2544 0.11164,-0.99052 0.49387,-2.12074 0.84814,-2.51221 0.35427,-0.39146 0.64451,-1.32523 0.64601,-2.07421 7.5e-4,-0.74898 0.35898,-1.89939 0.79393,-2.55615 0.43496,-0.65678 0.79727,-1.55144 0.80567,-1.98926 0.008,-0.43785 0.27771,-1.1439 0.59913,-1.56885 0.32142,-0.42495 0.58446,-1.51654 0.58446,-2.42578 0,-2.45642 1.26873,-3.76758 3.64599,-3.76758 1.00611,0 2.00991,0.22438 2.22951,0.49804 0.25135,0.31325 0.46575,8.79114 0.58008,22.88819 0.0999,12.31496 0.29664,22.50513 0.43651,22.64502 0.13989,0.13988 0.48278,0.0676 0.76172,-0.16113 0.80541,-0.66046 3.26194,0.68083 3.43066,1.87353 0.1746,1.23425 -0.85174,2.01125 -2.65723,2.01125 h -1.37109 l 0.24171,2.08886 c 0.13315,1.14932 0.36438,5.26946 0.51415,9.15527 0.2159,5.6016 0.38586,7.06495 0.82031,7.06495 0.30138,0 0.65184,0.26927 0.77784,0.59765 0.12601,0.32838 0.40776,0.59619 0.62695,0.59619 0.2192,0 1.52333,0.89613 2.89892,1.99073 1.37559,1.09459 2.70658,1.99072 2.95606,1.99072 0.24948,0 0.55661,0.26781 0.68261,0.59619 0.12603,0.32838 0.59838,0.59766 1.0503,0.59766 0.4519,0 1.10458,0.24409 1.4502,0.54345 1.27683,1.10593 4.81197,3.43653 5.21337,3.43653 0.22804,0 0.5313,0.31416 0.67383,0.69726 0.40165,1.07955 1.82304,3.01854 2.67774,3.65478 0.42456,0.31605 1.06543,0.86769 1.42383,1.22607 0.35839,0.35841 0.90564,0.78 1.21728,0.93605 1.20837,0.60505 4.44003,2.69046 4.74609,3.06298 0.10947,0.13323 0.55617,0.43704 0.99171,0.6753 1.04815,0.57338 1.86165,-0.0961 1.56298,-1.28613 -0.19864,-0.79143 -0.45178,-3.94461 -1.20996,-15.05713 -0.13794,-2.02189 -0.0553,-3.29642 0.2373,-3.64892 0.25508,-0.30737 0.46398,-2.11183 0.48341,-4.17335 0.0274,-2.90475 0.18348,-3.82098 0.77637,-4.57471 0.78561,-0.99875 0.98946,-2.21044 0.37206,-2.21044 -0.20301,0 -0.69524,0.4112 -1.09424,0.91406 -1.13923,1.43582 -1.63114,1.5728 -2.92236,0.81006 -0.91279,-0.53922 -1.36882,-0.60739 -1.89112,-0.28272 -0.37862,0.23536 -1.61504,0.66445 -2.74658,0.95362 -1.82656,0.46678 -2.17279,0.44971 -3.08496,-0.14795 -1.14298,-0.74892 -1.19638,-0.95304 -0.63867,-2.41992 0.3609,-0.94923 0.56777,-1.021 2.93702,-1.021 1.69111,0 2.70234,-0.18621 3.00732,-0.55371 0.7569,-0.91199 3.84037,-1.18511 5.27929,-0.46729 0.68636,0.3424 1.30992,0.62256 1.38575,0.62256 0.34236,0 0.0607,-79.392617 -0.29444,-82.989277 -0.21613,-2.18919 -0.49729,-12.35487 -0.62548,-22.58934 -0.12819,-10.234474 -0.3038,-18.607915 -0.38964,-18.607915 -0.0859,0 -0.48768,0.207951 -0.89357,0.461421 -1.64092,1.024779 -2.69994,-0.661611 -1.42969,-2.276361 0.59757,-0.759631 0.61803,-0.757456 1.24219,0.123045 0.34917,0.49257 0.82028,0.896481 1.04736,0.896481 0.28268,0 0.32804,-4.801657 0.1421,-15.225584 l -0.27246,-15.2241226 1.16748,-1.094238 c 0.64215,-0.602027 1.37509,-1.095702 1.62891,-1.095702 0.2538,0 0.40462,-0.402453 0.33397,-0.89502 -0.0963,-0.671227 -0.35986,-0.870306 -1.05175,-0.795411 -0.50772,0.05496 -1.19235,0.367653 -1.52051,0.695802 -0.43438,0.43438 -1.4953,0.597656 -3.90235,0.597656 -2.1597,0 -3.4485,0.171565 -3.71777,0.496582 -0.22669,0.273649 -0.60216,1.860866 -0.8335,3.525879 -0.23133,1.665012 -0.60504,3.5113316 -0.83055,4.1044916 -0.22553,0.59316 -0.41016,1.788932 -0.41016,2.657228 0,1.036122 -0.20435,1.657249 -0.59619,1.807617 -0.32838,0.126009 -0.59766,0.418612 -0.59766,0.648925 0,0.682473 -3.72933,3.902732 -4.37841,3.780761 -0.32838,-0.06171 -0.65175,-0.58758 -0.71925,-1.168944 -0.0907,-0.781731 0.0913,-1.12512 0.7002,-1.318359 0.5976,-0.189672 0.72961,-0.429023 0.48192,-0.871583 -0.18764,-0.33532 -0.19785,-1.352248 -0.022,-2.260254 0.38925,-2.009401 0.44581,-6.0766586 0.10693,-7.7709956 -0.2349,-1.174532 -0.35202,-1.244731 -2.09032,-1.261231 -1.0125,-0.0096 -2.55792,-0.276323 -3.43361,-0.591797 -0.87567,-0.315474 -1.89795,-0.575313 -2.27343,-0.578613 -0.37549,-0.0033 -1.27161,-0.511247 -1.99072,-1.12793 -1.52166,-1.30492 -4.43207,-2.859375 -5.35401,-2.859375 z M 259.2268,1.5518704 c -0.64019,0.05081 -1.44026,0.412393 -2.73633,1.199708 -1.50953,0.916995 -2.81277,1.407715 -3.74121,1.407715 -1.03266,0 -1.6958,0.292032 -2.41113,1.063476 -0.83157,0.896836 -1.08345,0.984022 -1.60546,0.550782 -0.34067,-0.282736 -0.98246,-0.41941 -1.42676,-0.303223 -0.99441,0.260045 -3.57568,-0.412318 -3.57568,-0.931641 0,-0.649133 -1.83407,-0.416449 -2.4917,0.316406 -0.34378,0.383109 -0.74853,1.362147 -0.89941,2.175294 -0.15089,0.813147 -0.52364,1.685928 -0.82911,1.939452 -0.34518,0.286468 -0.55517,1.2465816 -0.55518,2.5356456 3e-5,1.853335 -0.16427,2.250658 -1.53222,3.732421 -1.21022,1.310892 -1.8101,1.658205 -2.86377,1.658205 -1.38786,0 -3.56544,-1.625628 -3.56544,-2.661621 0,-0.287424 -0.35757,-0.880523 -0.79541,-1.318361 -0.43783,-0.437838 -0.79687,-1.135388 -0.79687,-1.549805 0,-0.414416 -0.26781,-0.8569 -0.59619,-0.98291 -0.34662,-0.133013 -0.59766,-0.7280356 -0.59766,-1.4194336 0,-0.654996 -0.2244,-1.380537 -0.49805,-1.611328 -1.90744,-1.608719 -4.33645,-3.193359 -4.89403,-3.193359 -0.36474,0 -1.31607,0.516169 -2.11377,1.146973 -0.79773,0.630804 -1.80777,1.214368 -2.24562,1.297851 -0.78087,0.148889 -0.80097,0.569516 -1.05029,22.0385706 -0.13981,12.037778 -0.16606,22.03536 -0.0571,22.21729 0.10895,0.18192 0.63078,0.22332 1.15869,0.0908 1.35012,-0.33885 2.53565,0.40573 2.53565,1.592275 0,1.2829 -1.64739,2.14985 -2.59277,1.36523 -0.3669,-0.30449 -0.75763,-0.37002 -0.94482,-0.15819 -0.71361,0.80754 -1.25334,25.56127 -1.24659,57.181647 0.007,32.7998 0.0209,33.34758 0.8042,34.13086 0.43783,0.43784 0.97978,0.79687 1.20556,0.79687 0.2258,0 0.51414,0.26781 0.64014,0.59619 0.12602,0.32838 0.39113,0.59766 0.58887,0.59766 0.19775,0 1.25072,0.62685 2.34081,1.39307 1.09011,0.76622 2.1636,1.39306 2.38478,1.39306 0.22116,0 0.40135,0.18289 0.40135,0.40723 0,0.22433 0.40392,0.58598 0.89649,0.80273 0.9965,0.4385 1.93692,1.03311 5.33058,3.36768 1.27293,0.87567 2.63141,1.7208 3.01904,1.87794 0.38764,0.15713 0.70605,0.46982 0.70605,0.6958 0,0.22597 0.25966,0.41162 0.57715,0.41162 0.31749,0 0.71994,0.22711 0.89502,0.50537 0.17508,0.27826 0.76667,0.72425 1.31397,0.9917 1.56395,0.76427 2.55931,1.44486 2.90478,1.98486 0.17509,0.27366 0.55599,0.49805 0.84668,0.49805 0.2907,0 0.7514,0.26928 1.02393,0.59766 0.27253,0.32837 0.83746,0.59619 1.25536,0.59619 0.4179,0 0.86276,0.26928 0.98877,0.59765 0.26936,0.70196 3.52535,0.84595 3.94044,0.17432 0.14364,-0.23242 0.64784,-0.59407 1.11913,-0.80274 0.47132,-0.20866 1.39403,-0.73536 2.05079,-1.1704 0.65674,-0.43505 1.73094,-1.04442 2.3877,-1.35498 1.46068,-0.69071 7.70392,-4.84299 8.63818,-5.74513 0.89477,-0.86402 1.37277,-1.22427 3.50244,-2.64404 0.98514,-0.65676 2.00885,-1.37337 2.2749,-1.59229 0.26604,-0.21892 0.71337,-0.58056 0.99462,-0.80273 3.31707,-2.62028 4.51464,-3.6285 4.63331,-3.90088 0.0777,-0.17834 0.52503,-0.49364 0.99463,-0.70166 0.46962,-0.20802 1.3911,-0.7339 2.04786,-1.16895 0.65676,-0.43504 1.73238,-1.06549 2.38914,-1.40039 0.65676,-0.3349 1.73094,-0.95813 2.3877,-1.38575 0.65676,-0.42761 1.55289,-0.96813 1.99073,-1.1997 1.44247,-0.76294 2.40778,-1.37331 2.99854,-1.89697 0.90161,-0.7992 4.79384,-3.26514 5.15331,-3.26514 0.1764,0 0.4233,-0.26927 0.54933,-0.59765 0.126,-0.32838 0.50262,-0.59619 0.83787,-0.59619 0.33525,0 0.61086,-0.18436 0.61086,-0.4087 0,-0.22433 0.46206,-0.58452 1.02831,-0.7998 0.56625,-0.21529 2.04435,-1.16413 3.28419,-2.10938 1.23983,-0.94525 2.52366,-1.8387 2.85204,-1.98486 0.7293,-0.32462 1.86416,-1.03461 3.13331,-1.96143 0.52459,-0.3831 1.28797,-0.69726 1.69627,-0.69726 0.40833,0 0.74268,-0.16644 0.74268,-0.37061 0,-0.20416 0.36501,-0.48816 0.81153,-0.62988 0.8106,-0.25728 0.81126,-0.31275 0.67236,-36.347175 -0.10644,-27.612332 -0.25603,-36.463487 -0.64014,-37.681636 -0.33891,-1.074851 -0.57459,-5.827581 -0.7251,-14.627931 -0.12261,-7.169603 -0.33472,-13.02921 -0.4702,-13.02246 -0.13548,0.007 -0.5588,0.249705 -0.9419,0.540525 -0.62373,0.473467 -0.69726,1.385857 -0.69726,8.723145 0,7.972763 -0.0265,8.245388 -0.99318,10.063478 -1.2831,2.4132 -2.53551,3.113977 -4.13524,2.315917 -1.99899,-0.997222 -2.61135,-2.36904 -2.83154,-6.33252 -0.2223,-4.00116 0.182,-3.573442 -3.71778,-3.912592 -1.73565,-0.150945 -2.21616,-0.67536 -1.94091,-2.11524 0.23805,-1.245315 1.09316,-1.61412 1.99071,-0.856928 0.37497,0.316313 0.97122,0.50883 1.32423,0.427733 0.88497,-0.20331 1.09832,-3.016216 0.91406,-12.051272 -0.0826,-4.050003 -0.15299,-9.3576016 -0.15674,-11.7949206 l -0.006,-4.431153 -1.0459,-0.200683 c -0.57527,-0.109968 -2.87951,-0.105541 -5.11964,0.0088 l -4.07226,0.208008 -0.65331,2.069825 c -0.82105,2.603878 -0.82219,4.479148 -0.006,8.4257806 0.7467,3.610039 0.56231,8.042579 -0.41163,9.893559 -0.49699,0.944557 -0.62763,2.541376 -0.62988,7.639155 -0.002,4.114058 -0.15504,6.539333 -0.4248,6.706058 -0.23242,0.143647 -0.58662,0.69123 -0.78663,1.217287 -0.36934,0.971468 -1.70772,1.314653 -2.17528,0.558105 -0.1353,-0.218925 -0.39369,-0.398437 -0.57423,-0.398437 -0.18053,0 -0.41076,14.911205 -0.51269,33.136225 -0.14269,25.513592 -0.30385,33.551107 -0.70167,34.937987 -0.39094,1.36296 -0.95622,2.13804 -2.3203,3.18456 -0.99152,0.76067 -1.99446,1.56389 -2.2295,1.78565 -0.43396,0.40947 -2.25447,1.64601 -3.50244,2.37891 -0.37729,0.22158 -1.77048,1.16433 -3.09667,2.09473 -1.32621,0.93041 -2.65505,1.6919 -2.95313,1.6919 -0.29808,0 -0.64596,0.26781 -0.77197,0.59619 -0.12602,0.32838 -0.50262,0.59764 -0.8379,0.59764 -0.33525,0 -0.60936,0.16224 -0.60938,0.36036 0,0.19812 -0.85123,0.85259 -1.89111,1.4546 -1.03986,0.60201 -2.54359,1.60371 -3.34131,2.22656 -0.79773,0.62284 -1.67886,1.13232 -1.95849,1.13232 -0.27964,0 -0.7911,0.23819 -1.13673,0.52881 -0.82113,0.69044 -3.91621,1.56762 -4.42382,1.2539 -0.21754,-0.13445 -0.7713,-0.98082 -1.23046,-1.88086 -0.82832,-1.62364 -0.83708,-1.98762 -1.10156,-46.642077 -0.15722,-26.543855 -0.1185,-45.46706 0.0937,-46.1294 0.19793,-0.617655 0.74132,-1.297568 1.20702,-1.510253 0.4657,-0.212684 1.29402,-0.645188 1.84131,-0.960938 0.5473,-0.31575 1.45152,-0.575616 2.00977,-0.578616 0.55824,-0.0032 1.18683,-0.177555 1.39599,-0.386715 0.61055,-0.610539 20.1192,-1.032594 21.1919,-0.458499 0.55621,0.297669 1.12381,0.341475 1.52197,0.11865 0.55058,-0.308115 0.65673,-1.784001 0.79248,-11.099119 0.15624,-10.7212626 0.1542,-10.7450896 -0.75292,-11.8007806 -1.01207,-1.177826 -2.08815,-1.326272 -3.24903,-0.448242 -0.54926,0.415434 -1.8297,0.584473 -4.43115,0.584473 -3.49368,0 -3.69116,-0.04727 -4.33301,-1.026856 -0.36978,-0.564338 -1.19637,-1.207856 -1.83691,-1.431152 -0.64055,-0.223296 -1.16454,-0.548397 -1.16456,-0.722169 3e-5,-0.17377 -0.45862,-0.431977 -1.01953,-0.572754 -0.19023,-0.04774 -0.38573,-0.06528 -0.59912,-0.04834 z m 122.75245,3.046876 c 0.0817,-0.01001 0.16053,-0.008 0.23584,0.0059 0.50208,0.09216 0.8435,0.7008 0.75293,1.640625 -0.0934,0.969591 -0.33764,1.327591 -0.97119,1.417969 -1.10976,0.158309 -1.68758,-1.738709 -0.7998,-2.626465 0.26793,-0.267927 0.53725,-0.407955 0.78222,-0.437988 z m -194.14454,1.816406 c 0.23031,-0.0294 0.38968,0.11281 0.63282,0.404297 1.2324,1.477505 1.407,2.614364 0.64599,4.1894526 -0.90897,1.881364 -1.59075,1.904797 -2.66016,0.09228 -1.14843,-1.9464426 -1.06155,-3.0432946 0.32227,-4.0664056 0.52727,-0.389819 0.82877,-0.590231 1.05908,-0.619629 z M 49.241449,12.700794 c 0.441878,-0.05799 1.049805,0.402087 1.268558,1.09131 0.152145,0.479353 0.01993,1.039159 -0.328125,1.387206 -0.512685,0.512688 -0.613748,0.504114 -0.83643,-0.07617 -0.38403,-1.000779 -0.30462,-1.469736 0.19629,-1.160157 0.275392,0.170208 0.370605,0.06326 0.24756,-0.275391 -0.11049,-0.304122 -0.415665,-0.504006 -0.678225,-0.443847 -0.262575,0.06015 -0.36858,-0.06647 -0.235838,-0.28125 0.08972,-0.145176 0.218918,-0.222372 0.36621,-0.241701 z m -0.703125,2.342286 c 0.04758,0.008 0.100545,0.0277 0.155273,0.06152 0.218917,0.135299 0.398437,0.325335 0.398437,0.421875 0,0.09654 -0.17952,0.175781 -0.398437,0.175781 -0.218918,0 -0.398438,-0.190035 -0.398438,-0.421875 0,-0.173877 0.100433,-0.261302 0.243165,-0.237305 z m 277.833996,3.744141 c 0.81888,0.0011 1.74169,0.447232 1.74169,0.993163 0,0.286722 -0.27883,0.918236 -0.61963,1.404785 -0.82247,1.174247 -1.69934,1.119459 -2.17674,-0.13623 -0.53436,-1.405443 -0.49311,-1.681703 0.30906,-2.102051 0.21193,-0.111046 0.47265,-0.160041 0.74562,-0.159667 z m -38.59425,5.349607 c 0.97932,-0.139515 1.54206,1.011375 1.12941,2.311522 -0.29055,0.915443 -1.70985,1.074998 -2.03468,0.228518 -0.43327,-1.129088 0.0248,-2.41461 0.90527,-2.54004 z m -219.572755,4.700685 3.23877,3.083497 3.23731,3.08496 -0.2622,13.533688 c -0.33843,17.458615 -0.69675,26.088935 -1.07374,25.855955 -0.16562,-0.10236 -0.42105,0.5196 -0.56689,1.38281 -0.20503,1.21356 -0.40777,1.5156 -0.895021,1.32863 -0.504319,-0.19353 -0.578209,-0.0498 -0.372079,0.7207 0.14166,0.52949 0.25921,1.20585 0.26221,1.50293 0.003,0.31552 0.25451,0.44446 0.60352,0.31054 0.40226,-0.15435 0.59619,0.0196 0.59619,0.53175 0,1.0848 -0.72818,1.38822 -1.54834,0.64599 -0.38655,-0.34983 -0.82423,-0.63574 -0.97119,-0.63574 -0.14695,0 -0.266601,1.32523 -0.266601,2.94433 v 2.94288 l 1.59228,-0.0806 c 1.553061,-0.0793 1.592291,-0.0496 1.592291,1.234862 0,1.42542 0.72962,1.75926 1.58789,0.72509 0.270529,-0.32598 0.649218,-0.49635 0.840818,-0.37793 0.19161,0.11842 0.23058,-0.0916 0.0864,-0.46728 -0.17663,-0.46029 -0.11154,-0.59049 0.19921,-0.39843 0.29895,0.18476 0.37869,0.0735 0.22852,-0.31788 -0.31898,-0.831242 1.37195,-3.130532 2.09765,-2.852042 0.31865,0.12228 0.46493,0.0461 0.3296,-0.17286 -0.13659,-0.221 0.21449,-0.39404 0.7998,-0.39404 0.59335,0 0.93548,0.1718 0.79541,0.39844 -0.1353,0.21892 -0.0347,0.39844 0.22266,0.39844 0.27788,0 0.37901,0.33618 0.25049,0.82764 -0.15843,0.60543 -0.0635,0.76829 0.35449,0.6079 0.46341,-0.17782 0.52233,0.0965 0.31348,1.460452 -0.30172,1.97032 -0.34643,2.04958 -0.95362,1.67431 -0.25411,-0.15704 -0.38914,-0.66834 -0.30029,-1.13524 0.13237,-0.69567 -0.0392,-0.8562 -0.95069,-0.89064 -1.00415,-0.0379 -1.08668,0.0583 -0.85839,0.99464 0.13908,0.57041 0.58285,1.46423 0.9873,1.98632 0.40446,0.52209 0.73536,1.56831 0.73536,2.32324 0,1.89069 0.92436,1.50431 1.23779,-0.51709 0.22293,-1.43778 0.24677,-1.38329 0.29882,0.68262 0.0863,3.4253 -0.92358,6.004 -3.17285,8.10791 -1.83734,1.718605 -3.216656,2.231755 -3.736818,1.390135 -0.1353,-0.21891 -0.056,-0.39697 0.175789,-0.39697 0.231843,0 0.42187,-0.19857 0.42187,-0.44093 0,-0.24232 -0.2421,-0.34776 -0.537599,-0.23436 -0.42657,0.1637 -0.5879,-0.856555 -0.78369,-4.949715 -0.24473,-5.11644 -0.6223,-6.39803 -1.76806,-6.01611 -0.2717,0.0906 -0.493661,0.007 -0.493661,-0.18311 0,-0.19057 -0.379609,-0.37374 -0.84375,-0.40869 -0.832159,-0.0627 -0.841429,0.0195 -0.68115,5.98536 0.170681,6.352675 0.389811,7.421105 1.360841,6.615235 0.84916,-0.70475 1.87634,0.29539 1.56739,1.52637 -0.13231,0.52714 -0.0814,0.85921 0.11425,0.73828 0.48664,-0.30076 1.268559,1.52214 1.268559,2.95752 0,1.36112 -2.214409,4.04897 -4.149899,5.0376 -0.67323,0.34386 -1.36743,0.86876 -1.542491,1.16748 -0.175069,0.29871 -0.577509,0.54345 -0.895009,0.54345 -0.31751,0 -0.57716,0.15683 -0.57716,0.34716 0,0.57756 -10.09843,7.02431 -10.84423,6.92286 -0.3822,-0.052 -0.65151,0.10981 -0.59766,0.36035 0.0929,0.4324 -5.205498,4.47008 -6.470216,4.93066 -0.32838,0.11959 -1.102882,0.47677 -1.722653,0.79395 -1.490295,0.76272 -1.54716,0.75147 -2.730472,-0.51855 L 44.016327,124.962 43.781952,80.980063 C 43.624099,51.356358 43.403089,36.232889 43.105219,34.65587 c -0.24324,-1.28778 -0.338647,-2.753347 -0.2124,-3.256342 0.26538,-1.057358 1.267043,-2.168033 1.948245,-2.159183 0.297067,0.0039 0.265365,0.136125 -0.08643,0.35889 -0.316793,0.200573 -0.4467,0.63594 -0.301755,1.01367 0.144,0.375015 0.45492,0.539475 0.71631,0.377925 0.640852,-0.396067 20.968946,-0.48111 22.404776,-0.09375 1.429549,0.385658 1.61191,0.237578 1.03711,-0.836422 -0.427941,-0.79962 -0.68184,-0.826725 -6.10253,-0.667973 -3.110681,0.0911 -7.44656,0.02984 -9.63575,-0.13476 -3.272486,-0.24606 -2.263098,-0.310027 5.67627,-0.360352 z m 64.075205,8.094727 c 0.51628,-0.0016 1.03195,0.325125 1.125,0.981444 0.0715,0.504615 -0.0846,1.176351 -0.34718,1.49268 -1.05006,1.265256 -2.17023,0.391731 -1.90428,-1.485354 0.0931,-0.65676 0.61017,-0.987195 1.12646,-0.98877 z m 71.11816,1.157229 c 0.22086,-0.01439 0.47046,0.0878 0.74415,0.31494 0.45801,0.380136 0.58516,1.126566 0.49803,2.934081 -0.1008,2.091488 -0.22788,2.441183 -0.92871,2.541503 -1.18887,0.170182 -1.37694,-0.201668 -1.37694,-2.721683 0,-1.93182 0.40089,-3.025671 1.06347,-3.068841 z m 122.84473,7.691894 c 0.29316,-0.0076 0.58044,0.132187 0.86425,0.416015 0.72968,0.72967 0.78635,1.80495 0.13037,2.46093 -0.62615,0.62613 -1.58346,0.60604 -2.48436,-0.0527 -0.68658,-0.50204 -0.68847,-0.5861 -0.0513,-1.55859 0.54601,-0.83334 1.0524,-1.252943 1.54101,-1.265625 z m 2.9253,3.194825 c 0.24732,0.0221 0.5469,0.25567 1.13379,0.72363 l 1.18651,0.94629 -0.99169,0.8247 c -1.3164,1.095115 -1.90908,1.055065 -2.46387,-0.16259 -0.38934,-0.8545 -0.34083,-1.13134 0.31054,-1.782709 0.38159,-0.381591 0.57737,-0.57138 0.82472,-0.549321 z m 35.84473,3.024895 c 0.52707,0.0484 0.91405,0.58268 0.91405,1.45313 0,1.27097 -0.76456,2.16472 -1.4751,1.72558 -0.8038,-0.49677 -1.02145,-2.2734 -0.34717,-2.83301 0.23064,-0.1914 0.45981,-0.30122 0.67383,-0.33691 0.0803,-0.0134 0.15909,-0.0157 0.23439,-0.009 z m 19.70067,0.3208 c 0.28501,3e-4 1.29303,0.68901 2.24121,1.53077 1.40667,1.24875 1.69987,1.74352 1.59229,2.68652 l -0.13183,1.15576 -3.68847,0.11426 c -4.10202,0.12737 -4.36643,-0.0354 -3.91554,-2.40674 0.18288,-0.96179 0.64581,-1.51815 1.81494,-2.18555 0.86287,-0.49257 1.8024,-0.89533 2.0874,-0.89502 z m -20.48436,11.55176 c 0.78382,0.0263 1.53507,0.4455 1.62889,1.10742 0.0715,0.50463 -0.0846,1.17635 -0.34717,1.49268 -0.48591,0.5855 -2.41974,0.7912 -2.90184,0.30908 -0.47133,-0.47132 -0.28185,-2.01127 0.30762,-2.50049 0.35952,-0.29838 0.84219,-0.42447 1.3125,-0.40869 z m -25.01368,1.18506 c 0.88566,0 1.20699,0.22103 1.39306,0.9624 0.13299,0.52991 0.13269,1.2465 0,1.59228 -0.1429,0.37242 -0.71092,0.62842 -1.39306,0.62842 -1.0781,0 -1.15137,-0.10167 -1.15137,-1.59228 0,-1.49042 0.0739,-1.59082 1.15137,-1.59082 z m 62.87255,1.18945 c 0.44174,-0.0254 0.92429,0.0555 1.42091,0.2461 0.94338,0.36201 0.77331,2.27063 -0.29151,3.27099 -1.21398,1.14046 -1.54511,1.09572 -2.61621,-0.35303 -0.84546,-1.14354 -0.86216,-1.27876 -0.26514,-2.18994 0.39177,-0.5979 1.01574,-0.93186 1.75195,-0.97412 z m -377.44043,4.00635 c 0.60235,-0.0393 1.091918,0.27565 1.349121,0.95215 0.265682,0.6988 0.796699,1.05751 1.880859,1.27294 0.830842,0.16511 1.734652,0.2571 2.0083,0.20362 0.343803,-0.0672 0.498048,0.50822 0.498048,1.86182 0,1.08171 -0.223301,2.14374 -0.498048,2.37159 -0.273648,0.22692 -1.617409,0.74067 -2.985351,1.14258 -2.223859,0.65337 -2.486827,0.84011 -2.487304,1.76367 -3.04e-4,0.56808 -0.353946,1.35306 -0.786622,1.74462 -1.000345,0.9053 -0.663609,1.48191 0.670899,1.14698 0.75145,-0.1886 0.950058,-0.12803 0.732421,0.22411 -0.199854,0.32337 -0.05541,0.44046 0.437989,0.35597 0.500055,-0.0856 0.75511,0.12892 0.793945,0.66943 0.103339,1.43823 0.13611,1.49472 0.641602,1.0752 0.275375,-0.22854 1.297201,-0.69006 2.270508,-1.0254 1.977619,-0.68134 2.994102,-0.28852 2.585449,0.99903 -0.173347,0.54613 -0.07709,0.67773 0.372068,0.50536 0.429127,-0.16467 0.67932,0.0977 0.855472,0.897952 0.136913,0.62194 0.314018,1.3459 0.394043,1.6084 0.08003,0.26252 -0.08947,0.38608 -0.377933,0.27539 -0.299857,-0.11507 -0.617362,0.15015 -0.739747,0.61816 -0.117735,0.45022 -0.03395,0.81739 0.186037,0.81739 0.21999,0 -0.07475,0.58343 -0.65625,1.29492 -2.883479,3.52804 -4.195311,5.2954 -4.195311,5.65137 0,0.93331 -1.330166,3.763695 -1.669922,3.553715 -0.205503,-0.12701 -0.316926,0.082 -0.247558,0.46435 0.06937,0.38238 -0.143302,0.77309 -0.471681,0.86718 -0.423882,0.12149 -0.457685,0.0718 -0.115722,-0.17139 0.353106,-0.25108 0.262643,-0.4792 -0.339844,-0.85545 -0.676982,-0.42282 -0.773343,-0.42087 -0.550781,0.0132 0.148603,0.2898 -0.03192,0.16832 -0.399903,-0.26952 -0.36798,-0.437845 -0.921053,-1.377395 -1.229004,-2.088875 -0.678135,-1.56677 -1.433257,-1.62504 -3.237304,-0.24903 l -1.369629,1.04444 -0.856934,-0.89648 -0.856933,-0.89649 0.896484,0.2124 c 0.492568,0.11706 0.89502,0.0698 0.89502,-0.10547 0,-0.49699 -2.257458,-2.79199 -2.746582,-2.79199 -0.590677,0 -0.553412,0.23991 0.234375,1.50732 0.600943,0.96681 0.515751,0.93493 -0.805665,-0.30029 -0.812319,-0.75934 -1.384962,-1.61972 -1.272949,-1.91162 0.112012,-0.2919 0.03952,-0.4287 -0.161133,-0.30469 -0.559575,0.34583 -0.915367,-1.25327 -0.46582,-2.09326 0.219095,-0.40938 0.71042,-0.99773 1.092773,-1.3081 0.606286,-0.49218 0.651813,-0.48847 0.355957,0.0322 -0.202189,0.35584 -0.192517,0.46282 0.02344,0.26514 0.199287,-0.18243 0.361815,-0.49812 0.361815,-0.70167 0,-0.20354 0.538557,-0.80817 1.195314,-1.34472 l 1.193847,-0.9756 -0.996093,-0.0718 c -0.547299,-0.0389 -1.441962,-0.0891 -1.989258,-0.11282 -0.775655,-0.0336 -1.022684,-0.28466 -1.120605,-1.135262 -0.163759,-1.42251 1.497963,-2.34622 2.780273,-1.5454 1.104637,0.68986 1.414642,0.23314 0.515625,-0.76025 -0.651078,-0.71943 -0.657291,-0.78492 -0.05859,-0.55518 0.517284,0.1985 0.617596,0.10193 0.42334,-0.40431 -0.142213,-0.37062 -0.507769,-0.56748 -0.826173,-0.4453 -0.436864,0.16764 -0.540624,-0.0842 -0.445311,-1.07226 0.07875,-0.81635 0.318462,-1.24982 0.651855,-1.18067 0.28992,0.0602 0.433251,-0.0413 0.319337,-0.22558 -0.113918,-0.18432 0.0632,-1.13015 0.394042,-2.10059 0.589499,-1.72914 3.472224,-5.14747 4.340333,-5.14747 0.241839,0 0.954282,-0.53708 1.583496,-1.19384 0.708549,-0.73957 1.423527,-1.13254 2.025878,-1.17188 z m 357.45703,1.24658 c 0.91212,0.12279 1.99857,2.29843 1.27296,2.7583 -0.82575,0.52334 -1.92918,0.41312 -2.17089,-0.21679 -0.38037,-0.99123 0.0195,-2.40407 0.71776,-2.53711 0.0587,-0.0112 0.11937,-0.0126 0.18017,-0.004 z m -29.05078,3.8877 c 0.62709,-0.0549 1.46605,0.25308 1.61134,0.80859 0.14981,0.57291 0.37348,0.69648 0.81444,0.4497 1.76135,-0.98568 3.39354,1.3976 2.34522,3.42482 -0.33119,0.64045 -0.88326,1.39713 -1.22607,1.68163 -1.02841,0.85352 -0.72261,1.1658 1.26708,1.29347 1.81287,0.11632 1.89603,0.17467 2.01564,1.41504 0.0686,0.71149 -0.0212,1.29631 -0.19923,1.29931 -0.96309,0.0181 -1.39005,0.708512 -0.94922,1.532222 0.38752,0.72408 0.56229,0.7727 1.24658,0.34863 0.65388,-0.40521 0.86445,-0.38622 1.17627,0.10401 0.62043,0.97532 0.44598,1.91861 -0.40428,2.18847 -0.43785,0.13896 -0.79542,0.58886 -0.79542,0.99903 0,0.41016 -0.19395,0.86592 -0.43067,1.0122 -0.51995,0.32136 -2.7539,-1.7284 -2.7539,-2.52685 0,-0.42425 -0.32609,-0.50576 -1.29639,-0.32373 -1.83273,0.34382 -3.84603,-0.34087 -5.12549,-1.7417 -0.60295,-0.66015 -1.21966,-1.199702 -1.3711,-1.199702 -0.33654,0 -1.79726,-1.60497 -2.39648,-2.63232 -1.04914,-1.79874 -5.17902,-0.57369 -4.66699,1.38426 0.12232,0.46774 0.38083,0.84963 0.57423,0.84963 0.72007,0 0.31618,1.256922 -0.74268,2.310042 -1.17314,1.16677 -2.40393,4.06066 -2.82569,6.646 -0.20406,1.25091 -0.45213,1.6198 -1.15576,1.71973 -0.49257,0.07 -0.90726,0.07 -0.92286,0 -0.0156,-0.07 -0.1194,-1.27346 -0.22998,-2.67481 -0.1698,-2.15225 -0.0726,-2.7223 0.6255,-3.6665 0.45453,-0.61479 0.82617,-1.27684 0.82617,-1.4707 0,-0.19387 0.3615,-0.67882 0.80274,-1.07813 l 0.80127,-0.7251 -0.82032,-0.874502 -0.82032,-0.87306 1.41211,-1.84863 c 0.77627,-1.01694 1.41065,-1.99951 1.41065,-2.18262 0,-0.80514 1.76617,-1.84863 3.12744,-1.84863 1.39803,0 1.44474,-0.0473 1.31982,-1.29492 -0.15182,-1.51647 0.68697,-2.05965 2.04639,-1.32567 0.47862,0.25839 1.36233,0.73971 1.96436,1.06932 1.22637,0.67146 1.47405,2.13432 0.49804,2.94435 -0.95792,0.795 -0.69795,1.19384 0.7793,1.19385 1.23023,-3e-5 1.38011,-0.11638 1.40479,-1.09425 0.0152,-0.60204 0.0927,-1.81084 0.17138,-2.68653 0.0787,-0.87567 0.16312,-1.81668 0.1875,-2.09032 0.0284,-0.31868 0.32834,-0.48269 0.70459,-0.51563 z m -275.501957,1.36377 c 0.14744,-0.0125 0.33171,-0.0113 0.55665,0 1.63864,0.0824 2.23198,0.71733 1.66259,1.78125 -0.28828,0.5387 -0.66962,0.73593 -1.09863,0.57129 -0.38982,-0.14961 -0.55531,-0.0893 -0.40869,0.14795 0.32546,0.52659 -0.76937,0.51678 -1.29785,-0.0117 -0.52542,-0.52539 -0.5408,-1.97132 -0.0176,-1.64796 0.2189,0.13531 0.29652,-0.0111 0.17432,-0.32958 -0.12293,-0.32033 -0.0131,-0.47376 0.42919,-0.51123 z m -4.407708,0.16553 c 0.0309,-0.0167 0.0662,0.0423 0.104,0.1875 0.10089,0.38728 0.0944,0.92583 -0.0146,1.1953 -0.10902,0.26949 -0.191209,-0.0478 -0.183109,-0.70458 0.005,-0.41046 0.0423,-0.65046 0.0937,-0.67822 z m 307.517575,0.91993 c 1.38314,0.0572 2.85677,1.87098 1.84131,2.68065 -0.64939,0.5178 -1.9617,0.82286 -2.5459,0.59181 -0.73479,-0.29064 -0.63312,-2.89092 0.12453,-3.18165 0.18636,-0.0715 0.38247,-0.099 0.58006,-0.0908 z m -18.90673,1.37255 c 0.52597,-0.0198 1.28806,0.49852 2.34228,1.55274 1.1013,1.1013 1.79664,2.11696 1.67139,2.44336 -0.29262,0.76253 -2.97972,0.74322 -3.27393,-0.0234 -0.12281,-0.32005 -0.57626,-0.69259 -1.00635,-0.82911 -0.59394,-0.18852 -0.75198,-0.54151 -0.65918,-1.46776 0.11004,-1.09805 0.39981,-1.65599 0.92579,-1.67579 z m -31.47949,5.03173 c 0.56889,0.0253 1.20831,0.22161 1.86474,0.60939 0.94483,0.55812 1.30896,0.59662 1.93359,0.20654 0.62427,-0.38985 0.99771,-0.35046 1.97901,0.208 1.63899,0.932762 1.58251,2.190452 -0.17724,3.899412 -0.84378,0.81941 -1.39308,1.73644 -1.39308,2.32617 0,0.53553 -0.23931,1.21343 -0.53174,1.50587 -0.29242,0.29242 -0.63649,1.54729 -0.76465,2.78906 -0.21354,2.06905 -0.15402,2.3096 0.71631,2.87988 1.25634,0.82318 1.3755,0.79343 1.3755,-0.34571 0,-1.14402 1.18122,-1.66826 2.3496,-1.04296 0.68775,0.36807 0.72354,0.54151 0.28857,1.37988 -0.27372,0.52759 -0.93383,1.419315 -1.46777,1.981935 -0.53392,0.56262 -1.33023,1.0182 -1.76806,1.0122 -1.07844,-0.0146 -3.43098,-1.46097 -4.34325,-2.670405 -0.69906,-0.92675 -0.70407,-1.05512 -0.0908,-2.09326 0.63516,-1.07524 0.92892,-4.76368 0.37941,-4.76368 -0.15065,0 -0.86583,0.40245 -1.58937,0.89502 -1.25859,0.85683 -1.76318,1.89112 -0.92285,1.89112 0.84422,0 0.34679,1.19154 -0.59619,1.42822 -1.72134,0.43203 -2.18994,-0.0254 -2.18994,-2.13721 0,-1.67461 0.15447,-2.04278 1.17773,-2.79931 0.64791,-0.47901 1.72902,-0.87012 2.40234,-0.87012 1.08624,0 1.17789,-0.0872 0.813,-0.76904 -0.30765,-0.57487 -0.26247,-0.91819 0.18165,-1.36231 0.52617,-0.52617 0.4584,-0.62205 -0.59766,-0.854 -0.91089,-0.20006 -1.19093,-0.48196 -1.19093,-1.19677 0,-1.390472 0.91055,-2.163632 2.16212,-2.107922 z m -148.06935,0.31935 c 0.73388,0 1.55964,1.45068 1.26416,2.220692 -0.26781,0.69794 -2.07675,0.74988 -2.33642,0.0674 -0.29601,-0.777942 0.41177,-2.288072 1.07226,-2.288072 z m -110.028805,0.39843 c 0.21892,0 0.39697,0.17805 0.39697,0.39697 0,0.21893 -0.17805,0.39845 -0.39697,0.39845 -0.21892,0 -0.398441,-0.17952 -0.398441,-0.39845 0,-0.21892 0.179521,-0.39697 0.398441,-0.39697 z m 292.107425,0.88038 c 0.14679,-0.008 0.29754,-0.004 0.44824,0.0117 0.8552,0.0886 1.02887,0.354722 1.2422,1.894042 0.1365,0.98514 0.47931,2.34716 0.76171,3.02637 0.28238,0.6792 0.40061,1.52898 0.26222,1.88964 -0.32111,0.83679 -1.03673,0.82012 -2.1548,-0.0498 -0.66289,-0.51578 -0.95251,-1.28359 -1.15576,-3.07471 -0.14904,-1.31351 -0.46701,-2.52379 -0.70752,-2.68798 -0.56727,-0.38727 0.27627,-0.956572 1.30371,-1.009282 z m 9.26661,7.636222 c 0.19734,-0.0115 0.40216,0.0623 0.66357,0.20215 0.45436,0.24317 1.05838,0.76578 1.34326,1.16162 0.28487,0.39583 0.83126,0.83707 1.21436,0.97998 1.19355,0.44519 0.88203,2.40295 -0.57423,3.60937 -1.19093,0.986615 -3.03803,1.387265 -3.6372,0.788095 -0.14595,-0.14594 -0.26661,-0.955215 -0.26661,-1.797375 0,-0.84216 -0.20747,-1.86387 -0.46142,-2.2705 -0.38254,-0.61258 -0.28903,-0.9257 0.54639,-1.82667 0.53175,-0.57347 0.84296,-0.82758 1.17188,-0.84667 z m -7.29345,2.62792 c 1.75362,0 3.20835,4.052645 1.85742,5.173835 -1.01919,0.84585 -0.66687,1.19532 1.20702,1.19532 1.3486,0 1.87194,0.17498 2.07568,0.69579 0.49295,1.26018 0.29408,3.60441 -0.36913,4.34619 -0.35819,0.40061 -0.71193,1.17684 -0.78663,1.72413 -0.0874,0.64068 -0.42614,1.03697 -0.94922,1.11182 -1.18942,0.17026 -1.37695,-0.20103 -1.37695,-2.729 v -2.28223 l -1.29345,0.0601 -1.29347,0.0586 -0.0615,-3.78223 c -0.0777,-4.703465 0.0767,-5.572265 0.99024,-5.572265 z m -38.54299,2.01856 c 0.17445,0 0.34917,0.14995 0.64893,0.44971 0.43854,0.43851 0.56568,0.98176 0.39111,1.677255 -0.16791,0.669 -0.5322,1.02831 -1.04004,1.02831 -1.08275,0 -1.52232,-1.832155 -0.64892,-2.705565 0.29976,-0.29976 0.47447,-0.44971 0.64892,-0.44971 z m 70.64942,11.948725 c 1.39361,0.005 1.5071,0.20771 1.79736,0.97119 0.39228,1.03179 0.17477,2.81502 -0.38524,3.16115 -0.16083,0.0994 -0.99174,0.29239 -1.84718,0.42919 -1.22623,0.19608 -1.77868,0.0738 -2.61181,-0.58155 -0.58119,-0.45715 -1.32032,-0.83202 -1.64208,-0.83202 -1.04705,0 -1.4856,-0.92674 -0.94923,-2.00538 0.4503,-0.90552 0.73374,-0.98877 3.76318,-1.09569 0.80279,-0.0283 1.41047,-0.0486 1.875,-0.0469 z M 84.312741,116.4044 c 0.42972,0 1.39746,1.34526 1.39746,1.94238 0,0.91776 -1.16237,2.51277 -1.18067,1.62013 -0.007,-0.33932 0.16184,-0.79171 0.375,-1.00489 0.25141,-0.2514 0.18941,-0.76824 -0.17578,-1.47216 -0.30964,-0.59683 -0.49685,-1.08546 -0.41601,-1.08546 z m 280.557129,0.0264 c 0.91565,-0.0245 1.85303,1.60098 1.85303,3.59474 0,1.72117 -1.06026,3.98104 -1.98047,4.22167 -0.61021,0.15958 -0.77434,0.49716 -0.70165,1.44141 0.0695,0.9027 -0.0912,1.27125 -0.60206,1.37695 -0.86569,0.17911 -1.34362,-0.92432 -0.72363,-1.67138 0.25256,-0.3043 0.60539,-2.28266 0.78369,-4.396 0.17831,-2.11333 0.51725,-4.03582 0.75293,-4.27148 0.19713,-0.19712 0.40686,-0.29024 0.61816,-0.29591 z m -281.507817,0.90234 c 0.22462,0.054 0.341,0.28818 0.22559,0.72951 -0.1049,0.40113 -0.0284,0.82953 0.16992,0.95214 0.579478,0.35814 0.415948,0.97266 -0.25928,0.97266 -0.34132,0 -0.5103,0.17805 -0.375,0.39697 0.1353,0.21893 -0.10294,0.39844 -0.53027,0.39844 -1.06817,0 -1.36857,-1.02585 -0.68555,-2.34668 0.40476,-0.78271 1.08024,-1.19305 1.45459,-1.10304 z m 308.055197,15.78957 c 1.46505,0 1.61856,0.0912 1.50438,0.89501 -0.0954,0.672 -0.42531,0.92122 -1.32129,0.99903 -1.48506,0.12896 -2.38293,-0.41798 -2.06103,-1.25684 0.1692,-0.44094 0.74844,-0.6372 1.87794,-0.6372 z m 11.65135,1.19384 c 1.81166,0 2.27228,0.16409 3.21533,1.14844 l 1.10157,1.14843 -1.12206,1.04151 c -1.28427,1.19084 -1.1589,1.17547 -2.69238,0.30615 -1.96827,-1.11577 -2.61623,-1.79352 -2.61623,-2.73779 0,-0.82972 0.17846,-0.90674 2.11377,-0.90674 z m -220.98192,0.0806 c 0.29689,-0.0341 0.64707,0.0108 1.0371,0.14796 0.8691,0.30564 1.1001,0.63661 1.1001,1.57177 0,1.04549 -0.15146,1.19947 -1.29345,1.30958 -1.09713,0.10578 -1.35686,-0.0417 -1.70802,-0.96534 -0.43731,-1.15021 -0.0265,-1.96157 0.86427,-2.06397 z m -7.69776,2.31739 c 0.94264,0.0286 1.84203,0.57407 1.54686,1.34326 -0.15924,0.41498 -0.72587,0.63721 -1.62597,0.63721 -1.56606,0 -2.12418,-0.55619 -1.41504,-1.41065 0.34714,-0.41827 0.92856,-0.587 1.49415,-0.56982 z m 217.83251,0.1919 c 0.88029,0.019 1.62054,0.11614 1.80762,0.30321 0.16827,0.16827 0.40665,1.06293 0.53028,1.98927 0.21997,1.64813 0.26434,1.6902 2.01708,1.94091 7.0371,1.00662 7.94208,1.61725 7.95264,5.35547 0.005,1.86228 -0.1772,2.63989 -0.78807,3.34424 -0.43785,0.50484 -0.79689,1.32725 -0.79689,1.82813 0,1.15473 -0.51362,1.46484 -2.42871,1.46484 -1.11783,0 -1.59296,0.19127 -1.75635,0.70606 -0.12321,0.38821 -0.44088,0.87941 -0.70605,1.09131 -1.25277,1.00108 -3.64142,0.80653 -5.05224,-0.41016 -0.94917,-0.81858 -1.00254,-1.23355 -0.24024,-1.86621 0.48417,-0.402 0.48519,-0.61662 0.003,-1.54102 -0.30824,-0.59082 -0.56246,-1.45464 -0.56396,-1.92041 -7.5e-4,-0.46575 -0.29191,-1.08749 -0.646,-1.38135 -0.51774,-0.42971 -0.60755,-1.08795 -0.46143,-3.36474 0.16546,-2.57833 0.10774,-2.86357 -0.64746,-3.1963 -0.45605,-0.20092 -0.89403,-0.72378 -0.97265,-1.16161 -0.0786,-0.43786 -0.42466,-1.11465 -0.76905,-1.50293 -0.49449,-0.55752 -0.5232,-0.80835 -0.1377,-1.19385 0.33332,-0.33331 2.1891,-0.51649 3.65625,-0.48486 z m -310.325677,2.67919 c 0.12493,0.005 0.25586,0.0236 0.38965,0.0571 1.1742,0.29472 1.33559,1.08434 0.41162,2.00829 -0.85949,0.85949 -2.04845,0.78479 -2.5547,-0.16113 -0.35416,-0.66175 -0.31412,-0.74694 0.2505,-0.53028 0.3888,0.14919 0.5714,0.0956 0.43359,-0.12744 -0.4105,-0.66418 0.19478,-1.28235 1.06934,-1.24657 z m 80.479977,8.75245 c 0.28541,0.0223 0.60186,0.1192 0.9375,0.29882 1.04075,0.55701 1.06541,2.23203 0.041,2.78028 -1.67556,0.89672 -2.41554,0.46326 -2.41554,-1.41797 0,-1.11662 0.58077,-1.72817 1.43703,-1.66113 z m -141.615236,11.0888 c 0.562471,0.0233 1.14671,0.27768 1.718261,0.76173 0.92214,0.78096 0.925212,0.80689 0.166993,1.39306 -0.744693,0.57572 -2.675516,0.74835 -3.706055,0.33252 -0.713738,-0.288 -0.612251,-1.09975 0.231445,-1.86328 0.486423,-0.44021 1.026885,-0.64733 1.589356,-0.62403 z m -3.574219,19.88965 c 0.658698,-0.0552 1.352764,0.2092 1.640625,0.74708 0.62904,1.17537 0.504656,3.09026 -0.218262,3.36767 -0.836699,0.32104 -2.355126,0.30649 -2.686523,-0.0249 -0.497273,-0.49727 -0.283023,-1.70595 0.265137,-1.49561 0.30479,0.11697 0.530273,-0.0652 0.530273,-0.42774 0,-0.36255 -0.225483,-0.54469 -0.530273,-0.42773 -0.660622,0.2535 -0.697196,-0.63874 -0.05273,-1.2832 0.274215,-0.27421 0.656541,-0.42247 1.051758,-0.45557 z"
     id="path913-7"
     inkscape:connector-curvature="0" />
</svg>
