<?xml version="1.0" encoding="UTF-8" standalone="no"?>
<!-- Created with Inkscape (http://www.inkscape.org/) -->

<svg
   xmlns:dc="http://purl.org/dc/elements/1.1/"
   xmlns:cc="http://creativecommons.org/ns#"
   xmlns:rdf="http://www.w3.org/1999/02/22-rdf-syntax-ns#"
   xmlns:svg="http://www.w3.org/2000/svg"
   xmlns="http://www.w3.org/2000/svg"
   xmlns:sodipodi="http://sodipodi.sourceforge.net/DTD/sodipodi-0.dtd"
   xmlns:inkscape="http://www.inkscape.org/namespaces/inkscape"
   version="1.1"
   id="svg2"
   width="150.01918"
   height="144.62245"
   viewBox="0 0 150.01918 144.62245"
   sodipodi:docname="art.svg"
   inkscape:version="0.92.4 (5da689c313, 2019-01-14)">
  <metadata
     id="metadata8">
    <rdf:RDF>
      <cc:Work
         rdf:about="">
        <dc:format>image/svg+xml</dc:format>
        <dc:type
           rdf:resource="http://purl.org/dc/dcmitype/StillImage" />
        <dc:title></dc:title>
      </cc:Work>
    </rdf:RDF>
  </metadata>
  <defs
     id="defs6" />
  <sodipodi:namedview
     pagecolor="#ffffff"
     bordercolor="#666666"
     borderopacity="1"
     objecttolerance="10"
     gridtolerance="10"
     guidetolerance="10"
     inkscape:pageopacity="0"
     inkscape:pageshadow="2"
     inkscape:window-width="1600"
     inkscape:window-height="837"
     id="namedview4"
     showgrid="false"
     inkscape:zoom="0.78926719"
     inkscape:cx="247.28141"
     inkscape:cy="153.85404"
     inkscape:window-x="-8"
     inkscape:window-y="-8"
     inkscape:window-maximized="1"
     inkscape:current-layer="g882" />
  <g
     id="g4304"
     transform="translate(618.00289,-237.30482)">
    <g
       id="g4343"
       transform="matrix(0.6887238,0,0,0.6887238,-2.750104e-7,157.74828)">
      <g
         id="g4404">
        <g
           id="g882">
          <g
             style="fill:#ffffff;stroke:#000000;stroke-width:4.44348717;stroke-miterlimit:4;stroke-dasharray:none"
             id="g3910"
             transform="matrix(0.39969573,0,0,-0.38531726,-908.78178,339.581)">
            <path
               inkscape:connector-curvature="0"
               id="path22"
               style="fill:#ffffff;fill-opacity:1;fill-rule:nonzero;stroke:#000000;stroke-width:4.44348717;stroke-miterlimit:4;stroke-dasharray:none"
               d="m 0,0 c 0,149.251 121.013,270.264 270.262,270.264 149.25,0 270.264,-121.013 270.264,-270.264 0,-149.25 -121.014,-270.262 -270.264,-270.262 C 121.013,-270.262 0,-149.25 0,0"
               transform="translate(30.908,309.0299)" />
            <g
               style="fill:#ffffff;stroke:#000000;stroke-width:4.44348717;stroke-miterlimit:4;stroke-dasharray:none"
               transform="translate(405.6829,391.9049)"
               id="g24">
              <path
                 inkscape:connector-curvature="0"
                 id="path26"
                 style="fill:#ffffff;fill-opacity:1;fill-rule:nonzero;stroke:#000000;stroke-width:4.44348717;stroke-miterlimit:4;stroke-dasharray:none"
                 d="m 0,0 c -4.763,1.051 -9.038,5.4 -9.038,5.4 l 1.801,5.4 5.437,3.6 c 0,0 5.4,-0.449 7.2,-1.8 C 7.2,11.25 9,5.4 9,5.4 L 4.95,1.8 C 4.95,1.8 4.05,-0.899 0,0 m 30.601,30.637 7.236,10.802 h 9.002 c 0,0 7.649,-11.25 7.649,-13.052 0,-1.8 -5.85,-10.386 -5.85,-10.386 L 36.9,18.45 Z m 0,-90.075 c 6.112,-3.9 12.599,-3.825 18.9,-3.75 10.538,0.114 20.661,3.414 27.936,11.851 5.888,8.549 6.04,13.876 9.488,23.549 2.025,5.663 4.5,8.888 4.5,8.888 0,0 2.025,-7.65 1.801,-16.686 -0.151,-6.039 -1.238,-12.413 -4.951,-18.452 -7.2,-11.737 -13.987,-16.236 -18.936,-17.137 -4.951,-0.899 -18.9,-2.699 -27.902,1.35 -7.049,3.187 -10.836,10.387 -10.836,10.387 M -9.038,95.475 -52.274,32.438 -21.638,-34.237 32.4,-102.713 73.837,-117.112 126.112,-54.038 118.912,0 64.838,75.676 Z" />
            </g>
            <g
               style="fill:#ffffff;stroke:#000000;stroke-width:4.44348717;stroke-miterlimit:4;stroke-dasharray:none"
               transform="translate(84.9827,291.0299)"
               id="g28">
              <path
                 inkscape:connector-curvature="0"
                 id="path30"
                 style="fill:#ffffff;fill-opacity:1;fill-rule:nonzero;stroke:#000000;stroke-width:4.44348717;stroke-miterlimit:4;stroke-dasharray:none"
                 d="m 0,0 5.4,144.114 18.001,21.637 70.274,-52.276 18.001,106.763 3.6,-31.088 9.036,16.238 1.8,-14.438 12.601,16.238 2.1,-189.489 L 39.637,95.476 C 39.637,95.476 0,0.9 0,0" />
            </g>
            <g
               style="fill:#ffffff;stroke:#000000;stroke-width:4.44348717;stroke-miterlimit:4;stroke-dasharray:none"
               transform="translate(241.6956,507.2174)"
               id="g32">
              <path
                 inkscape:connector-curvature="0"
                 id="path34"
                 style="fill:#ffffff;fill-opacity:1;fill-rule:nonzero;stroke:#000000;stroke-width:4.44348717;stroke-miterlimit:4;stroke-dasharray:none"
                 d="m 0,0 121.95,34.237 c 0,0 -24.637,-14.436 -22.837,-14.436 1.799,0 16.2,-1.8 16.2,-1.8 L 86.512,0 l 32.4,1.8 -86.475,-50.436 v -3.602 l 93.713,5.402 -93.713,-66.677 v -19.798 l 70.577,8.699 c 0,0 -23.288,-13.237 -21.903,-12.338 1.353,0.937 17.101,0.638 17.101,0.638 l -9.899,-6.038 h 17.099 L 1.838,-216.187 Z" />
            </g>
            <g
               style="fill:#ffffff;stroke:#000000;stroke-width:4.44348717;stroke-miterlimit:4;stroke-dasharray:none"
               transform="translate(232.6956,235.1549)"
               id="g36">
              <path
                 inkscape:connector-curvature="0"
                 id="path38"
                 style="fill:#ffffff;fill-opacity:1;fill-rule:nonzero;stroke:#000000;stroke-width:4.44348717;stroke-miterlimit:4;stroke-dasharray:none"
                 d="m 0,0 -29.774,65.176 c 0,0 -16.5,14.888 -45.788,13.837 -6.451,-0.225 -59.738,-0.638 -63.151,-82.613 -3.038,-73.312 45.826,-107.963 45.826,-107.963 0,0 23.662,-17.474 41.175,-28.087 17.512,-10.649 49.912,-26.1 49.912,-26.1 L -27.001,-5.398 -81.075,-21.6 l 10.838,-1.8 -18.038,-14.438 16.199,-1.799 -10.799,-10.801 28.837,-1.799 10.8,-41.437 c 0,0 -21.975,6.9 -40.463,25.274 -15.148,15.075 -27.336,39.639 -28.011,59.401 -0.638,19.761 8.624,44.7 36.037,45.037 C -48.224,36.375 0,0 0,0" />
            </g>
            <g
               style="fill:#ffffff;stroke:#000000;stroke-width:4.44348717;stroke-miterlimit:4;stroke-dasharray:none"
               transform="translate(218.2962,190.1178)"
               id="g40">
              <path
                 inkscape:connector-curvature="0"
                 id="path42"
                 style="fill:#ffffff;fill-opacity:1;fill-rule:nonzero;stroke:#000000;stroke-width:4.44348717;stroke-miterlimit:4;stroke-dasharray:none"
                 d="m 0,0 102.675,140.549 64.874,-52.275 c 0,0 -8.101,2.065 -8.999,1.8 -0.901,-0.224 14.399,-21.599 14.399,-21.599 l -19.8,7.201 10.8,-14.4 -66.675,23.399 -5.399,-5.4 43.237,-72.076 -88.275,3.6 48.639,-93.674 -18.002,3.601 8.476,-21.189 -15.225,13.238 12.149,-22.687 z" />
            </g>
            <g
               style="fill:#ffffff;stroke:#000000;stroke-width:4.44348717;stroke-miterlimit:4;stroke-dasharray:none"
               transform="translate(371.4456,148.6803)"
               id="g44">
              <path
                 inkscape:connector-curvature="0"
                 id="path46"
                 style="fill:#ffffff;fill-opacity:1;fill-rule:nonzero;stroke:#000000;stroke-width:4.44348717;stroke-miterlimit:4;stroke-dasharray:none"
                 d="M 0,0 5.4,9 21.6,16.199 34.237,0 h 10.8 l 14.401,5.4 10.799,-23.4 -27,-12.637 H 30.601 l -5.402,10.799 H 7.2 Z m 93.675,48.637 c 0,0 6.562,2.926 7.2,1.801 0.637,-1.087 9,-1.801 9,-1.801 v -9 l -7.2,-5.4 -9,5.4 z m -37.836,9.002 -7.202,10.836 7.202,14.4 18.036,1.801 5.401,-10.801 -5.401,-14.437 z m -81.077,-34.202 -1.799,-64.875 28.838,-23.437 50.773,10.687 84.338,73.987 5.4,91.914 H 45.037 Z" />
            </g>
          </g>
        </g>
      </g>
    </g>
  </g>
</svg>
